<svg xmlns="http://www.w3.org/2000/svg" width="177.401" height="185.602" viewBox="0 0 177.401 185.602">
  <path id="_21._Verified" data-name="21. Verified" d="M170.585,106.365a23.219,23.219,0,0,1,0-27.244l5.882-8.127a7.74,7.74,0,0,0,1.084-6.966,7.879,7.879,0,0,0-4.953-4.953l-9.52-3.1a23.119,23.119,0,0,1-16.021-22.058V23.859a7.74,7.74,0,0,0-10.139-7.353l-9.6,3.1a23.219,23.219,0,0,1-25.928-8.436L95.509,3.039a8.018,8.018,0,0,0-12.538,0l-5.882,8.127A23.219,23.219,0,0,1,51.16,19.6l-9.6-3.1a7.74,7.74,0,0,0-10.139,7.353V33.921A23.119,23.119,0,0,1,15.4,55.979l-9.52,3.1A7.879,7.879,0,0,0,.929,64.029a7.74,7.74,0,0,0,1.084,6.966l5.882,8.127a23.219,23.219,0,0,1,0,27.244l-5.882,8.127a7.74,7.74,0,0,0-1.084,6.966,7.879,7.879,0,0,0,4.953,4.953l9.52,3.1a23.119,23.119,0,0,1,16.021,22.058v10.062a7.74,7.74,0,0,0,10.139,7.353l9.52-3.1a23.173,23.173,0,0,1,26.006,8.436l5.882,8.127a7.779,7.779,0,0,0,12.538,0l5.882-8.127a23.219,23.219,0,0,1,26.006-8.436l9.52,3.1a7.74,7.74,0,0,0,10.139-7.353V151.566a23.119,23.119,0,0,1,16.021-22.058l9.52-3.1a7.879,7.879,0,0,0,4.953-4.953,7.74,7.74,0,0,0-1.084-6.966Zm-44.891-23.63L87,121.435a7.74,7.74,0,0,1-10.944,0L52.832,98.215A7.739,7.739,0,1,1,63.777,87.271L81.5,105.019l33.227-33.227a7.739,7.739,0,1,1,10.945,10.945Z" transform="translate(-0.54 -0.02)" fill="#a773f4"/>
</svg>
