<svg xmlns="http://www.w3.org/2000/svg" xmlns:xlink="http://www.w3.org/1999/xlink" width="336.004" height="303.143" viewBox="0 0 336.004 303.143">
  <defs>
    <filter id="Path_1">
      <feOffset dy="3" input="SourceAlpha"/>
      <feGaussianBlur result="blur"/>
      <feFlood flood-color="#fff" result="color"/>
      <feComposite operator="out" in="SourceGraphic" in2="blur"/>
      <feComposite operator="in" in="color"/>
      <feComposite operator="in" in2="SourceGraphic"/>
    </filter>
    <filter id="Path_6">
      <feOffset dx="-2" input="SourceAlpha"/>
      <feGaussianBlur result="blur-2"/>
      <feFlood flood-color="#fff" result="color-2"/>
      <feComposite operator="out" in="SourceGraphic" in2="blur-2"/>
      <feComposite operator="in" in="color-2"/>
      <feComposite operator="in" in2="SourceGraphic"/>
    </filter>
    <filter id="Path_7">
      <feOffset dx="1" dy="2" input="SourceAlpha"/>
      <feGaussianBlur result="blur-3"/>
      <feFlood flood-color="#fff" result="color-3"/>
      <feComposite operator="out" in="SourceGraphic" in2="blur-3"/>
      <feComposite operator="in" in="color-3"/>
      <feComposite operator="in" in2="SourceGraphic"/>
    </filter>
  </defs>
  <g id="Group_2126" data-name="Group 2126" transform="translate(45.198 8977.297)">
    <g id="behaviour-svgrepo-com" transform="matrix(0.951, -0.309, 0.309, 0.951, -45.198, -8816.245)">
      <path id="Path_898" data-name="Path 898" d="M134.794,8.152V32.846a11.187,11.187,0,0,0,11.188-11.187V19.34A11.188,11.188,0,0,0,134.794,8.152Z" transform="translate(-122.737 -7.283)" fill="#ffc1a6"/>
      <path id="Path_899" data-name="Path 899" d="M41.082,8.152c4.258,0,7.71,5.009,7.71,11.187v2.319c0,6.179-3.451,11.187-7.71,11.187A11.187,11.187,0,0,1,29.894,21.658V19.339A11.187,11.187,0,0,1,41.082,8.152Z" transform="translate(-29.024 -7.283)" fill="#ffdbcc"/>
      <path id="Path_900" data-name="Path 900" d="M377.206,8.152V32.846a11.187,11.187,0,0,0,11.188-11.187V19.34A11.187,11.187,0,0,0,377.206,8.152Z" transform="translate(-339.296 -7.283)" fill="#ffc1a6"/>
      <path id="Path_901" data-name="Path 901" d="M283.494,8.152c4.258,0,7.71,5.009,7.71,11.187v2.319c0,6.179-3.451,11.187-7.71,11.187a11.187,11.187,0,0,1-11.188-11.187V19.339A11.187,11.187,0,0,1,283.494,8.152Z" transform="translate(-245.583 -7.283)" fill="#ffdbcc"/>
      <path id="Path_902" data-name="Path 902" d="M134.794,272.3V297a11.187,11.187,0,0,0,11.188-11.188v-2.319A11.188,11.188,0,0,0,134.794,272.3Z" transform="translate(-122.737 -243.263)" fill="#ffc1a6"/>
      <path id="Path_903" data-name="Path 903" d="M41.082,272.3c4.258,0,7.71,5.009,7.71,11.187v2.319c0,6.179-3.451,11.188-7.71,11.188A11.187,11.187,0,0,1,29.894,285.81v-2.319A11.187,11.187,0,0,1,41.082,272.3Z" transform="translate(-29.024 -243.263)" fill="#ffdbcc"/>
      <path id="Path_904" data-name="Path 904" d="M377.206,272.3V297a11.187,11.187,0,0,0,11.188-11.188v-2.319A11.187,11.187,0,0,0,377.206,272.3Z" transform="translate(-339.296 -243.263)" fill="#ffc1a6"/>
      <path id="Path_905" data-name="Path 905" d="M283.494,272.3c4.258,0,7.71,5.009,7.71,11.187v2.319c0,6.179-3.451,11.188-7.71,11.188a11.187,11.187,0,0,1-11.188-11.187v-2.319A11.187,11.187,0,0,1,283.494,272.3Z" transform="translate(-245.583 -243.263)" fill="#ffdbcc"/>
      <path id="Path_906" data-name="Path 906" d="M357.784,405.269a2.319,2.319,0,0,0-2.319,2.319v1.159a2.319,2.319,0,0,0,4.638,0v-1.159A2.319,2.319,0,0,0,357.784,405.269Z" transform="translate(-319.873 -362.048)" fill="#fe5f1a"/>
      <path id="Path_907" data-name="Path 907" d="M167.732,98.577a.869.869,0,0,0-.87.87v1.739a.87.87,0,1,0,1.739,0V99.447A.87.87,0,0,0,167.732,98.577Z" transform="translate(-151.385 -88.064)"/>
      <path id="Path_908" data-name="Path 908" d="M87.29,98.577a.869.869,0,0,0-.87.87v1.739a.87.87,0,1,0,1.739,0V99.447A.87.87,0,0,0,87.29,98.577Z" transform="translate(-79.522 -88.064)"/>
      <path id="Path_909" data-name="Path 909" d="M114.9,152.955a.87.87,0,0,0-1.06.624.926.926,0,0,1-1.794,0,.87.87,0,0,0-1.684.436,2.665,2.665,0,0,0,5.162,0A.869.869,0,0,0,114.9,152.955Z" transform="translate(-100.882 -136.617)"/>
      <path id="Path_910" data-name="Path 910" d="M33.8,0A12.071,12.071,0,0,0,21.74,12.057v2.319a12.057,12.057,0,0,0,24.114,0V12.057A12.071,12.071,0,0,0,33.8,0ZM44.115,14.376a10.318,10.318,0,0,1-20.636,0V12.057a10.318,10.318,0,0,1,20.636,0Z" transform="translate(-21.74)"/>
      <path id="Path_911" data-name="Path 911" d="M410.144,98.577a.869.869,0,0,0-.87.87v1.739a.87.87,0,1,0,1.739,0V99.447A.869.869,0,0,0,410.144,98.577Z" transform="translate(-367.944 -88.064)"/>
      <path id="Path_912" data-name="Path 912" d="M329.7,98.577a.869.869,0,0,0-.87.87v1.739a.87.87,0,1,0,1.739,0V99.447A.869.869,0,0,0,329.7,98.577Z" transform="translate(-296.081 -88.064)"/>
      <path id="Path_913" data-name="Path 913" d="M357.095,152.93h-3.478a.87.87,0,1,0,0,1.739h3.478a.87.87,0,1,0,0-1.739Z" transform="translate(-317.445 -136.62)"/>
      <path id="Path_914" data-name="Path 914" d="M276.21,0a12.071,12.071,0,0,0-12.057,12.057v2.319a12.057,12.057,0,0,0,24.114,0V12.057A12.071,12.071,0,0,0,276.21,0Zm10.318,14.376a10.318,10.318,0,0,1-20.636,0V12.057a10.318,10.318,0,0,1,20.636,0Z" transform="translate(-238.3)"/>
      <path id="Path_915" data-name="Path 915" d="M167.732,362.73a.869.869,0,0,0-.87.87v1.739a.87.87,0,1,0,1.739,0V363.6A.87.87,0,0,0,167.732,362.73Z" transform="translate(-151.385 -324.045)"/>
      <path id="Path_916" data-name="Path 916" d="M87.29,362.73a.869.869,0,0,0-.87.87v1.739a.87.87,0,1,0,1.739,0V363.6A.87.87,0,0,0,87.29,362.73Z" transform="translate(-79.522 -324.045)"/>
      <path id="Path_917" data-name="Path 917" d="M112.942,417.083a2.667,2.667,0,0,0-2.581,2,.87.87,0,0,0,1.684.436.926.926,0,0,1,1.794,0,.87.87,0,0,0,1.684-.436A2.668,2.668,0,0,0,112.942,417.083Z" transform="translate(-100.885 -372.602)"/>
      <path id="Path_918" data-name="Path 918" d="M33.8,264.152a12.071,12.071,0,0,0-12.057,12.057v2.319a12.057,12.057,0,0,0,24.114,0v-2.319A12.071,12.071,0,0,0,33.8,264.152Zm10.318,14.376a10.318,10.318,0,0,1-20.636,0v-2.319a10.318,10.318,0,0,1,20.636,0Z" transform="translate(-21.741 -235.981)"/>
      <path id="Path_919" data-name="Path 919" d="M410.144,362.73a.869.869,0,0,0-.87.87v1.739a.87.87,0,1,0,1.739,0V363.6A.87.87,0,0,0,410.144,362.73Z" transform="translate(-367.944 -324.045)"/>
      <path id="Path_920" data-name="Path 920" d="M329.7,362.73a.869.869,0,0,0-.87.87v1.739a.87.87,0,1,0,1.739,0V363.6A.87.87,0,0,0,329.7,362.73Z" transform="translate(-296.081 -324.045)"/>
      <path id="Path_921" data-name="Path 921" d="M350.5,397.116a3.192,3.192,0,0,0-3.188,3.188v1.159a3.188,3.188,0,0,0,6.377,0V400.3A3.192,3.192,0,0,0,350.5,397.116Zm1.449,4.348a1.449,1.449,0,0,1-2.9,0V400.3a1.449,1.449,0,1,1,2.9,0Z" transform="translate(-312.59 -354.764)"/>
      <path id="Path_922" data-name="Path 922" d="M276.21,264.152a12.071,12.071,0,0,0-12.057,12.057v2.319a12.057,12.057,0,0,0,24.114,0v-2.319A12.071,12.071,0,0,0,276.21,264.152Zm10.318,14.376a10.318,10.318,0,0,1-20.636,0v-2.319a10.318,10.318,0,0,1,20.636,0Z" transform="translate(-238.3 -235.981)"/>
    </g>
    <g id="dress-svgrepo-com" transform="translate(19.588 -8977.297) rotate(22)">
      <path id="Path_923" data-name="Path 923" d="M5.119,0H49.485A5.119,5.119,0,0,1,54.6,5.119V49.485A5.119,5.119,0,0,1,49.485,54.6H5.119A5.119,5.119,0,0,1,0,49.485V5.119A5.119,5.119,0,0,1,5.119,0Z" fill="#c9483a"/>
      <path id="Path_924" data-name="Path 924" d="M5.119,0H46.073a5.119,5.119,0,0,1,5.119,5.119V49.485A5.119,5.119,0,0,1,46.073,54.6H5.119A5.119,5.119,0,0,1,0,49.485V5.119A5.119,5.119,0,0,1,5.119,0Z" fill="#d97360"/>
      <path id="Path_925" data-name="Path 925" d="M27.064,0H10l8.532,8.532Z" transform="translate(7.064)" fill="#c9483a"/>
      <path id="Path_926" data-name="Path 926" d="M24.1,10.032a5.119,5.119,0,0,1-7.24,0L15.564,8.738a5.12,5.12,0,0,1,0-7.238l1.5-1.5L25.6,8.532Zm3,0a5.119,5.119,0,0,0,7.24,0L35.628,8.74a5.119,5.119,0,0,0,0-7.24L34.128,0,25.6,8.532Zm24.1,17.27H0v3.413H51.192Z" fill="#f2c7b5"/>
      <rect id="Rectangle_537" data-name="Rectangle 537" width="4" height="4" transform="translate(54.912 31) rotate(180)" fill="#e69d8a"/>
      <path id="Path_927" data-name="Path 927" d="M17.413,9.706A1.706,1.706,0,1,1,15.706,8,1.707,1.707,0,0,1,17.413,9.706Zm-1.706,5.119a1.706,1.706,0,1,0,1.706,1.706A1.707,1.707,0,0,0,15.706,14.825Z" transform="translate(9.89 5.651)" fill="#e69d8a"/>
    </g>
    <path id="emoji-funny-square-svgrepo-com" d="M3.269,13.911c-2.494,4.32-1.025,9.8,1.914,20.771s4.408,16.451,8.728,18.946,9.8,1.025,20.772-1.914,16.451-4.408,18.946-8.728,1.025-9.8-1.914-20.771S47.307,5.764,42.987,3.269s-9.8-1.025-20.772,1.914S5.764,9.591,3.269,13.911Zm15.09,24.457a1.984,1.984,0,0,1,2.406-1.442,19.836,19.836,0,0,0,9.908-.175,19.836,19.836,0,0,0,8.668-4.8A1.984,1.984,0,0,1,42.1,34.8a22.219,22.219,0,0,1-3.039,2.457l.418.851a3.967,3.967,0,0,1-7.122,3.5l-.519-1.057-.139.037a23.8,23.8,0,0,1-11.9.192A1.984,1.984,0,0,1,18.359,38.369Zm19.282-16.49c.567,2.116-.117,4.139-1.528,4.517s-3.015-1.031-3.582-3.147.117-4.139,1.528-4.517S37.074,19.762,37.641,21.878ZM20.785,30.5c1.411-.378,2.1-2.4,1.528-4.517s-2.171-3.526-3.582-3.147-2.1,2.4-1.528,4.517S19.374,30.88,20.785,30.5Z" transform="translate(149.551 -8979.297)" fill="#ffd855" fill-rule="evenodd"/>
    <g id="Group_2124" data-name="Group 2124" transform="translate(-101.964 -9284.908)">
      <g id="makeup-brush-4-svgrepo-com" transform="matrix(0.978, -0.208, 0.208, 0.978, 316.568, 498.283)">
        <path id="Path_928" data-name="Path 928" d="M51.085,4.091C47.027.033,41.4-.925,37.662,2.82,36.221,4.259,32.355,13.706,31.8,15.085l-4.782,4.781c-4.239,3.392-14.7,13-25.717,28.824-1.662,2.388-1.695,3.955-.282,5.37S4,55.439,6.385,53.777C22.21,42.756,31.818,32.3,35.209,28.062L39.872,23.4l.05.052S50.8,19.068,52.357,17.515C56.1,13.771,55.142,8.15,51.085,4.091ZM5.355,52.3c-2.1,1.459-2.59.965-3.068.486s-.975-.974.486-3.07C13.27,34.648,22.916,25.7,26.746,22.425l5.9,5.9C29.372,32.16,20.428,41.805,5.355,52.3ZM33.937,26.79l-5.652-5.653,3.533-3.532,5.652,5.652Z" transform="translate(0 -0.47)" fill="#292d32"/>
      </g>
      <g id="makeup-brush-4-svgrepo-com-2" data-name="makeup-brush-4-svgrepo-com" transform="translate(353.192 504.495) rotate(11)">
        <path id="Path_928-2" data-name="Path 928" d="M37.651,3.139C34.661.148,30.516-.558,27.758,2.2c-1.062,1.061-3.912,8.023-4.323,9.04L19.91,14.766C16.786,17.265,9.079,24.346.956,36.01-.269,37.77-.293,38.925.748,39.968s2.2,1.016,3.957-.209C16.369,31.637,23.451,23.93,25.95,20.807l3.437-3.438.037.038s8.019-3.229,9.165-4.374C41.348,10.273,40.642,6.131,37.651,3.139ZM3.947,38.672c-1.544,1.075-1.909.711-2.261.358s-.718-.718.358-2.263A108.558,108.558,0,0,1,19.713,16.652L24.064,21A108.472,108.472,0,0,1,3.947,38.672Zm21.066-18.8L20.847,15.7l2.6-2.6,4.166,4.166Z" transform="translate(0 -0.47)" fill="#292d32"/>
      </g>
    </g>
    <path id="style-svgrepo-com" d="M4.844,51.319,8.7,52.928V26.977L1.712,43.818a5.8,5.8,0,0,0,3.133,7.5ZM60.886,40.685,46.631,6.285a5.726,5.726,0,0,0-7.472-3.1L17.978,11.946a5.745,5.745,0,0,0-3.535,5.173,5.362,5.362,0,0,0,.431,2.3l14.255,34.4a5.741,5.741,0,0,0,5.259,3.535,5.945,5.945,0,0,0,2.213-.431l21.152-8.765A5.731,5.731,0,0,0,60.886,40.685ZM20.22,19.993a2.874,2.874,0,1,1,2.874-2.874A2.882,2.882,0,0,1,20.22,19.993ZM14.472,51.606a5.765,5.765,0,0,0,5.748,5.748h4.167L14.472,33.386Z" transform="translate(219.682 -8902.692)" fill="#a773f4"/>
    <g id="Group_2125" data-name="Group 2125" transform="translate(27.396 -8899.942)">
      <g data-type="innerShadowGroup">
        <path id="Path_1-2" data-name="Path 1" d="M-4035.558-10076.527s-5.727,4.457-14.845,2.58-13.14-10.056-13.14-10.056-7.487-53.011,2.594-97.071,14.936-58.747,39.33-84.138,58.642-13.476,75.269-13.342,27.692,3.768,27.786,10.055-4.858,6.973-4.322,13.813,6.429,18.453,7.509,43.2-4.11,39.177,0,64.734,12.236,32.029,17.414,48.092,2.83,23.1-4.142,27.258-20.246-2.141-20.246-2.141-2.146,10.854-16.493,12.331-21.041-7.354-21.041-7.354a21.1,21.1,0,0,1-18.38,12.85c-13.945.806-23.465-11.4-23.465-11.4s-4.917,9.96-18.5,7.24S-4035.558-10076.527-4035.558-10076.527Z" transform="translate(4066.217 10281.462)" fill="#eadbf8"/>
        <g transform="matrix(1, 0, 0, 1, -72.59, -77.35)" filter="url(#Path_1)">
          <path id="Path_1-3" data-name="Path 1" d="M-4035.558-10076.527s-5.727,4.457-14.845,2.58-13.14-10.056-13.14-10.056-7.487-53.011,2.594-97.071,14.936-58.747,39.33-84.138,58.642-13.476,75.269-13.342,27.692,3.768,27.786,10.055-4.858,6.973-4.322,13.813,6.429,18.453,7.509,43.2-4.11,39.177,0,64.734,12.236,32.029,17.414,48.092,2.83,23.1-4.142,27.258-20.246-2.141-20.246-2.141-2.146,10.854-16.493,12.331-21.041-7.354-21.041-7.354a21.1,21.1,0,0,1-18.38,12.85c-13.945.806-23.465-11.4-23.465-11.4s-4.917,9.96-18.5,7.24S-4035.558-10076.527-4035.558-10076.527Z" transform="translate(4138.81 10358.82)" fill="#fff"/>
        </g>
      </g>
      <g transform="matrix(1, 0, 0, 1, -72.59, -77.35)" filter="url(#Path_6)">
        <path id="Path_6-2" data-name="Path 6" d="M-4035.558-10078.054s-5.727,4.457-14.845,2.579-13.14-10.054-13.14-10.054-7.487-53.014,2.594-97.073c2.853-12.469,31.347-73.612,31.347-73.612s60.333-2.092,90.415-3.147c9.619-.337,16.578-2.757,16.3-2.039-.505,1.3-.162,3.108,0,5.187.536,6.84,6.429,18.454,7.509,43.205s-3.309,33.651-.14,60.727,12.376,36.038,17.553,52.1,2.83,23.1-4.142,27.258-20.246-2.139-20.246-2.139-2.146,10.856-16.493,12.33-21.041-7.353-21.041-7.353a21.1,21.1,0,0,1-18.38,12.848c-13.945.807-23.465-11.4-23.465-11.4s-4.917,9.96-18.5,7.239S-4035.558-10078.054-4035.558-10078.054Z" transform="translate(4138.81 10360.34)" fill="#fff"/>
      </g>
      <path id="Intersection_1" data-name="Intersection 1" d="M64.487,77.357s-4.917,9.961-18.5,7.241S30.659,67.939,30.659,67.939,24.932,72.4,15.814,70.519,2.674,60.462,2.674,60.462A350.6,350.6,0,0,1,.376,1.271C.644.46.795,0,.795,0s4.19,43.91,15.152,46.394c5.608,1.27,9.494-4.629,12.842-10.528,3.2-5.63,5.9-11.261,9.148-10.657,6.647,1.235,6.134,33.889,16.391,29.9S70.295,9.736,78.966,9.253s8.9,41.89,19.322,44.383,5.787-16.478,13.6-16.768c3.349-.124,5.756,3.982,8.033,8.086,3.031,5.467,5.832,10.933,10.322,6.417,7.86-7.91,4.487-33.6,10.877-42.118,6.069-8.091,13.854,6.446,14.62,7.925,4.068,11.161,8.981,17.66,12.518,28.632,5.177,16.062,2.83,23.1-4.141,27.256s-20.247-2.14-20.247-2.14-2.145,10.855-16.493,12.331-21.041-7.353-21.041-7.353a21.1,21.1,0,0,1-18.38,12.849c-.444.026-.886.038-1.321.038C73.408,88.793,64.487,77.357,64.487,77.357Z" transform="translate(0 136.995)" fill="#d1c9fc"/>
      <ellipse id="Ellipse_1" data-name="Ellipse 1" cx="13.458" cy="17.765" rx="13.458" ry="17.765" transform="translate(44.376 43.56)" fill="#292d32"/>
      <ellipse id="Ellipse_2" data-name="Ellipse 2" cx="13.458" cy="17.765" rx="13.458" ry="17.765" transform="translate(82.058 47.867)" fill="#292d32"/>
      <path id="Path_2" data-name="Path 2" d="M-3945.868-10201.5s15.531-4.352,26.361-15.8,5.715-29.267,18.8-31.063,21.383,12.569,14.378,33.936-40.74,49.2-40.74,49.2Z" transform="translate(4070.986 10285.063)" fill="#eadbf8"/>
      <g data-type="innerShadowGroup">
        <path id="Path_7-2" data-name="Path 7" d="M-3945.868-10202.873s14.686-4.225,24.926-15.34,5.4-28.412,17.78-30.155,20.22,12.2,13.6,32.944-38.522,47.763-38.522,47.763" transform="translate(4074.365 10285.063)" fill="#eadbf8"/>
        <g transform="matrix(1, 0, 0, 1, -72.59, -77.35)" filter="url(#Path_7)">
          <path id="Path_7-3" data-name="Path 7" d="M-3945.868-10202.873s14.686-4.225,24.926-15.34,5.4-28.412,17.78-30.155,20.22,12.2,13.6,32.944-38.522,47.763-38.522,47.763" transform="translate(4146.96 10362.42)" fill="#fff"/>
        </g>
      </g>
      <path id="Path_3" data-name="Path 3" d="M-4000.231-10226.039l13.885,1.349v3.094l-13.885-1.5Z" transform="translate(4070.198 10286.786)" fill="#292d32"/>
      <path id="Path_8" data-name="Path 8" d="M2.39,0c.756,0,.241,1.829-.954,3.343C.5,4.538-1.127,5.417-1.127,4.658-1.127,3.142.875,0,2.39,0Z" transform="translate(50.051 50.842)" fill="#fff"/>
      <path id="Path_9" data-name="Path 9" d="M2.39,0c.756,0,.241,1.829-.954,3.343C.5,4.538-1.127,5.417-1.127,4.658-1.127,3.142.875,0,2.39,0Z" transform="translate(87.784 54.958)" fill="#fff"/>
    </g>
  </g>
</svg>
