<svg xmlns="http://www.w3.org/2000/svg" xmlns:xlink="http://www.w3.org/1999/xlink" width="378" height="378" viewBox="0 0 378 378">
  <defs>
    <filter id="Union_21" x="55.525" y="40.075" width="266.949" height="297.85" filterUnits="userSpaceOnUse">
      <feOffset input="SourceAlpha"/>
      <feGaussianBlur stdDeviation="19.5" result="blur"/>
      <feFlood flood-color="#a773f4" flood-opacity="0.329"/>
      <feComposite operator="in" in2="blur"/>
      <feComposite in="SourceGraphic"/>
    </filter>
    <filter id="Union_21-2" x="55.525" y="40.075" width="266.949" height="297.85" filterUnits="userSpaceOnUse">
      <feOffset dy="3" input="SourceAlpha"/>
      <feGaussianBlur result="blur-2"/>
      <feFlood flood-color="#fff" result="color"/>
      <feComposite operator="out" in="SourceGraphic" in2="blur-2"/>
      <feComposite operator="in" in="color"/>
      <feComposite operator="in" in2="SourceGraphic"/>
    </filter>
    <filter id="Path_1">
      <feOffset dy="3" input="SourceAlpha"/>
      <feGaussianBlur result="blur-3"/>
      <feFlood flood-color="#fff" result="color-2"/>
      <feComposite operator="out" in="SourceGraphic" in2="blur-3"/>
      <feComposite operator="in" in="color-2"/>
      <feComposite operator="in" in2="SourceGraphic"/>
    </filter>
    <filter id="Path_6">
      <feOffset dx="-2" input="SourceAlpha"/>
      <feGaussianBlur result="blur-4"/>
      <feFlood flood-color="#fff" result="color-3"/>
      <feComposite operator="out" in="SourceGraphic" in2="blur-4"/>
      <feComposite operator="in" in="color-3"/>
      <feComposite operator="in" in2="SourceGraphic"/>
    </filter>
    <filter id="Path_7">
      <feOffset dx="1" dy="2" input="SourceAlpha"/>
      <feGaussianBlur result="blur-5"/>
      <feFlood flood-color="#fff" result="color-4"/>
      <feComposite operator="out" in="SourceGraphic" in2="blur-5"/>
      <feComposite operator="in" in="color-4"/>
      <feComposite operator="in" in2="SourceGraphic"/>
    </filter>
  </defs>
  <g id="Group_2102" data-name="Group 2102" transform="translate(7960 8276)">
    <circle id="Ellipse_100" data-name="Ellipse 100" cx="189" cy="189" r="189" transform="translate(-7960 -8276)" fill="rgba(215,206,251,0.29)"/>
    <circle id="Ellipse_99" data-name="Ellipse 99" cx="140" cy="140" r="140" transform="translate(-7911 -8227)" fill="rgba(215,206,251,0.49)"/>
    <g data-type="innerShadowGroup">
      <g transform="matrix(1, 0, 0, 1, -7960, -8276)" filter="url(#Union_21)">
        <path id="Union_21-3" data-name="Union 21" d="M51.652,171.691h0l0,.01-.019.036a11.43,11.43,0,0,1-2.688,3.187c-2.29,1.916-6.162,3.757-12.108,2.567a14.492,14.492,0,0,1-9.314-6.042,18.074,18.074,0,0,1-2.961-7.3,13.346,13.346,0,0,1-5.328,2.156,16.827,16.827,0,0,1-6.562-.09c-6.7-1.381-9.969-7.014-10.459-7.929-.044-.082-.065-.126-.065-.126l-.005-.039A278.4,278.4,0,0,1,0,123.254c0-13.288.971-28.648,4.22-42.847l.017-.073C12.3,45.1,16.2,33.339,35.722,13.017,55.261-7.322,82.693,2.222,96.01,2.33s22.18,3.018,22.256,8.054-3.88,5.583-3.464,11.039l0,.022c.421,5.368,4.961,14.408,5.958,33.418q.286-.289.568-.587C130,45.11,125.907,30.835,136.391,29.4a12.641,12.641,0,0,1,2.05-.117c6.8-.2,11.589,5.783,11.507,15.4a37.6,37.6,0,0,1-2.041,11.9C143.736,69.3,127.735,84.883,119.8,92.045c.079,3.692.345,7.807.911,12.647,2.225,19,8.161,26.865,12.387,37.175.578,1.4,1.131,2.88,1.647,4.474l.026.08a38.874,38.874,0,0,1,2.246,11.588h0c0,5.144-2.051,8.15-5.563,10.244-5.585,3.33-16.217-1.715-16.217-1.715s-1.719,8.695-13.21,9.878a20.78,20.78,0,0,1-12.158-2.179,15.319,15.319,0,0,1-4.7-3.711,17.23,17.23,0,0,1-5.664,7.138,16.677,16.677,0,0,1-9.059,3.153c-.357.021-.711.031-1.06.031C58.839,180.85,51.708,171.762,51.652,171.691Z" transform="translate(114.03 98.58)" fill="#eadbf8"/>
      </g>
      <g transform="matrix(1, 0, 0, 1, -7960, -8276)" filter="url(#Union_21-2)">
        <path id="Union_21-4" data-name="Union 21" d="M51.652,171.691h0l0,.01-.019.036a11.43,11.43,0,0,1-2.688,3.187c-2.29,1.916-6.162,3.757-12.108,2.567a14.492,14.492,0,0,1-9.314-6.042,18.074,18.074,0,0,1-2.961-7.3,13.346,13.346,0,0,1-5.328,2.156,16.827,16.827,0,0,1-6.562-.09c-6.7-1.381-9.969-7.014-10.459-7.929-.044-.082-.065-.126-.065-.126l-.005-.039A278.4,278.4,0,0,1,0,123.254c0-13.288.971-28.648,4.22-42.847l.017-.073C12.3,45.1,16.2,33.339,35.722,13.017,55.261-7.322,82.693,2.222,96.01,2.33s22.18,3.018,22.256,8.054-3.88,5.583-3.464,11.039l0,.022c.421,5.368,4.961,14.408,5.958,33.418q.286-.289.568-.587C130,45.11,125.907,30.835,136.391,29.4a12.641,12.641,0,0,1,2.05-.117c6.8-.2,11.589,5.783,11.507,15.4a37.6,37.6,0,0,1-2.041,11.9C143.736,69.3,127.735,84.883,119.8,92.045c.079,3.692.345,7.807.911,12.647,2.225,19,8.161,26.865,12.387,37.175.578,1.4,1.131,2.88,1.647,4.474l.026.08a38.874,38.874,0,0,1,2.246,11.588h0c0,5.144-2.051,8.15-5.563,10.244-5.585,3.33-16.217-1.715-16.217-1.715s-1.719,8.695-13.21,9.878a20.78,20.78,0,0,1-12.158-2.179,15.319,15.319,0,0,1-4.7-3.711,17.23,17.23,0,0,1-5.664,7.138,16.677,16.677,0,0,1-9.059,3.153c-.357.021-.711.031-1.06.031C58.839,180.85,51.708,171.762,51.652,171.691Z" transform="translate(114.03 98.58)" fill="#fff"/>
      </g>
    </g>
    <g id="Group_175" data-name="Group 175" transform="translate(-7845.975 -8177.425)">
      <g data-type="innerShadowGroup">
        <path id="Path_1-2" data-name="Path 1" d="M-4041.66-10117.315s-4.587,3.57-11.89,2.067-10.525-8.055-10.525-8.055-6-42.461,2.078-77.751,11.963-47.055,31.5-67.392,46.97-10.795,60.288-10.687,22.18,3.018,22.256,8.054-3.891,5.585-3.462,11.063,5.149,14.781,6.015,34.6-3.292,31.38,0,51.851,9.8,25.655,13.948,38.521,2.267,18.5-3.317,21.832-16.217-1.714-16.217-1.714-1.719,8.694-13.21,9.877-16.853-5.891-16.853-5.891a16.9,16.9,0,0,1-14.722,10.293c-11.169.645-18.795-9.129-18.795-9.129s-3.938,7.979-14.821,5.8S-4041.66-10117.315-4041.66-10117.315Z" transform="translate(4066.217 10281.462)" fill="#eadbf8"/>
        <g transform="matrix(1, 0, 0, 1, -114.03, -98.58)" filter="url(#Path_1)">
          <path id="Path_1-3" data-name="Path 1" d="M-4041.66-10117.315s-4.587,3.57-11.89,2.067-10.525-8.055-10.525-8.055-6-42.461,2.078-77.751,11.963-47.055,31.5-67.392,46.97-10.795,60.288-10.687,22.18,3.018,22.256,8.054-3.891,5.585-3.462,11.063,5.149,14.781,6.015,34.6-3.292,31.38,0,51.851,9.8,25.655,13.948,38.521,2.267,18.5-3.317,21.832-16.217-1.714-16.217-1.714-1.719,8.694-13.21,9.877-16.853-5.891-16.853-5.891a16.9,16.9,0,0,1-14.722,10.293c-11.169.645-18.795-9.129-18.795-9.129s-3.938,7.979-14.821,5.8S-4041.66-10117.315-4041.66-10117.315Z" transform="translate(4180.24 10380.04)" fill="#fff"/>
        </g>
      </g>
      <g transform="matrix(1, 0, 0, 1, -114.03, -98.58)" filter="url(#Path_6)">
        <path id="Path_6-2" data-name="Path 6" d="M-4041.66-10114.57s-4.587,3.569-11.89,2.065-10.525-8.054-10.525-8.054-6-42.463,2.078-77.752c2.285-9.987,25.108-58.962,25.108-58.962s48.325-1.675,72.42-2.52c7.7-.271,13.278-2.21,13.057-1.634-.405,1.045-.13,2.488,0,4.153.429,5.479,5.149,14.781,6.015,34.605s-2.65,26.954-.112,48.641,9.913,28.865,14.06,41.729,2.267,18.5-3.317,21.832-16.217-1.714-16.217-1.714-1.719,8.7-13.21,9.877-16.853-5.889-16.853-5.889a16.9,16.9,0,0,1-14.722,10.291c-11.169.645-18.795-9.128-18.795-9.128s-3.938,7.979-14.821,5.8S-4041.66-10114.57-4041.66-10114.57Z" transform="translate(4180.24 10377.29)" fill="#fff"/>
      </g>
      <path id="Intersection_1" data-name="Intersection 1" d="M51.652,61.96s-3.938,7.979-14.821,5.8S24.557,54.417,24.557,54.417s-4.587,3.57-11.89,2.066S2.142,48.429,2.142,48.429A280.824,280.824,0,0,1,.3,1.018C.516.368.637,0,.637,0S3.993,35.171,12.773,37.16c4.492,1.018,7.6-3.708,10.286-8.433,2.56-4.509,4.727-9.019,7.327-8.536,5.324.99,4.913,27.144,13.129,23.949S56.3,7.8,63.25,7.411s7.127,33.553,15.477,35.55,4.635-13.2,10.891-13.431c2.682-.1,4.61,3.189,6.434,6.477,2.428,4.379,4.671,8.757,8.267,5.14,6.3-6.336,3.594-26.912,8.712-33.735,4.861-6.481,11.1,5.163,11.71,6.347C128,22.7,131.934,27.9,134.767,36.692c4.147,12.865,2.267,18.5-3.317,21.832s-16.217-1.714-16.217-1.714-1.718,8.695-13.21,9.877S85.168,60.8,85.168,60.8A16.9,16.9,0,0,1,70.447,71.089c-.356.021-.71.03-1.058.031C58.8,71.121,51.652,61.96,51.652,61.96Z" transform="translate(0 109.729)" fill="#d1c9fc"/>
      <ellipse id="Ellipse_1" data-name="Ellipse 1" cx="10.78" cy="14.229" rx="10.78" ry="14.229" transform="translate(35.544 34.891)" fill="#292d32"/>
      <ellipse id="Ellipse_2" data-name="Ellipse 2" cx="10.78" cy="14.229" rx="10.78" ry="14.229" transform="translate(65.726 38.34)" fill="#292d32"/>
      <path id="Path_2" data-name="Path 2" d="M-3945.869-10210.857s12.439-3.485,21.114-12.655,4.577-23.441,15.061-24.881,17.127,10.068,11.517,27.182-32.631,39.409-32.631,39.409Z" transform="translate(4046.084 10277.789)" fill="#eadbf8"/>
      <g data-type="innerShadowGroup">
        <path id="Path_7-2" data-name="Path 7" d="M-3945.869-10211.957s11.763-3.384,19.965-12.287,4.329-22.757,14.241-24.152,16.2,9.773,10.89,26.386-30.855,38.258-30.855,38.258" transform="translate(4048.79 10277.788)" fill="#eadbf8"/>
        <g transform="matrix(1, 0, 0, 1, -114.03, -98.58)" filter="url(#Path_7)">
          <path id="Path_7-3" data-name="Path 7" d="M-3945.869-10211.957s11.763-3.384,19.965-12.287,4.329-22.757,14.241-24.152,16.2,9.773,10.89,26.386-30.855,38.258-30.855,38.258" transform="translate(4162.82 10376.36)" fill="#fff"/>
        </g>
      </g>
      <path id="Path_3" data-name="Path 3" d="M-4000.231-10226.038l11.122,1.079v2.479l-11.122-1.207Z" transform="translate(4056.273 10274.694)" fill="#292d32"/>
      <path id="Path_8" data-name="Path 8" d="M1.69,0C2.3,0,1.884,1.465.926,2.678c-.753.957-2.053,1.661-2.053,1.053C-1.127,2.517.476,0,1.69,0Z" transform="translate(40.313 40.723)" fill="#fff"/>
      <path id="Path_9" data-name="Path 9" d="M1.69,0C2.3,0,1.884,1.465.926,2.678c-.753.957-2.053,1.661-2.053,1.053C-1.127,2.517.476,0,1.69,0Z" transform="translate(70.537 44.02)" fill="#fff"/>
    </g>
  </g>
</svg>
