<svg xmlns="http://www.w3.org/2000/svg" width="646.06" height="524.857" viewBox="0 0 646.06 524.857">
  <g id="Group_2103" data-name="Group 2103" transform="translate(82.088 172.428)">
    <path id="Path_30" data-name="Path 30" d="M450.1.554c99.632-7.909,125.886,70.4,125.886,135.478S560.7,372.32,491.161,372.32c-37.34,0-318.4,77.369-434.2,40.391-99.516-31.776-38.371-175.864-38.371-205.994,70.684-62.605,88,121.26,193.877,40.391C311.042,171.813,350.464,8.463,450.1.554Z" transform="translate(483.312 352.43) rotate(-169)" fill="#a773f4"/>
    <path id="Path_108" data-name="Path 108" d="M38.185,94.434C14.989,94.434,0,76.078,0,53.434S3.674,0,26.87,0,80.185,30.791,80.185,53.434,61.381,94.434,38.185,94.434Z" transform="translate(374.698 126.204)" fill="#a773f4"/>
    <path id="Path_109" data-name="Path 109" d="M10.63,0c5.871,0,9.664,4.646,9.664,10.376s-.93,13.523-6.8,13.523S0,16.107,0,10.376A10.505,10.505,0,0,1,10.63,0Z" transform="matrix(0.875, -0.485, 0.485, 0.875, 393.123, 102.249)" fill="#a773f4"/>
  </g>
</svg>
