<svg xmlns="http://www.w3.org/2000/svg" xmlns:xlink="http://www.w3.org/1999/xlink" width="277.924" height="297.85" viewBox="0 0 277.924 297.85">
  <defs>
    <filter id="Union_41" x="9.638" y="0" width="266.949" height="297.85" filterUnits="userSpaceOnUse">
      <feOffset input="SourceAlpha"/>
      <feGaussianBlur stdDeviation="19.5" result="blur"/>
      <feFlood flood-color="#a773f4" flood-opacity="0.329"/>
      <feComposite operator="in" in2="blur"/>
      <feComposite in="SourceGraphic"/>
    </filter>
    <filter id="Union_41-2" x="9.638" y="0" width="266.949" height="297.85" filterUnits="userSpaceOnUse">
      <feOffset dy="3" input="SourceAlpha"/>
      <feGaussianBlur result="blur-2"/>
      <feFlood flood-color="#fff" result="color"/>
      <feComposite operator="out" in="SourceGraphic" in2="blur-2"/>
      <feComposite operator="in" in="color"/>
      <feComposite operator="in" in2="SourceGraphic"/>
    </filter>
    <filter id="Path_1">
      <feOffset dy="3" input="SourceAlpha"/>
      <feGaussianBlur result="blur-3"/>
      <feFlood flood-color="#fff" result="color-2"/>
      <feComposite operator="out" in="SourceGraphic" in2="blur-3"/>
      <feComposite operator="in" in="color-2"/>
      <feComposite operator="in" in2="SourceGraphic"/>
    </filter>
    <filter id="Path_6">
      <feOffset dx="-2" input="SourceAlpha"/>
      <feGaussianBlur result="blur-4"/>
      <feFlood flood-color="#fff" result="color-3"/>
      <feComposite operator="out" in="SourceGraphic" in2="blur-4"/>
      <feComposite operator="in" in="color-3"/>
      <feComposite operator="in" in2="SourceGraphic"/>
    </filter>
    <filter id="Path_7">
      <feOffset dx="1" dy="2" input="SourceAlpha"/>
      <feGaussianBlur result="blur-5"/>
      <feFlood flood-color="#fff" result="color-4"/>
      <feComposite operator="out" in="SourceGraphic" in2="blur-5"/>
      <feComposite operator="in" in="color-4"/>
      <feComposite operator="in" in2="SourceGraphic"/>
    </filter>
  </defs>
  <g id="Group_2120" data-name="Group 2120" transform="translate(-4633.24 11464.645)">
    <ellipse id="Ellipse_172" data-name="Ellipse 172" cx="138.962" cy="138.962" rx="138.962" ry="138.962" transform="translate(4633.24 -11458.577)" fill="#a773f4" opacity="0.12"/>
    <ellipse id="Ellipse_173" data-name="Ellipse 173" cx="124.934" cy="124.934" rx="124.934" ry="124.934" transform="translate(4647.269 -11444.549)" fill="#a773f4" opacity="0.12"/>
    <g data-type="innerShadowGroup">
      <g transform="matrix(1, 0, 0, 1, 4633.24, -11464.64)" filter="url(#Union_41)">
        <path id="Union_41-3" data-name="Union 41" d="M51.652,171.691h0l0,.01-.019.036a11.43,11.43,0,0,1-2.688,3.187c-2.29,1.916-6.162,3.757-12.108,2.567a14.492,14.492,0,0,1-9.314-6.042,18.074,18.074,0,0,1-2.961-7.3,13.346,13.346,0,0,1-5.328,2.156,16.827,16.827,0,0,1-6.562-.09c-6.7-1.381-9.969-7.014-10.459-7.929-.044-.082-.065-.126-.065-.126l-.005-.039A278.4,278.4,0,0,1,0,123.254c0-13.288.971-28.648,4.22-42.847l.017-.073C12.3,45.1,16.2,33.339,35.722,13.017,55.261-7.322,82.693,2.222,96.01,2.33s22.18,3.018,22.256,8.054-3.88,5.583-3.464,11.039l0,.022c.421,5.368,4.961,14.408,5.958,33.418q.286-.289.568-.587C130,45.11,125.907,30.835,136.391,29.4a12.641,12.641,0,0,1,2.05-.117c6.8-.2,11.589,5.783,11.507,15.4a37.6,37.6,0,0,1-2.041,11.9C143.736,69.3,127.735,84.883,119.8,92.045c.079,3.692.345,7.807.911,12.647,2.225,19,8.161,26.865,12.387,37.175.578,1.4,1.131,2.88,1.647,4.474l.026.08a38.874,38.874,0,0,1,2.246,11.588h0c0,5.144-2.051,8.15-5.563,10.244-5.585,3.33-16.217-1.715-16.217-1.715s-1.719,8.695-13.21,9.878a20.78,20.78,0,0,1-12.158-2.179,15.319,15.319,0,0,1-4.7-3.711,17.23,17.23,0,0,1-5.664,7.138,16.677,16.677,0,0,1-9.059,3.153c-.357.021-.711.031-1.06.031C58.839,180.85,51.708,171.762,51.652,171.691Z" transform="translate(68.14 58.5)" fill="#eadbf8"/>
      </g>
      <g transform="matrix(1, 0, 0, 1, 4633.24, -11464.64)" filter="url(#Union_41-2)">
        <path id="Union_41-4" data-name="Union 41" d="M51.652,171.691h0l0,.01-.019.036a11.43,11.43,0,0,1-2.688,3.187c-2.29,1.916-6.162,3.757-12.108,2.567a14.492,14.492,0,0,1-9.314-6.042,18.074,18.074,0,0,1-2.961-7.3,13.346,13.346,0,0,1-5.328,2.156,16.827,16.827,0,0,1-6.562-.09c-6.7-1.381-9.969-7.014-10.459-7.929-.044-.082-.065-.126-.065-.126l-.005-.039A278.4,278.4,0,0,1,0,123.254c0-13.288.971-28.648,4.22-42.847l.017-.073C12.3,45.1,16.2,33.339,35.722,13.017,55.261-7.322,82.693,2.222,96.01,2.33s22.18,3.018,22.256,8.054-3.88,5.583-3.464,11.039l0,.022c.421,5.368,4.961,14.408,5.958,33.418q.286-.289.568-.587C130,45.11,125.907,30.835,136.391,29.4a12.641,12.641,0,0,1,2.05-.117c6.8-.2,11.589,5.783,11.507,15.4a37.6,37.6,0,0,1-2.041,11.9C143.736,69.3,127.735,84.883,119.8,92.045c.079,3.692.345,7.807.911,12.647,2.225,19,8.161,26.865,12.387,37.175.578,1.4,1.131,2.88,1.647,4.474l.026.08a38.874,38.874,0,0,1,2.246,11.588h0c0,5.144-2.051,8.15-5.563,10.244-5.585,3.33-16.217-1.715-16.217-1.715s-1.719,8.695-13.21,9.878a20.78,20.78,0,0,1-12.158-2.179,15.319,15.319,0,0,1-4.7-3.711,17.23,17.23,0,0,1-5.664,7.138,16.677,16.677,0,0,1-9.059,3.153c-.357.021-.711.031-1.06.031C58.839,180.85,51.708,171.762,51.652,171.691Z" transform="translate(68.14 58.5)" fill="#fff"/>
      </g>
    </g>
    <g id="Group_2119" data-name="Group 2119" transform="translate(4700.435 -11408.419)">
      <g data-type="innerShadowGroup">
        <path id="Path_1-2" data-name="Path 1" d="M-4041.351-10115.25s-4.645,3.615-12.04,2.093-10.657-8.156-10.657-8.156-6.072-42.994,2.1-78.729,12.114-47.646,31.9-68.239,47.562-10.93,61.046-10.821,22.459,3.056,22.536,8.155-3.94,5.655-3.505,11.2,5.214,14.967,6.09,35.04-3.333,31.774,0,52.5,9.925,25.978,14.124,39,2.3,18.735-3.359,22.107-16.421-1.736-16.421-1.736-1.74,8.8-13.377,10-17.065-5.964-17.065-5.964a17.116,17.116,0,0,1-14.907,10.422c-11.31.653-19.031-9.243-19.031-9.243s-3.988,8.078-15.008,5.872S-4041.351-10115.25-4041.351-10115.25Z" transform="translate(4066.217 10281.462)" fill="#eadbf8"/>
        <g transform="matrix(1, 0, 0, 1, -67.2, -56.23)" filter="url(#Path_1)">
          <path id="Path_1-3" data-name="Path 1" d="M-4041.351-10115.25s-4.645,3.615-12.04,2.093-10.657-8.156-10.657-8.156-6.072-42.994,2.1-78.729,12.114-47.646,31.9-68.239,47.562-10.93,61.046-10.821,22.459,3.056,22.536,8.155-3.94,5.655-3.505,11.2,5.214,14.967,6.09,35.04-3.333,31.774,0,52.5,9.925,25.978,14.124,39,2.3,18.735-3.359,22.107-16.421-1.736-16.421-1.736-1.74,8.8-13.377,10-17.065-5.964-17.065-5.964a17.116,17.116,0,0,1-14.907,10.422c-11.31.653-19.031-9.243-19.031-9.243s-3.988,8.078-15.008,5.872S-4041.351-10115.25-4041.351-10115.25Z" transform="translate(4133.41 10337.69)" fill="#fff"/>
        </g>
      </g>
      <g transform="matrix(1, 0, 0, 1, -67.2, -56.23)" filter="url(#Path_6)">
        <path id="Path_6-2" data-name="Path 6" d="M-4041.351-10112.723s-4.645,3.615-12.04,2.092-10.657-8.154-10.657-8.154-6.072-43,2.1-78.73c2.314-10.113,25.424-59.7,25.424-59.7s48.933-1.7,73.331-2.553c7.8-.273,13.445-2.236,13.221-1.654-.41,1.059-.131,2.521,0,4.207.435,5.547,5.214,14.967,6.09,35.041s-2.684,27.293-.113,49.252,10.038,29.229,14.237,42.254,2.3,18.736-3.359,22.107-16.421-1.734-16.421-1.734-1.74,8.8-13.377,10-17.065-5.963-17.065-5.963a17.112,17.112,0,0,1-14.907,10.42c-11.31.654-19.031-9.242-19.031-9.242s-3.988,8.078-15.008,5.871S-4041.351-10112.723-4041.351-10112.723Z" transform="translate(4133.41 10335.16)" fill="#fff"/>
      </g>
      <path id="Intersection_1" data-name="Intersection 1" d="M52.3,62.74s-3.988,8.079-15.007,5.873S24.866,55.1,24.866,55.1s-4.645,3.615-12.04,2.092S2.168,49.038,2.168,49.038A284.357,284.357,0,0,1,.305,1.031C.522.373.645,0,.645,0s3.4,35.613,12.289,37.628c4.549,1.03,7.7-3.754,10.415-8.539,2.592-4.566,4.787-9.133,7.42-8.643,5.391,1,4.975,27.486,13.294,24.25S57.013,7.9,64.046,7.5s7.217,33.975,15.671,36S84.41,30.137,90.745,29.9c2.716-.1,4.668,3.229,6.515,6.558,2.458,4.434,4.73,8.867,8.371,5.2,6.375-6.415,3.639-27.251,8.822-34.16,4.922-6.562,11.236,5.228,11.857,6.427,3.3,9.052,7.284,14.323,10.152,23.222,4.2,13.027,2.3,18.736-3.359,22.106s-16.421-1.735-16.421-1.735-1.74,8.8-13.377,10S86.24,61.563,86.24,61.563A17.116,17.116,0,0,1,71.333,71.984c-.36.021-.719.031-1.071.031C59.538,72.015,52.3,62.74,52.3,62.74Z" transform="translate(0 111.109)" fill="#d1c9fc"/>
      <ellipse id="Ellipse_1" data-name="Ellipse 1" cx="10.915" cy="14.408" rx="10.915" ry="14.408" transform="translate(35.991 35.33)"/>
      <ellipse id="Ellipse_2" data-name="Ellipse 2" cx="10.915" cy="14.408" rx="10.915" ry="14.408" transform="translate(66.553 38.823)"/>
      <path id="Path_2" data-name="Path 2" d="M-3945.869-10210.384s12.6-3.529,21.38-12.814,4.635-23.736,15.25-25.193,17.343,10.194,11.662,27.523-33.042,39.9-33.042,39.9Z" transform="translate(4047.345 10278.157)" fill="#eadbf8"/>
      <g data-type="innerShadowGroup">
        <path id="Path_7-2" data-name="Path 7" d="M-3945.869-10211.5s11.911-3.427,20.217-12.441,4.383-23.044,14.42-24.457,16.4,9.9,11.027,26.719-31.243,38.738-31.243,38.738" transform="translate(4050.085 10278.157)" fill="#eadbf8"/>
        <g transform="matrix(1, 0, 0, 1, -67.2, -56.23)" filter="url(#Path_7)">
          <path id="Path_7-3" data-name="Path 7" d="M-3945.869-10211.5s11.911-3.427,20.217-12.441,4.383-23.044,14.42-24.457,16.4,9.9,11.027,26.719-31.243,38.738-31.243,38.738" transform="translate(4117.28 10334.38)" fill="#fff"/>
        </g>
      </g>
      <path id="Path_3" data-name="Path 3" d="M-4000.231-10226.039l11.261,1.094v2.51l-11.261-1.221Z" transform="translate(4056.978 10275.308)"/>
      <path id="Path_8" data-name="Path 8" d="M1.726,0c.613,0,.2,1.483-.774,2.711-.763.969-2.079,1.682-2.079,1.066C-1.127,2.548.5,0,1.726,0Z" transform="translate(40.806 41.236)" fill="#fff"/>
      <path id="Path_9" data-name="Path 9" d="M1.726,0c.613,0,.2,1.483-.774,2.711-.763.969-2.079,1.682-2.079,1.066C-1.127,2.548.5,0,1.726,0Z" transform="translate(71.41 44.573)" fill="#fff"/>
    </g>
  </g>
</svg>
