<svg xmlns="http://www.w3.org/2000/svg" xmlns:xlink="http://www.w3.org/1999/xlink" width="132" height="132" viewBox="0 0 132 132">
  <defs>
    <clipPath id="clip-path">
      <circle id="Ellipse_170" data-name="Ellipse 170" cx="63" cy="63" r="63" transform="translate(0 0)" fill="#fff"/>
    </clipPath>
  </defs>
  <g id="Group_2118" data-name="Group 2118" transform="translate(729 11049)">
    <g id="Ellipse_169" data-name="Ellipse 169" transform="translate(-726 -11046)" fill="#d1c9fc" stroke="#292d32" stroke-width="3">
      <circle cx="63" cy="63" r="63" stroke="none"/>
      <circle cx="63" cy="63" r="64.5" fill="none"/>
    </g>
    <g id="Mask_Group_23" data-name="Mask Group 23" transform="translate(-726 -11046)" clip-path="url(#clip-path)">
      <g id="humaaans_standing-19" data-name="humaaans/standing-19" transform="translate(-17.798 27.811)">
        <g id="humaaan-3" transform="translate(0 0)">
          <g id="Head_Front_Short-Beard" data-name="Head/Front/Short-Beard" transform="matrix(0.966, -0.259, 0.259, 0.966, 53.004, 6.898)">
            <g id="Head" transform="translate(0.068 1.207)">
              <path id="Path_2618" data-name="Path 2618" d="M5.08,21.017C2.247,17.721.329,13.682.65,9.156c.923-13.041,19.238-10.172,22.8-3.59s3.139,23.277-1.465,24.453c-1.836.469-5.748-.68-9.729-3.058l2.5,17.523H0Z" transform="translate(0 0)" fill="#d4d18a" fill-rule="evenodd"/>
            </g>
            <path id="Hair" d="M13.062,11.8q.847,11.7,4.482,11.7c3.635,0,6.72-2.287,8.315-2.287,1.163,0,.9,1.442.132,2.511-.636.882-3.732,1.733-3.732,3.1s2.447.31,2.447,1.121c0,1.342.43,3.864-1.92,3.864-2.378,0-9.2-.859-10.364-4.357Q11.291,24.067,10.96,13.42a3.752,3.752,0,0,0-.44-.026A3.673,3.673,0,0,0,6.831,17.05a3.63,3.63,0,0,0,1.111,2.615c-.854,1.194-1.81,2.442-2.906,3.729-4.118-2.449-7.174-9.617-3.148-16.5A9.08,9.08,0,0,1,8.5.879,10.79,10.79,0,0,1,15.52.366c4.14.352,7.837,1.6,8.885,2.346,0,3.885-.76,5.037-7.247,4.936A11.911,11.911,0,0,0,13.062,11.8Z" fill="#191847" fill-rule="evenodd"/>
          </g>
          <g id="Bottom_Standing_Baggy-Pants" data-name="Bottom/Standing/Baggy-Pants" transform="translate(0 100.642)">
            <path id="Leg" d="M145.152,0l30.175,76.08,20.239,64.32h7.992L172.618,0Z" transform="translate(-73.317)" fill="#997659" fill-rule="evenodd"/>
            <path id="Leg-2" data-name="Leg" d="M90.676,0c-.321,26.735-5.008,62.729-5.756,64.4q-.748,1.666-51.691,42.385l5.5,5.868q60.108-34.912,62.889-39.568C104.4,68.425,113.46,25.577,120.73,0Z" transform="translate(-24.918)" fill="#b28b67" fill-rule="evenodd"/>
            <g id="Accessories_Shoe_Flat-Sneaker" data-name="Accessories/Shoe/Flat-Sneaker" transform="matrix(0.643, 0.766, -0.766, 0.643, 9.734, 101.622)">
              <path id="shoe" d="M1.032,3.732A13.2,13.2,0,0,0,0,7.853a30.85,30.85,0,0,0,.554,4.853H35.23q1.352-4.469-1.561-4.825t-4.838-.643L12.714.053A.615.615,0,0,0,11.9.365L11.9.381,10.859,2.894A11.056,11.056,0,0,1,6.478,4.152,9.922,9.922,0,0,1,2.7,3.045h0a1.23,1.23,0,0,0-1.63.605Q1.047,3.691,1.032,3.732Z" transform="translate(0)" fill="#e4e4e4" fill-rule="evenodd"/>
            </g>
            <g id="Accessories_Shoe_Flat-Sneaker-2" data-name="Accessories/Shoe/Flat-Sneaker" transform="translate(117.945 133.759)">
              <path id="shoe-2" data-name="shoe" d="M2.115,24.673a13.2,13.2,0,0,0-1.032,4.121,30.85,30.85,0,0,0,.554,4.853H36.313q1.352-4.469-1.561-4.825t-4.838-.643L13.8,20.994a.615.615,0,0,0-.812.311l-.007.016-1.036,2.513a11.056,11.056,0,0,1-4.381,1.258,9.922,9.922,0,0,1-3.782-1.106h0a1.23,1.23,0,0,0-1.63.605Q2.13,24.631,2.115,24.673Z" transform="translate(-1.083 -20.941)" fill="#e4e4e4" fill-rule="evenodd"/>
            </g>
            <path id="Pant" d="M162.463,133.775l38-4.108L172.3,0H138.267Z" transform="translate(-70.34 0)" fill="#69a1ac" fill-rule="evenodd"/>
            <path id="Pant-2" data-name="Pant" d="M47.077,97.315,72,126.7q39.378-42.843,45.915-55.909T129.669,0H91.354Q88.5,50.786,87.513,53.15T47.077,97.315Z" transform="translate(-30.906)" fill="#89c5cc" fill-rule="evenodd"/>
          </g>
          <g id="Body_Hoodie" data-name="Body/Hoodie" transform="translate(13.902 45.584) rotate(-10)">
            <path id="Skin" d="M96.29,0,115.9,14.33a52.931,52.931,0,0,1,13.331,5.331c.843.764,1.862,2.312-1.634,2.044s-7.185-.392-7.668.795,1.633,2.605.658,4.206q-.976,1.6-9.214-8.029l-19.42-8.013Zm-75.3.495L33.84.545q-11.9,38.224-12.848,40.562c-1.423,3.509,1.588,8.851,2.875,11.723-4.193,1.867-3.746-5.047-9.036-2.6C10,52.467,6.332,56.516.754,53.092c-.686-.421-1.437-2.006.378-3.245C5.656,46.76,12.175,41.358,13.055,39.58Q14.857,35.943,20.993.495Z" transform="translate(0 58.562)" fill="#b28b67" fill-rule="evenodd"/>
            <path id="Coat-Back" d="M0,1.367,5.217,0C26.345,15.172,37.255,46.916,62.844,62l-5.172,7.658C15.438,68.164,1.618,29.489,0,1.367Z" transform="translate(57.622 4.05) rotate(5)" fill="#e87613" fill-rule="evenodd"/>
            <path id="Shirt" d="M0,69.742H47.039c2.149,0,1.745-3.088,1.434-4.647C44.887,47.109,30.889,27.72,30.889,2.117L17.32,0C6.1,17.961,2.216,40.074,0,69.742Z" transform="translate(34.329 2.149)" fill="#dde3e9" fill-rule="evenodd"/>
            <path id="Coat-Front" d="M21.978,19.8A7.75,7.75,0,0,1,17.3,15.86C12.337,6.955,14.128,2.053,19.428.441S29.455,2.149,37.9,2.149a8.539,8.539,0,0,1,1.262.086l4.248.241q18.28,61.649,10.083,82.262H16.468a125.351,125.351,0,0,1-6.3,12.847H.082Q-1.342,51.764,21.978,19.8Z" transform="translate(12.729 0)" fill="#ff9b21" fill-rule="evenodd"/>
            <path id="Shade" d="M8.062,0Q9.808,14.542,13.74,21.108H0Q3.838,12.2,8.062,0Z" transform="translate(29.196 63.631)" fill="rgba(0,0,0,0.1)" fill-rule="evenodd"/>
          </g>
        </g>
      </g>
    </g>
    <g id="Ellipse_171" data-name="Ellipse 171" transform="translate(-625 -11039)" fill="#f0fcfd" stroke="#292d32" stroke-width="3">
      <circle cx="10" cy="10" r="10" stroke="none"/>
      <circle cx="10" cy="10" r="11.5" fill="none"/>
    </g>
    <g id="Group_2117" data-name="Group 2117" transform="translate(-620.54 -11034.757)">
      <path id="Path_111" data-name="Path 111" d="M16.8.663a.556.556,0,0,0-.791,0l-4.25,4.25a.561.561,0,0,0-.142.235L10.92,7.465a.558.558,0,0,0,.142.556.55.55,0,0,0,.4.164.6.6,0,0,0,.16-.022l2.317-.694a.561.561,0,0,0,.235-.142l4.25-4.25a.559.559,0,0,0,0-.791Z" transform="translate(-7.017 -0.497)" fill="#292d32"/>
      <path id="Path_112" data-name="Path 112" d="M11.507,5.724a.56.56,0,0,0-.56.56v3.731a.934.934,0,0,1-.933.933H2.552a.934.934,0,0,1-.933-.933V2.552a.934.934,0,0,1,.933-.933H6.283A.56.56,0,0,0,6.283.5H2.552A2.055,2.055,0,0,0,.5,2.552v7.463a2.055,2.055,0,0,0,2.052,2.052h7.463a2.055,2.055,0,0,0,2.052-2.052V6.283A.56.56,0,0,0,11.507,5.724Z" transform="translate(-0.5 -0.499)" fill="#292d32"/>
    </g>
  </g>
</svg>
