<svg id="Group_1403" data-name="Group 1403" xmlns="http://www.w3.org/2000/svg" width="444.925" height="337.088" viewBox="0 0 444.925 337.088">
  <circle id="Ellipse_103" data-name="Ellipse 103" cx="52.714" cy="52.714" r="52.714" transform="translate(31.919)" fill="#5580e1"/>
  <ellipse id="Ellipse_104" data-name="Ellipse 104" cx="53.198" cy="52.714" rx="53.198" ry="52.714" transform="translate(338.53 29.984)" fill="#a1e397"/>
  <text id="Supportbud" transform="translate(166.363 309.071)" fill="#292d32" font-size="21" font-family="SegoeUI, Segoe UI"><tspan x="0" y="0">Supportbud</tspan></text>
  <text id="Get_your_best_friend_as_you_want" data-name="Get your best friend as you want" transform="translate(123.805 333.087)" fill="#292d32" font-size="14" font-family="SegoeUI, Segoe UI"><tspan x="0" y="0">Get your best friend as you want</tspan></text>
  <text id="Connect_with_friends" data-name="Connect
with
friends" transform="translate(390.58 66.165)" fill="#292d32" font-size="16" font-family="SegoeUI, Segoe UI"><tspan x="-29.285" y="0">Connect</tspan><tspan x="-14.957" y="21">with</tspan><tspan x="-24.039" y="42">friends</tspan></text>
  <text id="Send_them_messages" data-name="Send them
messages" transform="translate(84.427 44.984)" fill="#fcfffa" font-size="20" font-family="SegoeUI, Segoe UI"><tspan x="-47.72" y="0">Send them</tspan><tspan x="-42.778" y="27">messages</tspan></text>
  <g id="_9649345_7144" data-name="9649345_7144" transform="translate(22.419 61.189)">
    <g id="Group_1400" data-name="Group 1400" transform="translate(0 0)">
      <path id="Path_755" data-name="Path 755" d="M481.479,290.106c9.611,41.319-17.257,45.559-40.73,46-7.7.145-15.026-.121-20.586.379-1.206.109-2.327.252-3.351.444q-2.393.449-4.706.839c-5.922,1-11.463,1.728-16.684,2.234q-3.41.329-6.643.538a211.3,211.3,0,0,1-40.221-1.371q-1.966-.232-3.892-.477c-18.68-2.364-35.022-5.242-57.283-1.476l-.468.08q-1.568.27-3.044.468c-20.382,2.751-28.161-4.322-40.543-5.241a39.588,39.588,0,0,0-12.947,1.285c-.479.148-.971.3-1.473.465-2.317.743-4.867,1.613-7.575,2.549-2.44.844-5.009,1.739-7.653,2.643a208.134,208.134,0,0,1-24.368,7.093,54.741,54.741,0,0,1-13.154,1.351c-28.375-1.322-49.578-14-47.212-50.827,1.942-11.091,9.093-27.82,8.974-39.079-.135-12.634-3.923-16.8-7.866-28.806-6.046-28.773,13.812-44.57,38.42-51.134a104.928,104.928,0,0,1,10.784-2.26h0c2.969-.466,5.96-.813,8.943-1.049,3.879-.307,7.741-.425,11.513-.367q1.707.025,3.387.1c19.812.87,20.506-22.7,38.326-28.924,32.823-11.472,53.576,3.1,77.085,8.3a71.187,71.187,0,0,0,10.85,1.593h0a57.437,57.437,0,0,0,10.825-.314c21.955-7.863,38.278-17.574,63.189-13.8,11.8,1.459,24.826,6.9,28.292,18.271a25.819,25.819,0,0,1,.782,3.548c.223,1.428.372,2.873.548,4.309.062.5.126,1,.2,1.49a22.351,22.351,0,0,0,1.5,5.787c1.794,4.116,7.72,7.358,14.51,10h0c1.151.448,2.328.878,3.515,1.294,1.3.455,2.612.892,3.912,1.311,5.865,1.887,11.521,3.421,15.04,4.767C535.989,216.692,475.218,263.189,481.479,290.106Z" transform="translate(-128.764 -140.494)" fill="#95a6db"/>
      <g id="Group_1399" data-name="Group 1399" transform="translate(10.462 12.361)">
        <g id="Group_1398" data-name="Group 1398">
          <g id="c_8_" transform="translate(245.931 9.588)">
            <path id="Path_756" data-name="Path 756" d="M2413.659,1427.92c-1.171-6.164-2.369-12.307-3.485-17.948-1.26-6.371-2.416-12.106-3.314-16.522l-.043-.219c-1.1-5.434-1.806-8.809-1.806-8.809l4.066-.473,11.9-1.386,6.67-.777h0l13.089-1.524s.245,5.169.55,12.922c.351,8.914.782,21.248,1.011,33.075-7.7.145-15.026-.121-20.587.379-1.2.109-2.326.252-3.351.444Q2415.973,1427.53,2413.659,1427.92Z" transform="translate(-2386.711 -1252.597)" fill="#062440"/>
            <path id="Path_757" data-name="Path 757" d="M2315.932,1390.4s-.821,5.665-2.106,14.142c-.208,1.371-.428,2.815-.659,4.323-.623,4.063-1.324,8.574-2.072,13.3-.675,4.248-1.386,8.666-2.117,13.082-1.205.108-2.327.252-3.351.444q-2.392.449-4.706.839c-5.922,1-11.464,1.728-16.684,2.234q-3.41.329-6.643.538c-.133-16.669-.455-33.592-.646-42.611h0c-.088-4.159-.148-6.637-.148-6.637l4.943.045,1.976.018,5.306.047,4.715.042,14.272.129,6.9.062h0Z" transform="translate(-2273.973 -1261.205)" fill="#14314d"/>
            <g id="c_9_">
              <path id="Path_758" data-name="Path 758" d="M2398.26,370.066c-14.568-2.59-8.693-20.361-8.693-20.361-1.962-1.134-4.823-4.193-2.989-8.013,1.554-3.234,4.863-2.3,6.215-6.2,1.085-3.126-.229-8.97,10.144-7.216a8.393,8.393,0,0,1,8.1-5.906c7.939-.007,9.583,2.407,12.7,3.982,3.479,1.759,12.2.2,11.259,8.976,0,0,5.239,1.339,6.776,5.731a9.158,9.158,0,0,1-2.849,9.68s3.891,2.414,3.938,6.639a7.659,7.659,0,0,1-4.874,7.124,7.98,7.98,0,0,1-3.585.4c-1.79-.117-.5,3.959-4.69,5.019a46.635,46.635,0,0,1-8.532,1.447Z" transform="translate(-2369.986 -322.371)"/>
              <g id="Group_1317" data-name="Group 1317" transform="translate(54.857 33.831)">
                <g id="Group_1316" data-name="Group 1316">
                  <g id="Group_1315" data-name="Group 1315">
                    <g id="Group_1314" data-name="Group 1314">
                      <g id="Group_1313" data-name="Group 1313">
                        <g id="Group_1312" data-name="Group 1312">
                          <path id="Path_759" data-name="Path 759" d="M2716.989,619.316c-1.087,1.757-3.013,3.788-2.382,6.431l-6.657.86c.112-6.424.595-13.917,2.07-16.063,1.247-1.814,1.511-2.865,1.849-2.836s2.243.717.719,3.537c-1.913,3.539,2.225,3.215,4.417-5.156.549-2.1,3.559-4.644,3.973-2.661C2721.435,605.614,2721.935,611.321,2716.989,619.316Z" transform="translate(-2707.95 -602.713)" fill="#de623c"/>
                        </g>
                      </g>
                    </g>
                  </g>
                </g>
              </g>
              <path id="v-2_4_" d="M2488.74,658.731h.009l4.861,3.464,2.544,16.721-9.972,3.743-9.342-6.146,1.22-22.924Z" transform="translate(-2449.873 -613.618)" fill="#de623c"/>
              <g id="Group_1323" data-name="Group 1323" transform="translate(20.891 4.379)">
                <path id="Path_760" data-name="Path 760" d="M2472.018,396.406c-2.627,13.1,6.1,26.652,16.393,28.716s18.253-8.138,20.88-21.243-3.586-25.4-13.879-27.465S2474.645,383.3,2472.018,396.406Z" transform="translate(-2466.108 -374.011)" fill="#f37a50"/>
                <path id="Path_761" data-name="Path 761" d="M2710.191,594.08a1.826,1.826,0,1,0,1.605-2.022A1.826,1.826,0,0,0,2710.191,594.08Z" transform="translate(-2675.943 -563.882)"/>
                <path id="Path_762" data-name="Path 762" d="M2595.595,578.128a1.976,1.976,0,1,0,1.738-2.189A1.976,1.976,0,0,0,2595.595,578.128Z" transform="translate(-2575.177 -549.707)"/>
                <path id="Path_763" data-name="Path 763" d="M2657.439,604.277c1.252,2.883,2.858,6.412,2.858,6.412a4.791,4.791,0,0,1-5.054,2.125c1.649-.409,3.341-1.224,3.018-3.388S2657.439,604.277,2657.439,604.277Z" transform="translate(-2627.638 -574.636)" fill="#de623c"/>
                <g id="Group_1318" data-name="Group 1318" transform="translate(34.54 23.53)">
                  <path id="Path_764" data-name="Path 764" d="M2718.186,556.635a.84.84,0,0,1,.033.2.857.857,0,0,1-.815.9c-1.29.062-3.924-.484-4.663-2.989a.856.856,0,1,1,1.643-.484c.547,1.855,2.915,1.764,2.938,1.762A.856.856,0,0,1,2718.186,556.635Z" transform="translate(-2712.708 -553.642)"/>
                </g>
                <g id="Group_1319" data-name="Group 1319" transform="translate(17.291 21.458)">
                  <path id="Path_765" data-name="Path 765" d="M2569.937,537.907a.931.931,0,0,0-.1.187.911.911,0,0,0,.5,1.186c1.273.515,4.11.893,5.732-1.363a.911.911,0,0,0-1.479-1.063c-1.2,1.67-3.546.747-3.569.737A.911.911,0,0,0,2569.937,537.907Z" transform="translate(-2569.767 -536.475)"/>
                </g>
                <path id="Path_766" data-name="Path 766" d="M2509,381.946l-5.424-13.5-13.91-9.785-24.285,7.654,2.829,18.082c2.087-8,5.759-5.821,8.757-7.729,3.039-1.934,4.851-5.484,10.376-1.057,0,0,5.591-2.522,7.269,2.762,1.3,4.086,4.833,3.161,7.467,3.84,3.107.8,1.349,4.755,3.29,5Z" transform="translate(-2460.691 -358.66)"/>
                <g id="Group_1321" data-name="Group 1321" transform="translate(0 18.718)">
                  <path id="Path_767" data-name="Path 767" d="M2435.515,517.1c1.453,2.787.782,6.01-1.5,7.2s-5.307-.107-6.76-2.894-.781-6.01,1.5-7.2S2434.062,514.317,2435.515,517.1Z" transform="translate(-2426.488 -513.769)" fill="#f37a50"/>
                  <g id="Group_1320" data-name="Group 1320" transform="translate(3.568 2.639)">
                    <path id="Path_768" data-name="Path 768" d="M2457.492,541.73a.686.686,0,0,0,.3-.083,3.108,3.108,0,0,0,1.8-3.364,3.311,3.311,0,0,0-2.781-2.642.687.687,0,1,0-.15,1.366,1.96,1.96,0,0,1,1.583,1.54,1.759,1.759,0,0,1-1.109,1.892.687.687,0,0,0,.351,1.291Z" transform="translate(-2456.056 -535.638)" fill="#de623c"/>
                  </g>
                </g>
                <g id="Group_1322" data-name="Group 1322" transform="translate(20.075 41.58)">
                  <path id="Path_769" data-name="Path 769" d="M2604.623,707a.675.675,0,0,1-.321-.13c-5.486-4.128-10.4-1.407-10.454-1.379a.676.676,0,0,1-.67-1.175c.232-.132,5.749-3.183,11.937,1.473a.676.676,0,0,1-.492,1.211Z" transform="translate(-2592.837 -703.215)" fill="#de623c"/>
                </g>
              </g>
              <g id="v_4_" transform="translate(0 53.141)">
                <path id="Path_770" data-name="Path 770" d="M2255.137,844.454c7.054,3.832,21.356,6.612,29.221,7.614,11.472,1.461,17.731,1.4,23.553-1.518,2.219-17.974,6.11-58.723,1.416-78.906a31.881,31.881,0,0,0-10.771-3.992s-3.03,13.938-16.7-3.14c-6.348-3.389-19.181-.9-19.181-.9C2251.2,773.542,2252.586,823.241,2255.137,844.454Z" transform="translate(-2253.376 -762.729)" fill="#494c7f"/>
              </g>
              <path id="Path_771" data-name="Path 771" d="M2697.322,785.525s20.264,50.13-.242,60.764c-7.221-2.2-9.764-11.266-9.473-22.113.552-20.53,1.493-37.955,1.493-37.955Z" transform="translate(-2635.186 -729.633)" fill="#2c2858"/>
              <g id="Group_1330" data-name="Group 1330" transform="translate(2.989 40.942)">
                <g id="Group_1324" data-name="Group 1324" transform="translate(0 12.175)">
                  <path id="Path_772" data-name="Path 772" d="M2381.156,1034.24c-2.371,2.811-5.645,19.772-4.378,19.991,15.323,6,47.778-23.944,47.778-23.944l-3.156-8.173A235.139,235.139,0,0,0,2381.156,1034.24Z" transform="translate(-2364.628 -990.788)" fill="#2c2858"/>
                  <path id="Path_773" data-name="Path 773" d="M2278.335,778.551c1.289,10.654,3.6,37.914,11.963,47.42l10.917-14.665s.982-30.925-4.219-43.33C2292.98,758.4,2276.2,761.16,2278.335,778.551Z" transform="translate(-2278.147 -762.527)" fill="#2c2858"/>
                </g>
                <g id="Group_1329" data-name="Group 1329" transform="translate(57.221)">
                  <g id="Group_1327" data-name="Group 1327" transform="translate(3.986)">
                    <path id="Path_774" data-name="Path 774" d="M3047.223,792.626s-.763-1.633-9.849-3.552a13.13,13.13,0,0,0,5.353,5.21Z" transform="translate(-3006.959 -773.695)" fill="#494c7f"/>
                    <path id="Path_775" data-name="Path 775" d="M2813.824,697.529c-9.2,7.848-17.722,10.475-23.32,5.765-5.033-4.235-8.272-15.651-.572-27.1a82.914,82.914,0,0,1,12.46-14.545c1.732-.426,5.643,8.839,11.8,14.095,5.762,4.915,8.9,5.317,11.407,4.821C2824.11,684.346,2819.046,693.073,2813.824,697.529Z" transform="translate(-2785.339 -661.635)" fill="#fff"/>
                    <path id="Path_776" data-name="Path 776" d="M2991.46,883.689a1.757,1.757,0,1,1-.2-2.477A1.757,1.757,0,0,1,2991.46,883.689Z" transform="translate(-2963.866 -854.345)" fill="#494c7f"/>
                    <path id="Path_777" data-name="Path 777" d="M2897.75,799.25a1.757,1.757,0,1,1-.2-2.477A1.757,1.757,0,0,1,2897.75,799.25Z" transform="translate(-2881.465 -780.095)" fill="#494c7f"/>
                    <path id="Path_778" data-name="Path 778" d="M2916.468,866.906c-.381,2.624-.8,5.869-.8,5.869a4.041,4.041,0,0,1-4.569-.719c1.365.438,2.939.6,3.668-1.091S2916.468,866.906,2916.468,866.906Z" transform="translate(-2895.926 -842.134)" fill="#494c7f"/>
                    <path id="Path_779" data-name="Path 779" d="M2856.876,901.8c.526-.174.777-.867.4-1.117a26.773,26.773,0,0,1-7-6.513c-.277-.355-.95-.055-1.085.482-.417,1.651-.718,4.465,1.284,6.326S2855.259,902.337,2856.876,901.8Z" transform="translate(-2841.216 -865.974)" fill="#494c7f"/>
                    <g id="Group_1325" data-name="Group 1325" transform="translate(28.766 23.434)">
                      <path id="Path_780" data-name="Path 780" d="M3026.238,860.84l-.03,0a.718.718,0,0,1-.605-.815,2.88,2.88,0,0,0-1.5-2.841.718.718,0,1,1,.654-1.278,4.3,4.3,0,0,1,2.266,4.33A.719.719,0,0,1,3026.238,860.84Z" transform="translate(-3023.713 -855.823)" fill="#494c7f"/>
                    </g>
                    <g id="Group_1326" data-name="Group 1326" transform="translate(13.44 12.717)">
                      <path id="Path_781" data-name="Path 781" d="M2896.759,768.257l.011.028a.718.718,0,0,0,.941.382,2.881,2.881,0,0,1,3.125.743.718.718,0,0,0,1.074-.953,4.3,4.3,0,0,0-4.758-1.113A.719.719,0,0,0,2896.759,768.257Z" transform="translate(-2896.713 -767.012)" fill="#494c7f"/>
                    </g>
                  </g>
                  <g id="Group_1328" data-name="Group 1328" transform="translate(0 29.412)">
                    <path id="Path_782" data-name="Path 782" d="M2755.11,927.064c-1.5-3.6-3.977-5.843-2.167-10.621.658-1.736,1.505-3.486,2.417-5.55,1.406-3.184,3.1-5.659,3.835-5.531,1.654.289,1.828,1.328,1.331,3.339-.385,1.555-2,3.2-1.275,4.447.641,1.113,1.783,2.112,6.469-.392,5.982-3.2,7.539-5.356,8.8-3.519.829,1.205-2.022,3.036-7.6,6.174,3.464-.49,9.765-6.489,11.118-3.756.983,1.985-8.368,6.216-10.914,6.8,4.882-.017,10.274-5.058,11.208-3.968,1.84,2.382-5.59,6.357-9.958,6.638,4.256.856,7.032-2.347,7.771-1.178,1.376,2.183-6.854,6.055-12.064,6.44C2762.537,926.5,2755.11,927.064,2755.11,927.064Z" transform="translate(-2752.308 -905.358)" fill="#f37a50"/>
                  </g>
                </g>
              </g>
            </g>
          </g>
          <path id="Path_783" data-name="Path 783" d="M2115.979,1040.65,2097.11,1061.8l9.856,13.2,10.7-6.332Z" transform="translate(-1870.037 -944.382)" fill="#2c2858"/>
          <g id="Group_1342" data-name="Group 1342" transform="translate(125.231)">
            <path id="Path_784" data-name="Path 784" d="M1943.5,790.414s51.729,40.848,39.627,70.6c-5.6,4.207-35.559-37.187-35.559-37.187Z" transform="translate(-1860.196 -724.344)" fill="#3f964f"/>
            <path id="Path_785" data-name="Path 785" d="M1478.747,1501.521q-1.965-.232-3.892-.477c-18.679-2.364-35.022-5.242-57.283-1.476l-.468.08q-1.568.27-3.043.468l.461-9.94h0l.064-1.389.055-1.2h0l1.163-25.081q5.228.606,10.434.994l.259.021q1.3.1,2.593.178c.144.011.288.019.432.029q1.522.094,3.042.171,9.152.465,18.232.275,2.661-.055,5.316-.165,2.677-.111,5.346-.279l.307-.019q1.9-.119,3.8-.27l.66-.053q1.951-.157,3.9-.347,1.293-.125,2.582-.263t2.585-.292l.951-.114,1.327,26.36Z" transform="translate(-1394.647 -1315.208)" fill="#201d40"/>
            <path id="Path_786" data-name="Path 786" d="M1544.907,779.979l-2.735-.141h-20.456l-1.979,21.537-5.217,65.949,40.075-1.128-.916-73Z" transform="translate(-1482.984 -715.044)" fill="#e3eaff"/>
            <g id="Group_1331" data-name="Group 1331" transform="translate(9.708 62.962)">
              <path id="Path_787" data-name="Path 787" d="M1341.454,764.663s-11.333,65.829-6.7,103.993c9.874,12.57,22.822,12.042,22.822,12.042s1.755-106.526,8.821-114.2C1359.59,765.72,1341.454,764.663,1341.454,764.663Z" transform="translate(-1333.639 -764.663)" fill="#3f964f"/>
            </g>
            <g id="Group_1332" data-name="Group 1332" transform="translate(59.188 64.794)">
              <path id="Path_788" data-name="Path 788" d="M1774.215,882c-9.874,12.57-22.822,12.042-22.822,12.042s2.2-111.206-7.733-114.2c6.124.2,24.117,1.277,24.117,1.277S1784.09,869.431,1774.215,882Z" transform="translate(-1743.66 -779.84)" fill="#3f964f"/>
            </g>
            <path id="Path_789" data-name="Path 789" d="M1517.859,777.153s-17.883-11.108-7.917,114.307C1515.836,877.752,1517.859,777.153,1517.859,777.153Z" transform="translate(-1476.301 -712.463)" fill="#47a859"/>
            <g id="Group_1335" data-name="Group 1335" transform="translate(23.507)">
              <path id="Path_790" data-name="Path 790" d="M1459.249,269.171c3.239-3.722,5.793-.111,10.41-4.719s8.324-7.925,12.276-3.063,5.988,5.545,8.865,5.267,2.86,11.553,2.86,11.553,11.32-2.83,9.8-11.093c-1.683-9.159-5.849-6.538-8.18-13.958s-11.329-11.608-15.446-9.826c-4.341,1.879-6.62,3.945-12.942,2.409s-11.768.325-11.757,8.522-9.629,5.751-6.543,15.987c1.2,3.97,4.552,7.625,6.11,7.307C1456.79,277.13,1457.161,271.57,1459.249,269.171Z" transform="translate(-1447.984 -242.923)" fill="#2c2858"/>
              <path id="Path_791" data-name="Path 791" d="M1598.08,684.45a10.75,10.75,0,0,0,8,4.021c6.918.329,8.873-3.564,8.873-3.564l1.088-15.639h-18.479Z" transform="translate(-1579.514 -617.819)" fill="#de623c"/>
              <path id="Path_792" data-name="Path 792" d="M1539.727,330.561c-23.848-.562-18.4,31.562-16.664,36.61.949,2.752,7,13.309,16.729,13.458,9.73-.149,15.649-10.706,16.6-13.458C1558.131,362.123,1564.4,330.937,1539.727,330.561Z" transform="translate(-1512.436 -319.979)" fill="#f37a50"/>
              <g id="Group_1333" data-name="Group 1333" transform="translate(31.222 26.014)">
                <path id="Path_793" data-name="Path 793" d="M1707.921,463.52a1.213,1.213,0,0,1-.878-2.051,10.508,10.508,0,0,1,8.517-2.9,1.213,1.213,0,0,1-.319,2.406,8.074,8.074,0,0,0-6.443,2.167A1.208,1.208,0,0,1,1707.921,463.52Z" transform="translate(-1706.707 -458.485)" fill="#2c2858"/>
              </g>
              <g id="Group_1334" data-name="Group 1334" transform="translate(13.575 26.014)">
                <path id="Path_794" data-name="Path 794" d="M1569.165,463.52a1.213,1.213,0,0,0,.878-2.051,10.507,10.507,0,0,0-8.517-2.9,1.213,1.213,0,1,0,.319,2.406,8.073,8.073,0,0,1,6.443,2.167A1.21,1.21,0,0,0,1569.165,463.52Z" transform="translate(-1560.471 -458.485)" fill="#2c2858"/>
              </g>
              <ellipse id="Ellipse_112" data-name="Ellipse 112" cx="1.945" cy="1.945" rx="1.945" ry="1.945" transform="translate(33.506 34.452) rotate(-76.714)"/>
              <ellipse id="Ellipse_113" data-name="Ellipse 113" cx="1.945" cy="1.945" rx="1.945" ry="1.945" transform="translate(16.622 31.939) rotate(-22.5)"/>
              <path id="Path_795" data-name="Path 795" d="M1638.669,628.208a1.886,1.886,0,0,1-.124.741c-.571,1.343-3.087-.189-5.891-.189-2.933,0-5.163,1.677-5.505-.019a2.549,2.549,0,0,1-.049-.534c0-2.542,2.589-4.6,5.783-4.6S1638.669,625.665,1638.669,628.208Z" transform="translate(-1605.485 -577.668)"/>
              <path id="Path_796" data-name="Path 796" d="M1677.331,534.268c1.564,2.484,3.546,5.514,3.546,5.514a4.474,4.474,0,0,1-4.365,2.677c1.464-.611,2.91-1.6,2.306-3.555S1677.331,534.268,1677.331,534.268Z" transform="translate(-1648.934 -499.109)" fill="#de623c"/>
              <path id="Path_797" data-name="Path 797" d="M1487.25,512.14c1.471,2.886.614,6.271-1.915,7.56s-5.771-.006-7.243-2.892-.614-6.271,1.915-7.56S1485.779,509.253,1487.25,512.14Z" transform="translate(-1473.826 -476.669)" fill="#f37a50"/>
              <path id="Path_798" data-name="Path 798" d="M1792.088,512.14c-1.471,2.886-.614,6.271,1.915,7.56s5.771-.006,7.243-2.892.614-6.271-1.915-7.56S1793.559,509.253,1792.088,512.14Z" transform="translate(-1749.929 -476.669)" fill="#f37a50"/>
              <path id="Path_799" data-name="Path 799" d="M1515.2,328.725c.5-5.5,2.271-13.01,7.867-11.253s15.083,3.171,13.029-1.338,3.9-2.91,5.19,0,12.786,7.636,12.415,2.677-7.79-15.955-21.7-14.909S1511.942,321.343,1515.2,328.725Z" transform="translate(-1506.338 -296.482)" fill="#2c2858"/>
              <path id="Path_800" data-name="Path 800" d="M1651.23,686.18l1.639.39a9.269,9.269,0,0,0,1.441.224,4.584,4.584,0,0,0,1.373-.109,11.88,11.88,0,0,0,1.557-.5,2.69,2.69,0,0,1-1.122,1.471,3.038,3.038,0,0,1-1.888.488,3.74,3.74,0,0,1-1.789-.6A3.276,3.276,0,0,1,1651.23,686.18Z" transform="translate(-1626.703 -632.689)" fill="#de623c"/>
              <path id="Path_801" data-name="Path 801" d="M1638.907,651.248c-.571,1.343-3.087-.189-5.891-.189-2.934,0-5.163,1.677-5.506-.019.976-1.224,3.125-2.073,5.621-2.073C1635.763,648.967,1638.011,649.913,1638.907,651.248Z" transform="translate(-1605.845 -599.967)" fill="#aa2b2b"/>
            </g>
            <g id="Group_1341" data-name="Group 1341" transform="translate(0 21.206)">
              <path id="Path_802" data-name="Path 802" d="M1463.05,886.361s.552-2.912.869-5.013c3.7.641,10.947,3.7,10.947,3.7l-1.057,4.694Z" transform="translate(-1437.725 -825.511)" fill="#f37a50"/>
              <path id="Path_803" data-name="Path 803" d="M1337.589,916.618l-13.2-3.372s-16.277,21.575-18.311,42.594,15.893,10.767,15.893,10.767C1331.838,960.107,1335.235,933.581,1337.589,916.618Z" transform="translate(-1299.55 -853.559)" fill="#0e6a41"/>
              <g id="Group_1340" data-name="Group 1340">
                <g id="Group_1338" data-name="Group 1338">
                  <path id="Path_804" data-name="Path 804" d="M1297.156,438.508c3.088,12.911-1.692,25.934-9.346,28.91-6.883,2.676-19.873-.283-27-14.035a93.093,93.093,0,0,1-7.614-20.108c.513-1.936,11.319-1.456,19.814-4.694,7.945-3.027,12.78-10.53,15.453-9.9C1291.382,422.195,1295.364,431.013,1297.156,438.508Z" transform="translate(-1253.195 -418.649)" fill="#fff"/>
                  <g id="Group_1336" data-name="Group 1336" transform="translate(9.732 20.163)">
                    <path id="Path_805" data-name="Path 805" d="M1342.079,587.584a1.117,1.117,0,0,0-.895-1.849,9.674,9.674,0,0,0-7.16,4.167,1.117,1.117,0,0,0,1.864,1.232,7.434,7.434,0,0,1,5.4-3.167A1.116,1.116,0,0,0,1342.079,587.584Z" transform="translate(-1333.839 -585.734)" fill="#494c7f"/>
                  </g>
                  <g id="Group_1337" data-name="Group 1337" transform="translate(27.843 13.765)">
                    <path id="Path_806" data-name="Path 806" d="M1484.889,536.643a1.117,1.117,0,0,1-.563-1.976,9.676,9.676,0,0,1,8.117-1.655,1.117,1.117,0,0,1-.571,2.16,7.432,7.432,0,0,0-6.137,1.229A1.116,1.116,0,0,1,1484.889,536.643Z" transform="translate(-1483.913 -532.71)" fill="#494c7f"/>
                  </g>
                  <path id="Path_807" data-name="Path 807" d="M1511.836,575.481a1.972,1.972,0,1,1-2.546-1.141A1.973,1.973,0,0,1,1511.836,575.481Z" transform="translate(-1477.268 -555.438)" fill="#494c7f"/>
                  <path id="Path_808" data-name="Path 808" d="M1378.187,622.292a1.972,1.972,0,1,1-2.545-1.141A1.972,1.972,0,0,1,1378.187,622.292Z" transform="translate(-1359.748 -596.6)" fill="#494c7f"/>
                  <path id="Path_809" data-name="Path 809" d="M1470.84,621.886c2.379,1.789,5.352,3.945,5.352,3.945a4.538,4.538,0,0,1-3.17,4.113c1.167-1.108,2.179-2.569.9-4.2S1470.84,621.886,1470.84,621.886Z" transform="translate(-1444.575 -597.36)" fill="#494c7f"/>
                  <path id="Path_810" data-name="Path 810" d="M1462.494,704.381c.112-.612-.435-1.232-.884-1a30.067,30.067,0,0,1-10.188,3.391c-.5.081-.565.906-.109,1.328,1.4,1.3,4.011,3.112,6.923,2.143S1462.15,706.262,1462.494,704.381Z" transform="translate(-1427.135 -668.978)" fill="#494c7f"/>
                </g>
                <g id="Group_1339" data-name="Group 1339" transform="translate(19.479 28.759)">
                  <path id="Path_811" data-name="Path 811" d="M1432.279,687.947c-4.328-.656-7.589.132-11.456-4.1a27.022,27.022,0,0,0-3.7-4.437c-2.284-.733-2.9-2.971-2.292-3.992a18.617,18.617,0,0,0,6.565,1.386c1.441.032,3-1.412,3.33-7.367.415-7.6-.751-10.355,1.747-10.5,1.64-.094,1.737,3.709,1.5,10.894,1.547-3.611-.543-13.151,2.868-12.859,2.478.213,1.094,11.651.17,14.432,2.826-4.7,1.127-12.806,2.717-13.068,3.358-.38,2.847,9.066.574,13.423,3.3-3.588,1.841-8.117,3.394-8.145,2.9-.05.217,10.358-2.446,15.583C1434.459,680.745,1432.279,687.947,1432.279,687.947Z" transform="translate(-1414.607 -656.966)" fill="#f37a50"/>
                </g>
              </g>
            </g>
            <path id="Path_812" data-name="Path 812" d="M1751.393,894.039s2.2-111.205-7.733-114.2c0,0,9.777,1.071,12.422,17.139S1758.665,847.4,1751.393,894.039Z" transform="translate(-1684.472 -715.042)" fill="#47a859"/>
            <path id="Path_813" data-name="Path 813" d="M1270.751,796.03s-30.03,28.87-9.826,65.1C1263.708,856.705,1277.42,814.215,1270.751,796.03Z" transform="translate(-1253.847 -729.282)" fill="#0e6a41"/>
          </g>
          <g id="Group_1355" data-name="Group 1355" transform="translate(0 14.282)">
            <path id="Path_814" data-name="Path 814" d="M414.288,903.379S401.224,922.52,404.267,935.7s25.2,10.538,25.2,10.538Z" transform="translate(-381.078 -837.959)" fill="#e62552"/>
            <path id="Path_815" data-name="Path 815" d="M679.242,1492.879s-3.035,5.727-7.692,14.018a3.783,3.783,0,0,0-1.474.465c-2.317.743-4.867,1.614-7.575,2.549-2.44.844-5.009,1.739-7.654,2.643a208.177,208.177,0,0,1-24.368,7.093c2.643-7.626,5.23-26.456,7.445-31.278h0c3.791-8.252,6.486-13.787,6.486-13.787l13.2,6.937,10.4,5.462,7.837,4.118Z" transform="translate(-580.397 -1340.228)" fill="#201d40"/>
            <path id="Path_816" data-name="Path 816" d="M851.585,1491.038c-2.567.387-5.824.845-9.575,1.295a39.591,39.591,0,0,0-12.948,1.285,3.787,3.787,0,0,0-1.473.465c-2.317.743-4.867,1.614-7.575,2.549-2.44.844-5.009,1.739-7.653,2.643-.643-8.037-1.206-18.233-1.627-21.257h0c-.724-5.214-1.125-8.443-1.125-8.443l5.519-1.336,10.855-2.628,7.379-1.787,2.849-.69,15.091-3.653s.07,2.7.141,7.2c.016.954.031,1.99.046,3.1v0c.025,1.889.049,3.987.069,6.254C851.595,1480.488,851.612,1485.6,851.585,1491.038Z" transform="translate(-737.909 -1326.949)" fill="#2c2858"/>
            <g id="v_2_" transform="translate(33.21 50.409)">
              <path id="h-5_1_" d="M534.44,778.986l-32.711,9.082L490.656,794c1.306,18.4,22.424,82.26,22.424,82.26s21.282,5.444,33.411,4.264c16.643-1.619,28.4-12,28.4-12-1.455-19.454-8.743-42.939-19.524-66.416C551.243,793.133,543.313,781.424,534.44,778.986Z" transform="translate(-490.656 -778.986)" fill="#c4204a"/>
            </g>
            <path id="Path_817" data-name="Path 817" d="M582.385,809.687s-.523,11.537,10.778,9.971,12.61-11.7,11.956-16.087C603.628,803.789,582.385,809.687,582.385,809.687Z" transform="translate(-538.102 -750.196)" fill="#e62552"/>
            <g id="Group_1349" data-name="Group 1349" transform="translate(25.385)">
              <path id="v-2_1_" d="M595.42,706.328l-.009,0-7.57,1.453L589.492,726s.564,4.3,8.462,4.076c6.783-.19,10.132-9.792,10.132-9.792l-4.046-15.542Z" transform="translate(-568.288 -663.291)" fill="#de623c"/>
              <g id="Group_1348" data-name="Group 1348">
                <path id="Path_818" data-name="Path 818" d="M479.714,445.859c.339,13.306-6.363,24.23-16.813,24.5s-19.2-10.3-19.537-23.611,7.858-24.309,18.309-24.575S479.375,432.552,479.714,445.859Z" transform="translate(-441.237 -414.815)" fill="#f37a50"/>
                <path id="Path_819" data-name="Path 819" d="M524.875,647.824c-1.493,2.751-3.393,6.113-3.393,6.113a4.771,4.771,0,0,0,4.83,2.547c-1.6-.549-3.208-1.5-2.7-3.623S524.875,647.824,524.875,647.824Z" transform="translate(-509.938 -613.244)" fill="#de623c"/>
                <path id="Path_820" data-name="Path 820" d="M468.346,381.09c-.862-12.593-12.927-14.856-12.927-14.856s2.414-1.305,1.2-4.961a10.1,10.1,0,0,1-5.893,2.385c-14.419.849-22.984,4.6-20.688,9.942.817,1.9-8.23,4.377-2.042,16.863.631-1.691.5-7.638,3.052-9.359s1.644,3.078,7.8,1.376c6.213-1.717,9.915-5,14.921-3.23,4.045,1.679,11.055,16.065,11.009,17.132C464.883,393.934,468.725,386.624,468.346,381.09Z" transform="translate(-425.815 -361.273)" fill="#181b47"/>
                <path id="Path_821" data-name="Path 821" d="M451.94,619.389s2.334,6.89,4.181,8.536c-.149-3.1,6.843-2.246,9.789-2.452,5.336-.374,9.936-5.893,12.806.737,8.989-.5,6.859-15.816,6.859-15.816,3.2,11.471,1.669,27.317-15.665,30.157C460.329,642.122,451.712,630.453,451.94,619.389Z" transform="translate(-448.784 -580.331)" fill="#181b47"/>
                <g id="Group_1344" data-name="Group 1344" transform="translate(35.615 27.602)">
                  <path id="Path_822" data-name="Path 822" d="M722.3,592.5c-1.9,2.486-1.794,5.763.241,7.319s5.226.8,7.127-1.684,1.793-5.763-.241-7.319S724.2,590.009,722.3,592.5Z" transform="translate(-720.938 -590.001)" fill="#f37a50"/>
                  <g id="Group_1343" data-name="Group 1343" transform="translate(2.709 2.612)">
                    <path id="Path_823" data-name="Path 823" d="M745.061,617.511a.684.684,0,0,1-.284-.133,3.1,3.1,0,0,1-1.194-3.608,3.3,3.3,0,0,1,3.18-2.117.684.684,0,0,1-.085,1.366,1.952,1.952,0,0,0-1.816,1.24,1.752,1.752,0,0,0,.765,2.045.684.684,0,0,1-.565,1.207Z" transform="translate(-743.387 -611.647)" fill="#de623c"/>
                  </g>
                </g>
                <path id="Path_824" data-name="Path 824" d="M584.972,619.468a1.989,1.989,0,1,1,2.806.192A1.989,1.989,0,0,1,584.972,619.468Z" transform="translate(-565.335 -585.412)"/>
                <path id="Path_825" data-name="Path 825" d="M473.506,633.843a1.825,1.825,0,1,1,.177-2.575A1.825,1.825,0,0,1,473.506,633.843Z" transform="translate(-465.092 -598.136)"/>
                <g id="Group_1345" data-name="Group 1345" transform="translate(16.094 26.371)">
                  <path id="Path_826" data-name="Path 826" d="M560.106,583.976a.928.928,0,0,1-.728-1.5,7.653,7.653,0,0,1,7.488-2.485.928.928,0,1,1-.394,1.813,5.829,5.829,0,0,0-5.637,1.821A.926.926,0,0,1,560.106,583.976Z" transform="translate(-559.178 -579.798)" fill="#181b47"/>
                </g>
                <g id="Group_1346" data-name="Group 1346" transform="translate(2.956 29.06)">
                  <path id="Path_827" data-name="Path 827" d="M456.939,604.5a.925.925,0,0,1-.343-.066c-.034-.013-2.816-1.089-4.94-.031a.928.928,0,0,1-.827-1.661c2.88-1.434,6.311-.089,6.456-.031a.928.928,0,0,1-.346,1.789Z" transform="translate(-450.314 -602.08)" fill="#181b47"/>
                </g>
                <g id="Group_1347" data-name="Group 1347" transform="translate(13.281 46.734)">
                  <path id="Path_828" data-name="Path 828" d="M536.546,751.8a.679.679,0,0,1-.467-1.174c.14-.131,3.515-3.2,11.152-1.658a.68.68,0,1,1-.269,1.334c-6.891-1.389-9.926,1.292-9.955,1.32A.682.682,0,0,1,536.546,751.8Z" transform="translate(-535.865 -748.538)" fill="#de623c"/>
                </g>
              </g>
            </g>
            <g id="c_26_" transform="translate(0 87.648)">
              <g id="Group_1353" data-name="Group 1353">
                <path id="Path_829" data-name="Path 829" d="M215.461,1226.337s1-1.788,11.449-3.227a14.915,14.915,0,0,1-6.488,5.471Z" transform="translate(-215.461 -1206.754)" fill="#494c7f"/>
                <path id="Path_830" data-name="Path 830" d="M227.436,1127.333c9.786,9.639,19.234,13.306,25.96,8.422,6.047-4.391,10.642-17.066,2.843-30.664A94.21,94.21,0,0,0,243.3,1087.6c-1.929-.624-7.111,9.56-14.519,15.016-6.928,5.1-10.512,5.3-13.317,4.54C216.848,1111.56,221.88,1121.86,227.436,1127.333Z" transform="translate(-215.462 -1087.572)" fill="#fff"/>
                <path id="Path_831" data-name="Path 831" d="M324.612,1332.972a2,2,0,1,0,.423-2.791A2,2,0,0,0,324.612,1332.972Z" transform="translate(-311.098 -1300.562)" fill="#494c7f"/>
                <path id="Path_832" data-name="Path 832" d="M437.641,1244.871a2,2,0,1,0,.423-2.791A2,2,0,0,0,437.641,1244.871Z" transform="translate(-410.487 -1223.093)" fill="#494c7f"/>
                <path id="Path_833" data-name="Path 833" d="M396.737,1317.93c.219,3,.426,6.715.426,6.715a4.592,4.592,0,0,0,5.236-.445c-1.582.386-3.38.447-4.069-1.533S396.737,1317.93,396.737,1317.93Z" transform="translate(-374.861 -1290.131)" fill="#494c7f"/>
                <g id="Group_1350" data-name="Group 1350" transform="translate(8.54 25.557)">
                  <path id="Path_834" data-name="Path 834" d="M287.087,1304.891l.034,0a.816.816,0,0,0,.752-.875,3.272,3.272,0,0,1,1.929-3.1.816.816,0,1,0-.638-1.5,4.881,4.881,0,0,0-2.918,4.723A.814.814,0,0,0,287.087,1304.891Z" transform="translate(-286.231 -1299.35)" fill="#494c7f"/>
                </g>
                <g id="Group_1351" data-name="Group 1351" transform="translate(24.647 14.54)">
                  <path id="Path_835" data-name="Path 835" d="M425.8,1209.639l-.015.031a.816.816,0,0,1-1.1.357,3.272,3.272,0,0,0-3.6.589.816.816,0,0,1-1.14-1.167,4.881,4.881,0,0,1,5.482-.876A.815.815,0,0,1,425.8,1209.639Z" transform="translate(-419.702 -1208.057)" fill="#494c7f"/>
                </g>
                <g id="Group_1352" data-name="Group 1352" transform="translate(23.505 33.167)">
                  <path id="Path_836" data-name="Path 836" d="M412.155,1370.877a9.686,9.686,0,0,1-1.185-.063.849.849,0,0,1,.224-1.682c.324.042,7.608.9,8.98-6.038a.848.848,0,0,1,1.665.329,8.554,8.554,0,0,1-6.127,6.941A12.356,12.356,0,0,1,412.155,1370.877Z" transform="translate(-410.233 -1362.411)" fill="#494c7f"/>
                </g>
              </g>
              <path id="c_28_" d="M313.169,1396.329a1.6,1.6,0,0,0-.5.024c0-.029.01-.056.014-.085.216-1.7-.6-3.2-1.819-3.359a1.645,1.645,0,0,0-.592.037,2.3,2.3,0,0,0-1.763-1.976,1.72,1.72,0,0,0-1,.19,2.294,2.294,0,0,0-1.858-2.064,2.69,2.69,0,0,0-.667,5.257,1.922,1.922,0,0,0,.9-.1c-.022,1.495.747,2.738,1.85,2.878a1.644,1.644,0,0,0,.592-.037,2.294,2.294,0,0,0,1.763,1.976,1.708,1.708,0,0,0,.935-.155,1.961,1.961,0,0,0,1.584,1.856,2.272,2.272,0,0,0,.563-4.44Z" transform="translate(-292.51 -1352.695)" fill="#f37a50"/>
            </g>
            <g id="Group_1354" data-name="Group 1354" transform="translate(29.315 101.148)">
              <path id="Path_837" data-name="Path 837" d="M485.038,1215.322c-5.905,5.6-10.867,1.378-12.3.28-1.565-1.2-4-2.12-5.408-1.263-1.446.881-2.5,2.089-3.582,1.15-1.513-1.309,2.007-5.159,5.672-3.907,0,0-2.858-1.031-4.359.026-1.644,1.158-2.863,2.02-3.871,1.429a1.3,1.3,0,0,1-.3-1.878c-.9.3-2.616.174-2.323-.946a8.932,8.932,0,0,1,10.283-6.07c-5.451-3.2-7.927,1.8-9.781,1.17-1.114-.377-.672-1.761-.1-2.541a8.424,8.424,0,0,1,8.05-3.237c3.068.461,7.056,2.971,7.717,6,0,0,4.324,2.216,6.983,1.112Z" transform="translate(-458.383 -1199.438)" fill="#f37a50"/>
            </g>
            <path id="Path_838" data-name="Path 838" d="M835.911,771.873c3.58,3.567,28.323,34.417,18.968,52.856-9.118-2.089-15.427-9.352-15.427-9.352s-19.71-30.652-17.764-39.07A8.382,8.382,0,0,1,835.911,771.873Z" transform="translate(-748.41 -720.148)" fill="#e62552"/>
            <path id="Path_839" data-name="Path 839" d="M651.786,1163.262l38.386-13.13s8.4-1.119,15.427,9.352c-3.325,5.478-26.308,14.591-49.748,14.155C652.958,1170.578,651.786,1163.262,651.786,1163.262Z" transform="translate(-599.131 -1054.904)" fill="#e62552"/>
          </g>
          <g id="Group_1380" data-name="Group 1380" transform="translate(63.23 26.867)">
            <g id="Group_1379" data-name="Group 1379">
              <path id="Path_840" data-name="Path 840" d="M881.82,492.067c-.059-11.114-4.023-20.624-13.225-24.9-9.327-4.335-20.125,1.488-20.125,1.488h0s-9.735-2.623-17.572,7.506-.69,17.937-3.658,25.107c-1.758,4.247-12.263,5.921-8.484,19,1.09,3.773,5.906,5.991,9.833,5.94,6.9-.09,13.083-3.247,16.075-.812,9.858,8.022,32.349,4.925,34.563-3.3.686-2.55,16.923-.856,13.768-17.6C891.4,496.009,881.873,502,881.82,492.067Z" transform="translate(-808.466 -465.56)"/>
              <path id="Path_841" data-name="Path 841" d="M757.989,1135.051s11.26-17.017,16.24-20.47,1.281,18.251,1.281,18.251Z" transform="translate(-755.748 -1035.931)" fill="#494c7f"/>
              <g id="Group_1358" data-name="Group 1358" transform="translate(38.036 45.703)">
                <g id="Group_1357" data-name="Group 1357">
                  <g id="Group_1356" data-name="Group 1356">
                    <path id="Path_842" data-name="Path 842" d="M1059.019,848.9l13.875-4.618L1070,858.185s-6.043,10.889-11.777,9.014-2.937-6.686-2.937-6.686Z" transform="translate(-1054.606 -844.279)" fill="#de623c"/>
                  </g>
                </g>
              </g>
              <g id="Group_1363" data-name="Group 1363" transform="translate(23.034 4.46)">
                <path id="Path_843" data-name="Path 843" d="M973.675,549.789c.621,13.214-9.852,24.074-17.667,24.808-8.616.81-19.294-9.829-19.915-23.043s7.289-24.321,17.667-24.808S973.055,536.575,973.675,549.789Z" transform="translate(-935.363 -523.808)" fill="#f37a50"/>
                <g id="Group_1359" data-name="Group 1359" transform="translate(19.114 21.942)">
                  <path id="Path_844" data-name="Path 844" d="M1094.592,685.3a.679.679,0,0,0-.45,0,5.18,5.18,0,0,1-4.368-.827.68.68,0,0,0-.824,1.082,6.472,6.472,0,0,0,5.652,1.026.68.68,0,0,0-.009-1.284Z" transform="translate(-1088.683 -684.34)"/>
                </g>
                <g id="Group_1360" data-name="Group 1360" transform="translate(1.496 25.687)">
                  <path id="Path_845" data-name="Path 845" d="M942.743,717.641a.681.681,0,0,0,.575.946,4.775,4.775,0,0,0,4.364-2.184.68.68,0,0,0-1.169-.7,3.411,3.411,0,0,1-3.094,1.523A.681.681,0,0,0,942.743,717.641Z" transform="translate(-942.688 -715.376)"/>
                </g>
                <path id="Path_846" data-name="Path 846" d="M1019.061,771.575a17.236,17.236,0,0,1-1.862,3.185.682.682,0,0,0,.037.935c1.059,1.038,3.4,1.467,4.8,1.637a.182.182,0,0,0,.1-.346,8.838,8.838,0,0,1-2.723-1.784.813.813,0,0,1-.2-.709c.111-.587.324-1.781.423-2.747A.306.306,0,0,0,1019.061,771.575Z" transform="translate(-1006.565 -738.962)" fill="#de623c"/>
                <path id="Path_847" data-name="Path 847" d="M1039.654,526.516c-12.033,1.8-29.883-6.121-32.967-11.793.133-7.925,5.285-13.4,13-11.983S1041.908,515.939,1039.654,526.516Z" transform="translate(-997.468 -502.517)"/>
                <path id="Path_848" data-name="Path 848" d="M942.839,543.714s-5.68,8.609-12.544,11.67c.862-8.909,1.405-15.641,5.312-18.555a29.4,29.4,0,0,1,8.6-4.209Z" transform="translate(-930.295 -528.986)"/>
                <g id="Group_1362" data-name="Group 1362" transform="translate(33.877 21.939)">
                  <path id="Path_849" data-name="Path 849" d="M1212.275,686.915c-1.827,2.518-1.637,5.771.423,7.266s5.212.666,7.038-1.852,1.637-5.771-.423-7.266S1214.1,684.4,1212.275,686.915Z" transform="translate(-1211.02 -684.319)" fill="#f37a50"/>
                  <g id="Group_1361" data-name="Group 1361" transform="translate(2.678 2.598)">
                    <path id="Path_850" data-name="Path 850" d="M1234.942,711.713a.677.677,0,0,1-.286-.125,3.076,3.076,0,0,1-1.277-3.555,3.276,3.276,0,0,1,3.106-2.183.68.68,0,0,1-.05,1.359,1.94,1.94,0,0,0-1.773,1.278,1.741,1.741,0,0,0,.812,2.013.68.68,0,0,1-.531,1.213Z" transform="translate(-1233.21 -705.848)" fill="#de623c"/>
                  </g>
                </g>
                <path id="Path_851" data-name="Path 851" d="M1097.245,715.423a2.089,2.089,0,1,1-2.452-1.647A2.089,2.089,0,0,1,1097.245,715.423Z" transform="translate(-1073.458 -688.247)"/>
                <path id="Path_852" data-name="Path 852" d="M973.485,739.746a2.089,2.089,0,1,1-2.452-1.646A2.088,2.088,0,0,1,973.485,739.746Z" transform="translate(-964.634 -709.635)"/>
                <path id="Path_853" data-name="Path 853" d="M1256.429,758.334a4.386,4.386,0,0,0,1.042-.67,7.631,7.631,0,0,0-2.158-.491s.536.462-.045,1.161C1255.581,758.364,1256.429,758.334,1256.429,758.334Z" transform="translate(-1216.051 -726.442)" fill="#f37a50"/>
                <path id="Path_854" data-name="Path 854" d="M1049.628,846.542c.27,1.568-1.681,1.971-3.508,2.286s-4.086.638-4.357-.931,1.756-3.244,3.583-3.558S1049.357,844.974,1049.628,846.542Z" transform="translate(-1028.29 -803.036)" fill="#fff"/>
              </g>
              <g id="Group_1367" data-name="Group 1367" transform="translate(18.875 126.944)">
                <g id="Group_1366" data-name="Group 1366">
                  <g id="Group_1365" data-name="Group 1365">
                    <g id="Group_1364" data-name="Group 1364">
                      <path id="Path_855" data-name="Path 855" d="M961.881,1548.036l-.468.079q-1.568.27-3.043.468c-20.382,2.751-28.161-4.321-40.543-5.241a39.592,39.592,0,0,0-12.947,1.285c-.479.148-.971.3-1.474.465-2.317.743-4.867,1.614-7.575,2.549a93.82,93.82,0,0,1,3.5-17.572,55.146,55.146,0,0,1,2.008-5.361q.2-.45.4-.9a44.539,44.539,0,0,1,3.28-5.918l1.349-.012,20.889-.2,3.886-.037,16.823-.159c.294.281.582.565.865.855h0a36.226,36.226,0,0,1,2.467,2.8,46.79,46.79,0,0,1,7.649,14.906h0q.511,1.569.956,3.2C960.679,1542.064,961.322,1545,961.881,1548.036Z" transform="translate(-895.83 -1517.489)" fill="#070635"/>
                    </g>
                  </g>
                </g>
              </g>
              <g id="Group_1370" data-name="Group 1370" transform="translate(17.598 58.341)">
                <g id="Group_1369" data-name="Group 1369">
                  <g id="Group_1368" data-name="Group 1368">
                    <path id="Path_856" data-name="Path 856" d="M892.293,1011.763c-.606-9.334-9.6-22.794-6.338-32.468,2.332-7.763,6.771-25.224,12.743-26.772a32.877,32.877,0,0,1,8.076-1.2s-.924,7.38,3.09,7.441c7.727.117,11.46-9.675,11.46-9.675,4.119-.665,19.493,2.81,20.377,6.345.749,12.23-3.5,27.4-5.889,40.827-.165,6.77,1.742,12.113,2.663,15.878,1.489,3.89,3.784,8.142,3.849,9,0,0-31.139,12.224-49.917,3.42C892.409,1024.557,892.7,1018.068,892.293,1011.763Z" transform="translate(-885.244 -949.004)" fill="#2c2858"/>
                  </g>
                </g>
              </g>
              <path id="Path_857" data-name="Path 857" d="M1317.753,1032.408s.43-33.284-10.541-40.77c-2.966-1.849-6.839,4.629-5.186,12.276S1317.753,1032.408,1317.753,1032.408Z" transform="translate(-1233.785 -927.873)" fill="#494c7f"/>
              <g id="Group_1371" data-name="Group 1371" transform="translate(56.787 61.098)">
                <path id="Path_858" data-name="Path 858" d="M1216.871,971.851s30.091,40.952,18.346,50.1c-13.306,10.36-23.98-27.639-25.227-50.1C1214.173,971.861,1216.871,971.851,1216.871,971.851Z" transform="translate(-1209.99 -971.851)" fill="#f37a50"/>
              </g>
              <g id="Group_1372" data-name="Group 1372" transform="translate(55.238 37.61)">
                <path id="Path_859" data-name="Path 859" d="M1198.714,800.94c-3.978-7,.729-10.169,2.123-11.288,1.519-1.22,2.983-3.341,2.493-4.894-.5-1.6-1.414-2.893-.256-3.712,1.615-1.142,4.478,3.149,2.409,6.371,0,0,1.667-2.5,1.007-4.191-.723-1.853-1.262-3.227-.456-4.055a1.288,1.288,0,0,1,1.873.16c-.074-.932.452-2.553,1.459-2.007a8.835,8.835,0,0,1,3.393,11.311c4.364-4.476.152-8.037,1.193-9.669.625-.981,1.85-.228,2.463.506a8.332,8.332,0,0,1,1.2,8.5c-1.169,2.836-4.524,6.071-7.59,5.989,0,0-3.843,4.188-4.273,6.981h-7.039Z" transform="translate(-1197.151 -777.215)" fill="#f37a50"/>
              </g>
              <g id="Group_1378" data-name="Group 1378" transform="translate(0 50.894)">
                <g id="Group_1377" data-name="Group 1377">
                  <g id="Group_1375" data-name="Group 1375" transform="translate(16.958)">
                    <path id="Path_860" data-name="Path 860" d="M952.426,887.3s3.992.154,5.838,5.585C954.253,893.626,952.426,887.3,952.426,887.3Z" transform="translate(-943.679 -887.295)" fill="#494c7f"/>
                    <path id="Path_861" data-name="Path 861" d="M914.213,918.408c-5.916,11.163-17.893,14.352-24.481,12.53-4.756-1.315-11.978-10.064-9.145-23.187,1.542-7.142,5.775-16.307,8.107-20.458.656,1.938,4.906,6.032,13.01,9.064,7.578,2.835,17.259.292,18.769,2.427C920.352,903.126,917.647,911.928,914.213,918.408Z" transform="translate(-879.947 -887.293)" fill="#fff"/>
                    <path id="Path_862" data-name="Path 862" d="M1074.21,1069.437a1.877,1.877,0,1,1-1.1-2.416A1.877,1.877,0,0,1,1074.21,1069.437Z" transform="translate(-1047.57 -1045.227)" fill="#494c7f"/>
                    <path id="Path_863" data-name="Path 863" d="M951.847,1028.236a1.877,1.877,0,1,1-1.1-2.416A1.877,1.877,0,0,1,951.847,1028.236Z" transform="translate(-939.973 -1008.998)" fill="#494c7f"/>
                    <path id="Path_864" data-name="Path 864" d="M980.344,1064.44c-2.328,1.615-5.233,3.557-5.233,3.557a4.318,4.318,0,0,0,2.865,4.027c-1.069-1.1-1.979-2.523-.705-4.028S980.344,1064.44,980.344,1064.44Z" transform="translate(-963.625 -1043.062)" fill="#494c7f"/>
                    <path id="Path_865" data-name="Path 865" d="M952.011,1142.072a.688.688,0,0,0-.2-1.221,39.377,39.377,0,0,1-11.07-3.626c-.492-.237-1.038.3-.882.867a7.293,7.293,0,0,0,12.148,3.98Z" transform="translate(-932.608 -1107.013)" fill="#494c7f"/>
                    <g id="Group_1373" data-name="Group 1373" transform="translate(24.654 18.581)">
                      <path id="Path_866" data-name="Path 866" d="M1089.061,1046.238a.749.749,0,0,1-.747-.707c-.158-2.8-2.972-2.775-3.293-2.762a.749.749,0,0,1-.066-1.5,4.416,4.416,0,0,1,4.855,4.175.749.749,0,0,1-.706.79Z" transform="translate(-1084.241 -1041.267)" fill="#494c7f"/>
                    </g>
                    <g id="Group_1374" data-name="Group 1374" transform="translate(7.264 12.918)">
                      <path id="Path_867" data-name="Path 867" d="M946.23,996.719a.747.747,0,0,1-.417-.128h0c-.1-.068-2.525-1.654-4.439-.048a.749.749,0,0,1-.963-1.148c2.23-1.87,5.057-.848,6.241-.046a.749.749,0,0,1-.421,1.37Z" transform="translate(-940.142 -994.339)" fill="#494c7f"/>
                    </g>
                  </g>
                  <g id="Group_1376" data-name="Group 1376" transform="translate(35.08 24.715)">
                    <path id="Path_868" data-name="Path 868" d="M1034,1112.671c-1.961-3.059-4.6-4.713-3.715-9.391.322-1.7.814-3.443,1.314-5.484.772-3.15,1.928-5.7,2.618-5.7,1.564,0,1.893.921,1.763,2.847-.1,1.489-1.312,3.257-.446,4.287.769.916,1.979,1.647,5.87-1.411,4.968-3.906,6.045-6.139,7.5-4.66.957.971-1.361,3.114-5.972,6.9,3.1-1.013,7.9-7.541,9.588-5.254,1.225,1.661-6.665,7.063-8.906,8.01,4.475-.809,8.6-6.311,9.636-5.463,2.076,1.885-4.093,6.74-8.055,7.71,4.044.092,6.069-3.3,6.937-2.344,1.618,1.778-5.3,6.669-10.019,7.87Z" transform="translate(-1030.109 -1092.099)" fill="#f37a50"/>
                  </g>
                  <path id="Path_869" data-name="Path 869" d="M774.565,1207.41s-14.758,4.9-26.974,6.657-9.742,18.812.863,16.766c8.127-1.568,29.936-16.766,29.936-16.766Z" transform="translate(-739.42 -1168.779)" fill="#f37a50"/>
                </g>
              </g>
            </g>
          </g>
          <g id="Group_1397" data-name="Group 1397" transform="translate(176.527 26.051)">
            <path id="Path_870" data-name="Path 870" d="M2334.832,1077.25s27.076,25.006,25.135,59.052c.116,4.315-26.75-17.507-26.75-17.507l.3-10.2Z" transform="translate(-2254.177 -1002.617)" fill="#c4204a"/>
            <path id="Path_871" data-name="Path 871" d="M1740.484,1077.25s-27.455,25.006-25.513,59.052c-.117,4.315,26.75-17.507,26.75-17.507Z" transform="translate(-1710.454 -1002.617)" fill="#c4204a"/>
            <path id="Path_872" data-name="Path 872" d="M1950.454,1079.813c-.029.913-.089,1.94-.175,3.064-.09,1.194-.211,2.5-.355,3.89-.231,2.242-.52,4.712-.842,7.328q-.176,1.425-.363,2.9-.141,1.115-.287,2.254c-1.667,13.023-3.687,28.037-3.3,36.119q-3.41.329-6.643.538a211.273,211.273,0,0,1-40.221-1.371q-1.966-.232-3.892-.477c.158-2.9.109-6.532-.069-10.553-.317-7.237-1.048-15.74-1.726-23.546,0,0,0,0,0,0-.123-1.417-.244-2.812-.361-4.171q-.07-.827-.14-1.636h0c-.364-4.3-.67-8.183-.822-11.256-.065-1.341-.1-2.527-.1-3.525,0-10.56,4.337-30.463,4.337-30.463l6.005-1.551,1.205-.311,3.887-1,3.119-.8,7.193-.089,8.566-.106,1.407-.017.358,0,6.061,1.248,1.213.25.5.1.2.041,5.573,1.148h0l5.337,1.1a0,0,0,0,0,0,0c.037.2,2.517,12.957,3.711,22.584v0c.116.935.22,1.841.308,2.7.009.078.016.154.023.23h0A44.374,44.374,0,0,1,1950.454,1079.813Z" transform="translate(-1865.468 -974.276)" fill="#e62552"/>
            <g id="Group_1381" data-name="Group 1381" transform="translate(37.871)">
              <path id="Path_873" data-name="Path 873" d="M1999.334,485.943c-10.785-5.4-9.318-15.42,2.865-16.111,1.162-.868.773-2.643.757-4.093-.043-3.884,3.88-7.115,7.76-6.933,8.306.769,6.942,7.374,10.856,10.115,3.119-.549,6.11-2.714,7.949,1.633.923,3.175-.849,5.877-.094,9.1,9.233-2.727,11.054,8.208.878,9.166-1.625.4-3.385,1.413-3.561,3.078Z" transform="translate(-1992.077 -458.799)" fill="#131538"/>
            </g>
            <g id="Group_1386" data-name="Group 1386" transform="translate(34.301 21.693)">
              <path id="Path_874" data-name="Path 874" d="M2008.49,670.965c-.806,15.865-9.96,28.641-21.277,28.066s-20.51-14.284-19.7-30.149,10.634-28.259,21.95-27.684S2009.3,655.1,2008.49,670.965Z" transform="translate(-1966.862 -640.864)" fill="#f37a50"/>
              <path id="Path_875" data-name="Path 875" d="M2037.19,930.128s.341,3.138,4.242,3.4c3.311.223,3.526-3.812,3.526-3.812S2042.3,931.742,2037.19,930.128Z" transform="translate(-2028.177 -894.58)" fill="#de623c"/>
              <path id="Path_876" data-name="Path 876" d="M2180.84,926.828s.37,3.138,4.13,3.1c3.571-.037,3.592-3.714,3.592-3.714S2185.951,928.441,2180.84,926.828Z" transform="translate(-2154.491 -891.5)" fill="#de623c"/>
              <path id="Path_877" data-name="Path 877" d="M2098.917,1032.857c-3.232-.035-5.783,2.47-5.768,3.621.023,1.748,2.85.59,6.082.625s5.636,1.25,5.624-.5C2104.847,1035.565,2102.15,1032.892,2098.917,1032.857Z" transform="translate(-2077.382 -985.275)" fill="#fff"/>
              <g id="Group_1382" data-name="Group 1382" transform="translate(26.23 33.803)">
                <path id="Path_878" data-name="Path 878" d="M2183.9,921.742a5.633,5.633,0,0,1-3.928-1.5.624.624,0,0,1,.243-.933.859.859,0,0,1,1.079.208,4.361,4.361,0,0,0,2.728.866,2.935,2.935,0,0,0,2.426-1.379.853.853,0,0,1,1.071-.242.628.628,0,0,1,.28.926,4.528,4.528,0,0,1-3.821,2.049Z" transform="translate(-2179.855 -918.673)"/>
              </g>
              <g id="Group_1383" data-name="Group 1383" transform="translate(8.916 34.338)">
                <path id="Path_879" data-name="Path 879" d="M2040.3,926.01a5.534,5.534,0,0,1-3.82-1.692.631.631,0,0,1,.306-.919.851.851,0,0,1,1.063.263,4.292,4.292,0,0,0,2.665,1,2.993,2.993,0,0,0,2.515-1.254.861.861,0,0,1,1.085-.187.622.622,0,0,1,.216.938,4.611,4.611,0,0,1-3.953,1.853Z" transform="translate(-2036.385 -923.109)"/>
              </g>
              <g id="Group_1384" data-name="Group 1384" transform="translate(26.311 26.821)">
                <path id="Path_880" data-name="Path 880" d="M2188.815,866.3c-5.974,0-8.084-3.836-8.172-4a1.008,1.008,0,0,1,1.777-.953c.076.137,1.734,3,6.559,2.937a1.008,1.008,0,0,1,.027,2.016Z" transform="translate(-2180.525 -860.815)" fill="#181b47"/>
              </g>
              <g id="Group_1385" data-name="Group 1385" transform="translate(8.004 26.816)">
                <path id="Path_881" data-name="Path 881" d="M2030.006,866.264h-.191a1.008,1.008,0,0,1,.027-2.016c4.838.066,6.491-2.816,6.559-2.938a1.008,1.008,0,1,1,1.776.954C2038.09,862.428,2035.98,866.264,2030.006,866.264Z" transform="translate(-2028.821 -860.776)" fill="#181b47"/>
              </g>
              <path id="Path_882" data-name="Path 882" d="M2120.175,939.221l1.186,7.134a.789.789,0,0,1-.814.918l-4.587-.209s2.745-.392,3.334-2.157A33.624,33.624,0,0,0,2120.175,939.221Z" transform="translate(-2097.44 -902.938)" fill="#de623c"/>
              <path id="Path_883" data-name="Path 883" d="M1963.078,664.821c.409,1.949,4.421.462,5.67-1.089,2.724-3.383,3.238-8.906,8.786-7.132,6.738,2.155,6.255-.2,11.177-3.582,4.44-3.054,6.344,1.751,7.889,6.219.985,2.849,5.762,6.2,6.917,8.09.6.98,2.24,1.37,2.84.393a22.336,22.336,0,0,0-21.948-29.155C1968.635,638.761,1960.131,650.774,1963.078,664.821Z" transform="translate(-1962.5 -638.563)" fill="#181b47"/>
              <path id="Path_884" data-name="Path 884" d="M2124.994,761.368c2.726-1.119,6.687-2.752,9.136-.229,1.3,1.68,1.062,3.96,1.369,5.9.042,3.869,4.537,1.852,5.523-.409a4.724,4.724,0,0,1-4.646,3.11c-2.091-.724-1.787-3.626-2.388-5.334-.265-1.582-1.177-3.133-3.016-2.816a13.278,13.278,0,0,0-4.963,1.8A1.134,1.134,0,1,1,2124.994,761.368Z" transform="translate(-2104.802 -745.175)" fill="#181b47"/>
              <path id="Path_885" data-name="Path 885" d="M2010.73,778.4c-2.186-.491-5.314.305-5.267,3.01a3.908,3.908,0,0,1-.281,2.445c-1.687,2.337-5.351,2.359-7.688,1.076,2.248,1.026,5.7.838,7.136-1.385.519-1.1-.336-2.231,0-3.391.509-2.838,3.789-3.9,6.33-3.76A1.01,1.01,0,1,1,2010.73,778.4Z" transform="translate(-1993.27 -759.756)" fill="#181b47"/>
              <path id="Path_886" data-name="Path 886" d="M2126.25,1078.971a3.134,3.134,0,0,1,3.979,0C2128.866,1078.9,2127.615,1078.917,2126.25,1078.971Z" transform="translate(-2106.489 -1025.198)" fill="#de623c"/>
            </g>
            <g id="Group_1392" data-name="Group 1392" transform="translate(34.47 73.914)">
              <path id="Path_887" data-name="Path 887" d="M2005.059,1093.423c-2.041,13.806-11.18,22.142-19.03,22.129-6.5-.01-18.764-4.934-21.264-21.006a79.353,79.353,0,0,1-.134-22.506c1.259-1.688,11.613,3.01,21.17,3.177,8.937.156,16.591-5.271,18.951-3.6C2006.227,1076.175,2006.244,1085.408,2005.059,1093.423Z" transform="translate(-1963.896 -1071.293)" fill="#fff"/>
              <path id="Path_888" data-name="Path 888" d="M2129.241,1247.59a41.693,41.693,0,0,1,2.99,6.678,20.517,20.517,0,0,1-5.98.748c1.572-.624,3.261-1.322,3.272-2.456C2129.542,1250.381,2129.241,1247.59,2129.241,1247.59Z" transform="translate(-2106.657 -1226.315)" fill="#494c7f"/>
              <g id="Group_1387" data-name="Group 1387" transform="translate(27.509 12.099)">
                <path id="Path_889" data-name="Path 889" d="M2199.037,1174.984a.684.684,0,0,1-.547-.271,4.186,4.186,0,0,0-5.594-1.174.686.686,0,0,1-.717-1.17,5.5,5.5,0,0,1,7.4,1.515.686.686,0,0,1-.545,1.1Z" transform="translate(-2191.853 -1171.548)" fill="#494c7f"/>
              </g>
              <g id="Group_1388" data-name="Group 1388" transform="translate(7.251 12.099)">
                <path id="Path_890" data-name="Path 890" d="M2024.664,1174.984a.684.684,0,0,0,.547-.271,4.186,4.186,0,0,1,5.594-1.174.686.686,0,0,0,.717-1.17,5.5,5.5,0,0,0-7.4,1.515.686.686,0,0,0,.546,1.1Z" transform="translate(-2023.979 -1171.548)" fill="#494c7f"/>
              </g>
              <g id="Group_1389" data-name="Group 1389" transform="translate(26.341 17.636)">
                <path id="Path_891" data-name="Path 891" d="M2186.369,1220.761a6.6,6.6,0,0,1-3.819-1.23.961.961,0,0,1,1.153-1.537,4.5,4.5,0,0,0,5.614-.325.961.961,0,1,1,1.254,1.456A6.331,6.331,0,0,1,2186.369,1220.761Z" transform="translate(-2182.168 -1217.437)" fill="#494c7f"/>
              </g>
              <g id="Group_1390" data-name="Group 1390" transform="translate(8.215 17.777)">
                <path id="Path_892" data-name="Path 892" d="M2036.089,1221.777a6.609,6.609,0,0,1-3.765-1.386.961.961,0,0,1,1.215-1.488,4.5,4.5,0,0,0,5.623-.093.961.961,0,0,1,1.193,1.506A6.325,6.325,0,0,1,2036.089,1221.777Z" transform="translate(-2031.973 -1218.603)" fill="#494c7f"/>
              </g>
              <g id="Group_1391" data-name="Group 1391" transform="translate(15.64 31.879)">
                <path id="Path_893" data-name="Path 893" d="M2100.333,1339.523a12.236,12.236,0,0,1-2.135-.192,13.533,13.533,0,0,1-4.233-1.491.961.961,0,0,1,.987-1.649,11.827,11.827,0,0,0,3.643,1.26,8.72,8.72,0,0,0,7.226-1.781.961.961,0,1,1,1.2,1.5A10.5,10.5,0,0,1,2100.333,1339.523Z" transform="translate(-2093.498 -1335.457)" fill="#494c7f"/>
              </g>
            </g>
            <g id="Group_1393" data-name="Group 1393" transform="translate(0 105.792)">
              <path id="Path_894" data-name="Path 894" d="M1707.234,1335.45s-20.341,18.023-25.557,23.384c-9.8,10.073,3.65,24.412,13.145,12.948,9.515-11.488,15.619-27.407,17.877-32.2Z" transform="translate(-1678.26 -1335.45)" fill="#f37a50"/>
            </g>
            <g id="Group_1394" data-name="Group 1394" transform="translate(75.965 105.582)">
              <path id="Path_895" data-name="Path 895" d="M2313.226,1333.71s20.268,18.105,25.462,23.486c9.761,10.112-3.748,24.4-13.2,12.9-9.469-11.526-15.508-27.47-17.747-32.274Z" transform="translate(-2307.744 -1333.71)" fill="#f37a50"/>
            </g>
            <g id="Group_1395" data-name="Group 1395" transform="translate(27.993 87.73)">
              <path id="Path_896" data-name="Path 896" d="M1913.67,1209.073c6.979-1.288,6.74-5.426,6.7-7-.04-1.718.561-3.91,1.887-4.461,1.364-.566,2.755-.688,2.65-1.935-.146-1.738-4.667-1.234-5.667,1.992,0,0,.74-2.544,2.257-3.059,1.661-.564,2.894-.981,2.995-1.995a1.136,1.136,0,0,0-1.171-1.173c.671-.479,1.466-1.755.526-2.124a7.79,7.79,0,0,0-9.559,4.132c.542-5.486,5.337-4.666,5.847-6.294.306-.979-.9-1.378-1.74-1.375a7.348,7.348,0,0,0-6.416,4.013c-1.25,2.4-1.528,6.5.269,8.522,0,0-.387,4.953-2.027,6.828Z" transform="translate(-1910.222 -1185.781)" fill="#f37a50"/>
            </g>
            <g id="Group_1396" data-name="Group 1396" transform="translate(68.285 87.643)">
              <path id="Path_897" data-name="Path 897" d="M2255.356,1208.352c-6.979-1.288-6.74-5.426-6.7-7,.04-1.718-.561-3.91-1.887-4.461-1.364-.566-2.755-.689-2.65-1.935.146-1.739,4.667-1.234,5.667,1.992,0,0-.74-2.544-2.256-3.059-1.661-.564-2.894-.981-3-1.995a1.136,1.136,0,0,1,1.171-1.173c-.671-.479-1.466-1.755-.526-2.124a7.79,7.79,0,0,1,9.559,4.133c-.542-5.486-5.337-4.666-5.847-6.294-.306-.979.9-1.378,1.74-1.375a7.347,7.347,0,0,1,6.416,4.013c1.25,2.4,1.528,6.5-.269,8.522,0,0,.387,4.953,2.027,6.829Z" transform="translate(-2244.11 -1185.06)" fill="#f37a50"/>
            </g>
          </g>
        </g>
      </g>
    </g>
  </g>
  <ellipse id="Ellipse_101" data-name="Ellipse 101" cx="53.198" cy="52.714" rx="53.198" ry="52.714" transform="translate(295.972 187.642)" fill="#f5832f"/>
  <text id="share_your_bud" data-name="share
your bud" transform="translate(347.415 227.823)" fill="#fcfffa" font-size="21" font-family="SegoeUI, Segoe UI"><tspan x="-24.881" y="0">share</tspan><tspan x="-42" y="28">your bud</tspan></text>
  <ellipse id="Ellipse_102" data-name="Ellipse 102" cx="52.714" cy="53.198" rx="52.714" ry="53.198" transform="translate(0 186.675)" fill="#ffd855"/>
  <text id="Send_them_virtual_hugs" data-name="Send them
virtual
hugs" transform="translate(52.246 223.823)" fill="#292d32" font-size="16" font-family="SegoeUI, Segoe UI"><tspan x="-38.176" y="0">Send them</tspan><tspan x="-21.797" y="21">virtual</tspan><tspan x="-17.16" y="42">hugs</tspan></text>
</svg>
