<svg id="Group_2106" data-name="Group 2106" xmlns="http://www.w3.org/2000/svg" width="438.154" height="335.153" viewBox="0 0 438.154 335.153">
  <g id="_18733161_Business_team_climbing_giant_handshake_with_support_of_leader" data-name="18733161_Business team climbing giant handshake with support of leader" transform="translate(63.837 52.483)">
    <g id="Group_1311" data-name="Group 1311" transform="translate(0 0)">
      <g id="Group_1037" data-name="Group 1037">
        <path id="Path_573" data-name="Path 573" d="M415.044,122.929V252.1c0,21.694-20.579,34.86-42.245,37.505-5.954.725-11.946,1.225-18.282,1.524-26.722,1.28-64.049-1.477-66.5-1.477-45.166-2.511-32.637-3.109-131.818-.5-.245,0-13.2.376-22.948.454-23.329.183-42.245-16.791-42.245-37.505V122.929c0-20.712,18.954-38.722,42.245-37.5,21.629,1.132,53.443,5.61,86.605,2.867C259.3,85.031,334.169,82.259,372.8,85.426,396.032,87.329,415.044,102.217,415.044,122.929Z" transform="translate(-91.01 -84.031)" fill="#84d3ec"/>
      </g>
      <g id="Group_1038" data-name="Group 1038" transform="translate(89.906 59.763)">
        <path id="Path_574" data-name="Path 574" d="M814.366,563.324s4.767.661,5.941,3.251c.991,2.187-1.492,2.132-1.492,2.132l-4.147-.128-2.616-1.892Z" transform="translate(-812.052 -563.324)" fill="#ffb27d"/>
      </g>
      <g id="Group_1039" data-name="Group 1039" transform="translate(173.078 69.556)">
        <path id="Path_575" data-name="Path 575" d="M1481.72,641.865s-1,2.77,5.263,4.052,3.4,4.009,4.515,5.615c0,0,.559.712,2.865,1.159s2.959,6.122-4.459,4.716a17.04,17.04,0,0,1-10.721-6.437l-.105-3.73Z" transform="translate(-1479.078 -641.865)" fill="#331832"/>
      </g>
      <g id="Group_1040" data-name="Group 1040" transform="translate(137.207 79.297)">
        <path id="Path_576" data-name="Path 576" d="M1197.922,720.857s-3.755-1.7-5.789-.36c-1.717,1.131.107,2.226.107,2.226l3.062,1.8,2.76-.175Z" transform="translate(-1191.396 -719.983)" fill="#ffb27d"/>
      </g>
      <g id="Group_1042" data-name="Group 1042" transform="translate(142.48 78.556)">
        <g id="Group_1041" data-name="Group 1041">
          <path id="Path_577" data-name="Path 577" d="M1268.573,716.568c-5.115-4.592-15.019-1.575-21.736-1.294a90.691,90.691,0,0,1-11.989-.539s-2.137,3.232-.617,5.631a58.414,58.414,0,0,0,11.887,3.246c6.922,1.074,13.838.261,13.011-.121C1259.129,723.492,1270.232,718.057,1268.573,716.568Z" transform="translate(-1233.685 -714.042)" fill="#daebe8"/>
        </g>
      </g>
      <g id="Group_1043" data-name="Group 1043" transform="translate(163.91 78.661)">
        <path id="Path_578" data-name="Path 578" d="M1423.891,725.195c-.507-6.079-.006-7.526-5.875-9.5a37.962,37.962,0,0,0-5.312-.806c-4.832-.076-6.867,8.9-7.153,16.988.035,1.323.177,5.382.292,6.884a31.5,31.5,0,0,1,19.679,1.1C1425.524,739.614,1424.378,731.029,1423.891,725.195Z" transform="translate(-1405.551 -714.887)" fill="#daebe8"/>
      </g>
      <g id="Group_1044" data-name="Group 1044" transform="translate(164.195 101.073)">
        <path id="Path_579" data-name="Path 579" d="M1427.541,897.417c-.2,1.285-4.614,2.945-10.1,2.006s-9.791-2.052-9.594-3.337,4.763-1.717,10.308-1.317C1424.089,895.2,1427.738,896.132,1427.541,897.417Z" transform="translate(-1407.841 -894.625)" fill="#331832"/>
      </g>
      <g id="Group_1045" data-name="Group 1045" transform="translate(170.143 83.662)">
        <path id="Path_580" data-name="Path 580" d="M1456.142,755.287a.306.306,0,0,0-.323-.291.311.311,0,0,0-.28.336.306.306,0,0,0,.323.291A.311.311,0,0,0,1456.142,755.287Z" transform="translate(-1455.538 -754.996)" fill="#6da49a"/>
      </g>
      <g id="Group_1046" data-name="Group 1046" transform="translate(169.82 95.625)">
        <path id="Path_581" data-name="Path 581" d="M1453.552,851.228a.306.306,0,0,0-.323-.291.311.311,0,0,0-.28.336.306.306,0,0,0,.323.291A.31.31,0,0,0,1453.552,851.228Z" transform="translate(-1452.948 -850.936)" fill="#6da49a"/>
      </g>
      <g id="Group_1047" data-name="Group 1047" transform="translate(169.25 89.26)">
        <path id="Path_582" data-name="Path 582" d="M1448.982,800.184a.306.306,0,0,0-.323-.291.311.311,0,0,0-.28.336.306.306,0,0,0,.323.291A.311.311,0,0,0,1448.982,800.184Z" transform="translate(-1448.378 -799.893)" fill="#6da49a"/>
      </g>
      <g id="Group_1048" data-name="Group 1048" transform="translate(164.355 85.205)">
        <path id="Path_583" data-name="Path 583" d="M1409.386,770.869l-.013,0a.047.047,0,0,1-.031-.058,4.692,4.692,0,0,0-.217-3.373.045.045,0,0,1,.017-.063.046.046,0,0,1,.062.017,4.786,4.786,0,0,1,.226,3.446A.048.048,0,0,1,1409.386,770.869Z" transform="translate(-1409.119 -767.368)" fill="#331832"/>
      </g>
      <g id="Group_1050" data-name="Group 1050" transform="translate(157.947 137.549)">
        <g id="Group_1049" data-name="Group 1049">
          <path id="Path_584" data-name="Path 584" d="M1362.152,1187.179s.029,2.425-1.24,2.19c-1.411-.261-4.141.095-2.831,1.185.751.625,2.9.933,3.867,1.167,1.432.345,2.851.757,3.588.117.811-.705-.082-4.672-.082-4.672a4.113,4.113,0,0,1-1.63.416A3.277,3.277,0,0,1,1362.152,1187.179Z" transform="translate(-1357.735 -1187.166)" fill="#331832"/>
        </g>
      </g>
      <g id="Group_1052" data-name="Group 1052" transform="translate(154.342 101.99)">
        <g id="Group_1051" data-name="Group 1051">
          <path id="Path_585" data-name="Path 585" d="M1339.321,902.982s-8.126,4.677-10.153,11.933c-1.982,7.1,4.983,21.764,6.128,23.212s6.233,2.372,6.655-.586c.619-4.335-3.34-17.781-2.288-19.484,1.876-3.039,17.348-8.592,17.176-8.12,0,0-1.015-6.225-4.445-7.2A24.885,24.885,0,0,0,1339.321,902.982Z" transform="translate(-1328.816 -901.981)" fill="#6da49a"/>
        </g>
      </g>
      <g id="Group_1054" data-name="Group 1054" transform="translate(180.346 144.299)">
        <g id="Group_1053" data-name="Group 1053">
          <path id="Path_586" data-name="Path 586" d="M1542.677,1241.3s-.231,1.687-1.481,2.019-4.764.339-3.589,1.586c.675.715,4.223.74,5.212.86s1.872.647,2.677.1c.886-.6.46-4.167.46-4.167a4.084,4.084,0,0,1-1.666.208A3.3,3.3,0,0,1,1542.677,1241.3Z" transform="translate(-1537.371 -1241.3)" fill="#331832"/>
        </g>
      </g>
      <g id="Group_1056" data-name="Group 1056" transform="translate(168.003 102.183)">
        <g id="Group_1055" data-name="Group 1055">
          <path id="Path_587" data-name="Path 587" d="M1438.492,905.886c10.885,28.162,15.606,38.662,17,41.041.9,1.538,6.733.45,6.263-2.733-.678-4.589-6.109-32.111-8.588-37.871C1452.056,903.744,1436.915,901.8,1438.492,905.886Z" transform="translate(-1438.377 -903.531)" fill="#6da49a"/>
        </g>
      </g>
      <g id="Group_1057" data-name="Group 1057" transform="translate(169.526 110.044)">
        <path id="Path_588" data-name="Path 588" d="M1452.956,970.827a.081.081,0,0,1-.078-.061c-.824-3.151-2.23-4.034-2.244-4.042a.081.081,0,0,1-.027-.111.08.08,0,0,1,.11-.028c.06.036,1.475.918,2.317,4.142a.079.079,0,0,1-.057.1C1452.969,970.824,1452.962,970.827,1452.956,970.827Z" transform="translate(-1450.595 -966.573)" fill="#331832"/>
      </g>
      <g id="Group_1058" data-name="Group 1058" transform="translate(246.022 108.38)">
        <path id="Path_589" data-name="Path 589" d="M2070.612,954.1s-3.755-1.7-5.789-.36c-1.717,1.131.106,2.226.106,2.226l3.063,1.8,2.76-.175Z" transform="translate(-2064.086 -953.228)" fill="#ffb27d"/>
      </g>
      <g id="Group_1059" data-name="Group 1059" transform="translate(192.946 95.884)">
        <path id="Path_590" data-name="Path 590" d="M1644.941,853.887s-3.755-1.7-5.789-.36c-1.717,1.131.107,2.226.107,2.226l3.062,1.8,2.76-.175Z" transform="translate(-1638.416 -853.013)" fill="#ffb27d"/>
      </g>
      <g id="Group_1091" data-name="Group 1091" transform="translate(0.001 73.126)">
        <g id="Group_1060" data-name="Group 1060" transform="translate(98.634 47.103)">
          <path id="Path_591" data-name="Path 591" d="M927.235,1062.306s-2.724-7.47-9.893-10.054-19.021-3.944-22.631-4-12.658,7.026-12.658,7.026Z" transform="translate(-882.053 -1048.254)" fill="#ffbd8f"/>
        </g>
        <g id="Group_1061" data-name="Group 1061" transform="translate(29.965 33.021)">
          <path id="Path_592" data-name="Path 592" d="M402.967,1000.405a72.943,72.943,0,0,1-12.2-11.3c-3.048-3.584-15.847-4.346-17.029-5.833-2.905-3.656-25-9.584-27.635-12-3.59-3.284-14.778-9.023-14.778-9.023l27.108-26.934s18.032,11.4,25.7,16.249c2.8,1.771,5.857,4.491,11.072,4.555,7.271.088,14.785,5.453,22.112,9.771a108.705,108.705,0,0,1,11.752,8.084c2.192,1.947,11.967,6.008,10.565,9.459-2.478,6.1-10.146-.313-14.912-1.6S402.967,1000.405,402.967,1000.405Z" transform="translate(-331.329 -935.318)" fill="#f9a672"/>
        </g>
        <g id="Group_1063" data-name="Group 1063" transform="translate(77.053 58.789)">
          <g id="Group_1062" data-name="Group 1062">
            <path id="Path_593" data-name="Path 593" d="M709.454,1142a.32.32,0,0,0-.2.224,13.152,13.152,0,0,0,0,5.485,14.027,14.027,0,0,0,2.1,5.058,17.214,17.214,0,0,0,5.336,5.006.311.311,0,0,0,.443-.118.362.362,0,0,0-.127-.472,16.519,16.519,0,0,1-5.123-4.8,13.3,13.3,0,0,1-1.995-4.8,12.619,12.619,0,0,1-.01-5.16.36.36,0,0,0-.228-.431A.3.3,0,0,0,709.454,1142Z" transform="translate(-708.972 -1141.98)" fill="#f09268"/>
          </g>
        </g>
        <g id="Group_1064" data-name="Group 1064" transform="translate(130.905 59.512)">
          <path id="Path_594" data-name="Path 594" d="M1146.634,1151.812a.264.264,0,0,1-.036,0c-.859-.121-5.167-.78-5.584-1.919a2.2,2.2,0,0,1,.181-2.009.257.257,0,0,1,.365-.055.26.26,0,0,1,.055.363,1.684,1.684,0,0,0-.111,1.521c.228.621,3.159,1.3,5.168,1.581a.261.261,0,0,1-.036.519Z" transform="translate(-1140.858 -1147.775)" fill="#f59a6d"/>
        </g>
        <g id="Group_1065" data-name="Group 1065">
          <path id="Path_595" data-name="Path 595" d="M170.1,711.346c-3.562,9.3-10.569,22.792-17.719,31.118-3.455,4.029-7.984,8.161-13.072,9.6l-48.3-19.356V670.493Z" transform="translate(-91.015 -670.493)" fill="#366f90"/>
        </g>
        <g id="Group_1066" data-name="Group 1066" transform="translate(114.747 50.603)">
          <path id="Path_596" data-name="Path 596" d="M1088.622,1105.777l-9.01,34.05s-14.735-5.128-26.951-8.936q-1.126-.35-2.219-.685c-.9-.275-1.776-.54-2.626-.792-5.245-1.558-9.419-2.631-10.751-2.56-.036,0-.071,0-.106.007-1.583.133-25.684-6.516-25.684-6.516s7.469-28.652,6.557-33.09c-1.675-8.166-3.258-11.951.517-10.69,8.051,2.69,16.97,4.815,21.995,10.314,1.091,1.193,5.947,3.4,12.187,5.888C1066.905,1098.505,1088.622,1105.777,1088.622,1105.777Z" transform="translate(-1011.276 -1076.328)" fill="#ffbd8f"/>
        </g>
        <g id="Group_1067" data-name="Group 1067" transform="translate(153.649 67.042)">
          <path id="Path_597" data-name="Path 597" d="M1489.863,1251.111c-6.692,12.326-21.5,20.392-38.454,22.462-5.954.725-11.946,1.225-18.283,1.524-26.722,1.28-64.049-1.477-66.5-1.477l-41.007-14.293c-3.847-14.56-2.343-37.512,0-51.161C1420.336,1232.937,1373.379,1220.652,1489.863,1251.111Z" transform="translate(-1323.269 -1208.166)" fill="#366f90"/>
        </g>
        <g id="Group_1068" data-name="Group 1068" transform="translate(68.395 58.789)">
          <path id="Path_598" data-name="Path 598" d="M682.017,1141.98a10.674,10.674,0,0,1-10.749,6.383c-6.756-.4-27.311,7.449-31.559,13.806-.876,1.31,1.909,4.1,2.758,4.475,4.58,2,19.635-6.361,19.635-6.361s-15.923,5.26-15.87,9.716c.02,1.689,1.568,5.242,4,5.145,6.156-.245,16.874-4.555,16.874-4.555s-13.658,3.885-10.981,8.4a6.173,6.173,0,0,0,4.374,2.554c5.333.052,13.633-3.467,13.633-3.467s-1.546-.34-1.384,3.218c.192,4.216-1.435,1.851,12.533-.994,6.943-1.414,22.121,2.758,24.632.248C717.475,1172.994,682.017,1141.98,682.017,1141.98Z" transform="translate(-639.54 -1141.98)" fill="#ffbd8f"/>
        </g>
        <g id="Group_1081" data-name="Group 1081" transform="translate(95.669 86.004)">
          <g id="Group_1069" data-name="Group 1069" transform="translate(7.944)">
            <path id="Path_599" data-name="Path 599" d="M923.915,1374.508l-1.605-8.413a4.192,4.192,0,0,1,2.655-5.563h0a4.819,4.819,0,0,1,6.056,2.445l2.434,5.731c1.595,3.919,1.922,7.176-1.952,8.56C926.033,1379.223,924.823,1376.646,923.915,1374.508Z" transform="translate(-921.988 -1360.238)" fill="#f9a672"/>
          </g>
          <g id="Group_1070" data-name="Group 1070" transform="translate(10.278 1.654)">
            <path id="Path_600" data-name="Path 600" d="M942.46,1379.374c-.677,0-1.133-.205-1.31-.6a10.512,10.512,0,0,1-.431-3.784.832.832,0,0,1,.358-.613,6.008,6.008,0,0,1,3.752-.825c1.337.253,2.082,2.35,1.989,3.626-.07.971-2.149,1.87-3.558,2.118A4.65,4.65,0,0,1,942.46,1379.374Zm1.778-5.3a5.6,5.6,0,0,0-2.8.748c-.108.088-.148.159-.149.191v.01a10.244,10.244,0,0,0,.381,3.525c.117.259.7.336,1.5.2,1.524-.27,3.06-1.145,3.093-1.6.077-1.067-.577-2.849-1.531-3.03A2.575,2.575,0,0,0,944.239,1374.069ZM941,1375h0Z" transform="translate(-940.703 -1373.506)" fill="#f59a6d"/>
          </g>
          <g id="Group_1071" data-name="Group 1071" transform="translate(0.486 2.085)">
            <path id="Path_601" data-name="Path 601" d="M862.32,1388.492l-.064-7.182a3.627,3.627,0,0,1,3.042-4.276h0a3.944,3.944,0,0,1,4.655,2.8l1.156,5.063c.732,3.453.512,6.2-2.91,6.85C863.366,1392.671,862.751,1390.381,862.32,1388.492Z" transform="translate(-862.172 -1376.958)" fill="#f9a672"/>
          </g>
          <g id="Group_1072" data-name="Group 1072" transform="translate(2.318 3.558)">
            <path id="Path_602" data-name="Path 602" d="M878.559,1393.6h-.012c-1.164,0-1.508-.406-1.593-.743a8.87,8.87,0,0,1,.213-3.214.77.77,0,0,1,.414-.492,5.173,5.173,0,0,1,3.264-.205c1.1.389,1.412,2.256,1.138,3.321C881.773,1393.082,879.82,1393.6,878.559,1393.6Zm-1.116-3.894.275.066a8.566,8.566,0,0,0-.215,2.948c.039.154.377.312,1.046.313h.013c1.363,0,2.785-.564,2.873-.907.216-.839-.052-2.39-.778-2.647a4.675,4.675,0,0,0-2.779.154c-.139.075-.157.128-.157.128Zm0,0h0Z" transform="translate(-876.865 -1388.773)" fill="#f59a6d"/>
          </g>
          <g id="Group_1073" data-name="Group 1073" transform="translate(7.609 2.717)">
            <path id="Path_603" data-name="Path 603" d="M920.452,1388.059a.282.282,0,0,1-.265-.186c-.062-.169-1.507-4.145-.578-5.7a.282.282,0,1,1,.486.288c-.657,1.1.227,4.143.622,5.221a.282.282,0,0,1-.167.363A.278.278,0,0,1,920.452,1388.059Z" transform="translate(-919.298 -1382.03)" fill="#f59a6d"/>
          </g>
          <g id="Group_1074" data-name="Group 1074" transform="translate(18.902 2.348)">
            <path id="Path_604" data-name="Path 604" d="M1011.8,1393.338l-1.606-8.413a4.192,4.192,0,0,1,2.656-5.563h0a4.819,4.819,0,0,1,6.056,2.445l2.434,5.731c1.595,3.919,1.922,7.176-1.952,8.56C1013.914,1398.052,1012.7,1395.476,1011.8,1393.338Z" transform="translate(-1009.869 -1379.068)" fill="#f9a672"/>
          </g>
          <g id="Group_1075" data-name="Group 1075" transform="translate(21.236 4.003)">
            <path id="Path_605" data-name="Path 605" d="M1030.341,1398.209c-.677,0-1.132-.206-1.309-.6a10.519,10.519,0,0,1-.431-3.784.831.831,0,0,1,.358-.613,5.981,5.981,0,0,1,3.752-.825c1.378.26,2.071,2.494,1.988,3.625-.07.973-2.148,1.871-3.558,2.119A4.628,4.628,0,0,1,1030.341,1398.209Zm1.778-5.306a5.6,5.6,0,0,0-2.8.748c-.109.088-.148.159-.149.191v.01a10.243,10.243,0,0,0,.381,3.525c.118.26.7.338,1.495.2,1.525-.27,3.06-1.145,3.093-1.6.078-1.069-.576-2.849-1.529-3.028A2.694,2.694,0,0,0,1032.119,1392.9Zm-3.236.933h0Z" transform="translate(-1028.584 -1392.34)" fill="#f59a6d"/>
          </g>
          <g id="Group_1076" data-name="Group 1076" transform="translate(18.566 5.063)">
            <path id="Path_606" data-name="Path 606" d="M1008.33,1406.874a.283.283,0,0,1-.265-.186c-.062-.169-1.507-4.143-.578-5.7a.282.282,0,1,1,.486.288c-.658,1.105.226,4.143.622,5.221a.282.282,0,0,1-.167.363A.279.279,0,0,1,1008.33,1406.874Z" transform="translate(-1007.177 -1400.845)" fill="#f59a6d"/>
          </g>
          <g id="Group_1077" data-name="Group 1077" transform="translate(28.159 1.617)">
            <path id="Path_607" data-name="Path 607" d="M1086.036,1387.478l-1.605-8.413a4.192,4.192,0,0,1,2.655-5.563h0a4.82,4.82,0,0,1,6.056,2.445l2.434,5.732c1.595,3.919,1.922,7.176-1.952,8.56C1088.154,1392.193,1086.945,1389.617,1086.036,1387.478Z" transform="translate(-1084.109 -1373.208)" fill="#f9a672"/>
          </g>
          <g id="Group_1078" data-name="Group 1078" transform="translate(30.492 3.272)">
            <path id="Path_608" data-name="Path 608" d="M1104.578,1392.351c-.678,0-1.133-.206-1.31-.6a10.5,10.5,0,0,1-.432-3.784.832.832,0,0,1,.358-.613,6.014,6.014,0,0,1,3.752-.825c1.337.254,2.083,2.35,1.989,3.627-.071.973-2.151,1.869-3.56,2.118A4.729,4.729,0,0,1,1104.578,1392.351Zm1.778-5.306a5.6,5.6,0,0,0-2.805.748c-.109.088-.148.159-.149.191v.01a10.239,10.239,0,0,0,.382,3.525c.118.259.7.338,1.493.2,1.526-.268,3.061-1.145,3.1-1.6.077-1.068-.577-2.849-1.531-3.03A2.714,2.714,0,0,0,1106.357,1387.045Zm-3.237.933h0Z" transform="translate(-1102.82 -1386.482)" fill="#f59a6d"/>
          </g>
          <g id="Group_1079" data-name="Group 1079" transform="translate(27.824 4.335)">
            <path id="Path_609" data-name="Path 609" d="M1082.573,1401.034a.283.283,0,0,1-.265-.186c-.062-.169-1.507-4.145-.577-5.7a.282.282,0,1,1,.485.288c-.658,1.105.226,4.143.621,5.221a.282.282,0,0,1-.167.363A.318.318,0,0,1,1082.573,1401.034Z" transform="translate(-1081.42 -1395.004)" fill="#f59a6d"/>
          </g>
          <g id="Group_1080" data-name="Group 1080" transform="translate(0 2.565)">
            <path id="Path_610" data-name="Path 610" d="M859.061,1392.771a.283.283,0,0,1-.281-.252c-.034-.3-.812-7.294-.369-9.084a4.12,4.12,0,0,1,1.722-2.589.283.283,0,0,1,.279.492,3.637,3.637,0,0,0-1.453,2.233c-.418,1.694.375,8.814.382,8.885a.284.284,0,0,1-.249.313Z" transform="translate(-858.275 -1380.81)" fill="#f59a6d"/>
          </g>
        </g>
        <g id="Group_1082" data-name="Group 1082" transform="translate(78.389 46.499)">
          <path id="Path_611" data-name="Path 611" d="M719.686,1043.41s18.2,5.359,24.667,4.6c7.258-.85,15.5-2.456,19.346,3.832s5.468,9.278,6.325,11.793-3.48,16.246-8.344,12.52c-4.634-3.55-1.346-9.881-2.209-11.458-3.426-6.256-10.959-4.5-10.959-4.5l-17.852-5.282-7.266-5.31Z" transform="translate(-719.686 -1043.41)" fill="#f9a672"/>
        </g>
        <g id="Group_1083" data-name="Group 1083" transform="translate(120.194 71.676)">
          <path id="Path_612" data-name="Path 612" d="M1057.648,1250.456a3.381,3.381,0,0,1-2.282-.625c-.73-.731-.344-2.448.108-3.761a1.091,1.091,0,0,1,1.235-.726h0l3.078.547a1.328,1.328,0,0,1,1.043,1.677,15.454,15.454,0,0,0-.537,2.08c-.016.277-.3.416-.514.5A6.791,6.791,0,0,1,1057.648,1250.456Zm-1.132-4.562a.537.537,0,0,0-.507.363c-.548,1.591-.639,2.778-.242,3.175a2.9,2.9,0,0,0,1.889.456h0a5.063,5.063,0,0,0,2.077-.343,20.688,20.688,0,0,1,.551-2.135.759.759,0,0,0-.6-.961l-3.078-.547A.669.669,0,0,0,1056.516,1245.894Zm3.212,3.722Z" transform="translate(-1054.958 -1245.326)" fill="#f59a6d"/>
        </g>
        <g id="Group_1084" data-name="Group 1084" transform="translate(0 29.89)">
          <path id="Path_613" data-name="Path 613" d="M152.383,952.287c-3.455,4.029-7.984,8.161-13.072,9.6l-48.3-19.355V910.206c4.912,5.19,13.554,15.1,17.438,24.324C114.665,949.282,149.953,938.075,152.383,952.287Z" transform="translate(-91.015 -910.206)" fill="#26617d"/>
        </g>
        <g id="Group_1086" data-name="Group 1086" transform="translate(78.058 79.535)">
          <g id="Group_1085" data-name="Group 1085">
            <path id="Path_614" data-name="Path 614" d="M717.456,1311.8a87.367,87.367,0,0,1,9.162-2.759c.437-.106.252-.78-.186-.674a87.419,87.419,0,0,0-9.162,2.758c-.42.151-.239.827.186.674Z" transform="translate(-717.032 -1308.354)" fill="#f9a672"/>
          </g>
        </g>
        <g id="Group_1088" data-name="Group 1088" transform="translate(90.36 87.912)">
          <g id="Group_1087" data-name="Group 1087">
            <path id="Path_615" data-name="Path 615" d="M816.229,1377.383a16.856,16.856,0,0,1,4.2-1.166c.443-.064.255-.738-.186-.674a17.466,17.466,0,0,0-4.364,1.237c-.412.176-.057.778.353.6Z" transform="translate(-815.693 -1375.538)" fill="#f9a672"/>
          </g>
        </g>
        <g id="Group_1090" data-name="Group 1090" transform="translate(143.26 61.01)">
          <g id="Group_1089" data-name="Group 1089">
            <path id="Path_616" data-name="Path 616" d="M1239.96,1160.223a19.1,19.1,0,0,1,.242,8.765c-.089.439.584.627.674.186a19.964,19.964,0,0,0-.242-9.136.35.35,0,0,0-.674.186Z" transform="translate(-1239.947 -1159.789)" fill="#f9a672"/>
          </g>
        </g>
      </g>
      <g id="Group_1138" data-name="Group 1138" transform="translate(251.296 93.72)">
        <g id="Group_1093" data-name="Group 1093" transform="translate(0 13.919)">
          <g id="Group_1092" data-name="Group 1092">
            <path id="Path_617" data-name="Path 617" d="M2141.273,949.813c-5.115-4.591-15.019-1.575-21.736-1.294a90.681,90.681,0,0,1-11.989-.539s-2.137,3.232-.617,5.631a58.415,58.415,0,0,0,11.887,3.246c6.921,1.074,13.837.261,13.011-.121C2131.829,956.736,2142.931,951.3,2141.273,949.813Z" transform="translate(-2106.385 -947.287)" fill="#68a1bf"/>
          </g>
        </g>
        <g id="Group_1094" data-name="Group 1094" transform="translate(21.43 14.025)">
          <path id="Path_618" data-name="Path 618" d="M2296.592,958.44c-.507-6.079-.006-7.526-5.875-9.5a37.965,37.965,0,0,0-5.312-.806c-4.832-.076-6.867,8.9-7.153,16.988.035,1.323.178,5.382.292,6.884a31.5,31.5,0,0,1,19.679,1.1C2298.224,972.859,2297.078,964.274,2296.592,958.44Z" transform="translate(-2278.251 -948.132)" fill="#68a1bf"/>
        </g>
        <g id="Group_1095" data-name="Group 1095" transform="translate(21.716 36.436)">
          <path id="Path_619" data-name="Path 619" d="M2300.241,1130.66c-.2,1.285-4.614,2.946-10.1,2.006s-9.791-2.052-9.593-3.337,4.763-1.717,10.308-1.317C2296.789,1128.441,2300.438,1129.376,2300.241,1130.66Z" transform="translate(-2280.542 -1127.868)" fill="#331832"/>
        </g>
        <g id="Group_1096" data-name="Group 1096" transform="translate(27.169)">
          <path id="Path_620" data-name="Path 620" d="M2324.287,838.679s-.267-2.792,2.111-3.006,1.817,1.644,2.241,2.127-.686,1.872-1.831,2.042S2324.287,838.679,2324.287,838.679Z" transform="translate(-2324.278 -835.656)" fill="#331832"/>
        </g>
        <g id="Group_1097" data-name="Group 1097" transform="translate(28.427 6.611)">
          <path id="Path_621" data-name="Path 621" d="M2338.918,896.477a3.88,3.88,0,0,1-3.17,1.7c-2.02.15-1.225-2.082-1.225-2.082a.762.762,0,0,0,.755-.847l.007-.635,0-.315.012-1.006.01-.9.042-3.706,1.185,3.683.2.626.694,2.159a1.955,1.955,0,0,0,1.473,1.329Z" transform="translate(-2334.369 -888.679)" fill="#ffb27d"/>
        </g>
        <g id="Group_1098" data-name="Group 1098" transform="translate(29.348 10.92)">
          <path id="Path_622" data-name="Path 622" d="M2343.2,923.232s-.523,1.133-1.451,1.308l.012-1.006C2342.339,923.37,2343.2,923.232,2343.2,923.232Z" transform="translate(-2341.752 -923.232)" fill="#331832"/>
        </g>
        <g id="Group_1100" data-name="Group 1100" transform="translate(31.256 7.102)">
          <g id="Group_1099" data-name="Group 1099">
            <path id="Path_623" data-name="Path 623" d="M2359.771,892.617a4.268,4.268,0,0,0-.258,1.842c.033,1.89-2.087,2.1-2.456,1.458-.046-.079.788-3.05.788-3.05l.714-.213Z" transform="translate(-2357.055 -892.617)" fill="#331832"/>
          </g>
        </g>
        <g id="Group_1101" data-name="Group 1101" transform="translate(25.473 2.261)">
          <ellipse id="Ellipse_108" data-name="Ellipse 108" cx="4.276" cy="3.35" rx="4.276" ry="3.35" transform="translate(0 8.358) rotate(-77.755)" fill="#ffb27d"/>
        </g>
        <g id="Group_1102" data-name="Group 1102" transform="translate(26.47 2.244)">
          <path id="Path_624" data-name="Path 624" d="M2321.357,855.032c.058.152-.987,2.146,2.687,3.693s2.594-3.87-.184-4.744c-4.011-1.263-5.311,1.407-5.178,2.531S2321.357,855.032,2321.357,855.032Z" transform="translate(-2318.673 -853.65)" fill="#331832"/>
        </g>
        <g id="Group_1103" data-name="Group 1103" transform="translate(31.592 6.526)">
          <path id="Path_625" data-name="Path 625" d="M2359.75,887.993s1.126,2.127.15,3.719c0,0,1.158-.777,1.274-1.154a15.8,15.8,0,0,0,.223-1.821Z" transform="translate(-2359.75 -887.993)" fill="#331832"/>
        </g>
        <g id="Group_1104" data-name="Group 1104" transform="translate(31.048 6.99)">
          <path id="Path_626" data-name="Path 626" d="M2356.621,893.274a.8.8,0,0,1-1.165-.229.969.969,0,0,1,.492-1.183.8.8,0,0,1,1.165.229A.969.969,0,0,1,2356.621,893.274Z" transform="translate(-2355.39 -891.716)" fill="#ffb27d"/>
        </g>
        <g id="Group_1106" data-name="Group 1106" transform="translate(29.274 6.952)">
          <g id="Group_1105" data-name="Group 1105">
            <path id="Path_627" data-name="Path 627" d="M2341.2,891.574a.081.081,0,0,1-.038-.059.079.079,0,0,1,.066-.088.813.813,0,0,1,.9.481.077.077,0,1,1-.133.076,1.283,1.283,0,0,0-.744-.4A.074.074,0,0,1,2341.2,891.574Z" transform="translate(-2341.163 -891.413)" fill="#080435"/>
          </g>
        </g>
        <g id="Group_1107" data-name="Group 1107" transform="translate(29.207 7.719)">
          <path id="Path_628" data-name="Path 628" d="M2341.1,897.953c-.041.184-.177.308-.305.278s-.2-.2-.159-.388.177-.308.305-.278S2341.138,897.769,2341.1,897.953Z" transform="translate(-2340.622 -897.56)" fill="#080435"/>
        </g>
        <g id="Group_1109" data-name="Group 1109" transform="translate(26.521 6.509)">
          <g id="Group_1108" data-name="Group 1108">
            <path id="Path_629" data-name="Path 629" d="M2319.145,888.146a.076.076,0,0,1-.057-.04.081.081,0,0,1,.028-.108.8.8,0,0,1,1,.089.078.078,0,0,1-.1.123,1.254,1.254,0,0,0-.834-.075A.074.074,0,0,1,2319.145,888.146Z" transform="translate(-2319.079 -887.861)" fill="#080435"/>
          </g>
        </g>
        <g id="Group_1110" data-name="Group 1110" transform="translate(26.819 7.273)">
          <path id="Path_630" data-name="Path 630" d="M2321.946,894.283c.03.186-.051.355-.18.378s-.26-.11-.29-.3.051-.355.18-.378S2321.915,894.1,2321.946,894.283Z" transform="translate(-2321.469 -893.985)" fill="#080435"/>
        </g>
        <g id="Group_1111" data-name="Group 1111" transform="translate(28.554 5.843)" opacity="0.3">
          <path id="Path_631" data-name="Path 631" d="M2338.006,884.108a2.271,2.271,0,0,1-1.221,2.3c-.723.207-1.348-.488-1.4-1.552a2.271,2.271,0,0,1,1.221-2.3C2337.333,882.349,2337.958,883.044,2338.006,884.108Z" transform="translate(-2335.386 -882.519)" fill="#fff"/>
        </g>
        <g id="Group_1112" data-name="Group 1112" transform="translate(25.093 5.292)" opacity="0.3">
          <ellipse id="Ellipse_109" data-name="Ellipse 109" cx="1.946" cy="1.123" rx="1.946" ry="1.123" transform="translate(0 3.788) rotate(-76.745)" fill="#fff"/>
        </g>
        <g id="Group_1114" data-name="Group 1114" transform="translate(28.35 5.56)">
          <g id="Group_1113" data-name="Group 1113">
            <path id="Path_632" data-name="Path 632" d="M2336.663,881.971c0-.083-.011-.162-.022-.242a1.857,1.857,0,0,0-.646-1.266,1,1,0,0,0-.9-.177,1.273,1.273,0,0,0-.193.073,2.251,2.251,0,0,0-1.07,1.554h0a2.15,2.15,0,0,0-.046.242h0a2.983,2.983,0,0,0-.029.594,2.936,2.936,0,0,0,.082.548,1.718,1.718,0,0,0,.585.96,1.113,1.113,0,0,0,.357.18c.037.01.075.018.113.025a1.024,1.024,0,0,0,.435-.028,1.246,1.246,0,0,0,.428-.215l.007-.006a2.341,2.341,0,0,0,.769-1.182h0s0,0,0,0c.017-.05.031-.1.045-.156a2.877,2.877,0,0,0,.065-.335,2.966,2.966,0,0,0,.027-.421C2336.666,882.069,2336.665,882.02,2336.663,881.971Zm-2.464,1.858a1.9,1.9,0,0,1-.242-.566,2.546,2.546,0,0,1-.08-.52,3.024,3.024,0,0,1,.023-.538h0a2.445,2.445,0,0,1,.045-.245v0a2.08,2.08,0,0,1,1.032-1.49h0a.935.935,0,0,1,.525-.078.924.924,0,0,1,.417.182,1.415,1.415,0,0,1,.429.574,1.879,1.879,0,0,1,.1.286s0,.007,0,.011l0,.012a.02.02,0,0,0,0,.01.024.024,0,0,0,0,.008.012.012,0,0,1,0,.01,1.646,1.646,0,0,1,.038.174h0a2.468,2.468,0,0,1,.037.322,2.752,2.752,0,0,1,0,.356v0c-.005.08-.015.158-.028.236s-.029.163-.048.243h0a2.308,2.308,0,0,1-.721,1.249l-.026.021a1.179,1.179,0,0,1-.419.219.914.914,0,0,1-.491,0l-.022-.007a.913.913,0,0,1-.283-.151,1.248,1.248,0,0,1-.291-.317A.009.009,0,0,0,2334.2,883.829Z" transform="translate(-2333.748 -880.246)" fill="#68a1bf"/>
          </g>
        </g>
        <g id="Group_1116" data-name="Group 1116" transform="translate(25.318 5.304)">
          <g id="Group_1115" data-name="Group 1115">
            <path id="Path_633" data-name="Path 633" d="M2311.85,880.327l-.009,0-.008,0a3.363,3.363,0,0,1-.191.822l.029-.07s0-.01.006-.014h0l.029-.073c0-.01.007-.021.01-.031s.007-.02.011-.029c.015-.042.031-.085.043-.129h0c.01-.031.018-.061.027-.092a.08.08,0,0,1,0-.017s0,0,0-.006,0,0,0-.005,0,0,0,0,.007-.025.011-.039,0-.014,0-.021c.008-.031.016-.061.021-.094a.411.411,0,0,0,.01-.045s0-.01,0-.014c.008-.043.017-.087.024-.131,0-.007,0-.013,0-.02Zm0,0-.009,0-.008,0a3.363,3.363,0,0,1-.191.822l.029-.07s0-.01.006-.014h0l.029-.073c0-.01.007-.021.01-.031s.007-.02.011-.029c.015-.042.031-.085.043-.129h0c.01-.031.018-.061.027-.092a.08.08,0,0,1,0-.017s0,0,0-.006,0,0,0-.005,0,0,0,0,.007-.025.011-.039,0-.014,0-.021c.008-.031.016-.061.021-.094a.411.411,0,0,0,.01-.045s0-.01,0-.014c.008-.043.017-.087.024-.131,0-.007,0-.013,0-.02Zm0,0-.009,0-.008,0a3.363,3.363,0,0,1-.191.822l.029-.07s0-.01.006-.014h0l.029-.073c0-.01.007-.021.01-.031s.007-.02.011-.029c.015-.042.031-.085.043-.129h0c.01-.031.018-.061.027-.092a.08.08,0,0,1,0-.017s0,0,0-.006,0,0,0-.005,0,0,0,0,.007-.025.011-.039,0-.014,0-.021c.008-.031.016-.061.021-.094a.411.411,0,0,0,.01-.045s0-.01,0-.014c.008-.043.017-.087.024-.131,0-.007,0-.013,0-.02Zm0,0-.009,0-.008,0a3.363,3.363,0,0,1-.191.822l.029-.07s0-.01.006-.014h0l.029-.073c0-.01.007-.021.01-.031s.007-.02.011-.029c.015-.042.031-.085.043-.129h0c.01-.031.018-.061.027-.092a.08.08,0,0,1,0-.017s0,0,0-.006,0,0,0-.005,0,0,0,0,.007-.025.011-.039,0-.014,0-.021c.008-.031.016-.061.021-.094a.411.411,0,0,0,.01-.045s0-.01,0-.014c.008-.043.017-.087.024-.131,0-.007,0-.013,0-.02Zm0,0-.009,0-.008,0a3.363,3.363,0,0,1-.191.822l.029-.07s0-.01.006-.014h0l.029-.073c0-.01.007-.021.01-.031s.007-.02.011-.029c.015-.042.031-.085.043-.129h0c.01-.031.018-.061.027-.092a.08.08,0,0,1,0-.017s0,0,0-.006,0,0,0-.005,0,0,0,0,.007-.025.011-.039,0-.014,0-.021c.008-.031.016-.061.021-.094a.411.411,0,0,0,.01-.045s0-.01,0-.014c.008-.043.017-.087.024-.131,0-.007,0-.013,0-.02Zm0,0-.009,0-.008,0a3.363,3.363,0,0,1-.191.822l.029-.07s0-.01.006-.014h0l.029-.073c0-.01.007-.021.01-.031s.007-.02.011-.029c.015-.042.031-.085.043-.129h0c.01-.031.018-.061.027-.092a.08.08,0,0,1,0-.017s0,0,0-.006,0,0,0-.005,0,0,0,0,.007-.025.011-.039,0-.014,0-.021c.008-.031.016-.061.021-.094a.411.411,0,0,0,.01-.045s0-.01,0-.014c.008-.043.017-.087.024-.131,0-.007,0-.013,0-.02Zm0,0-.009,0-.008,0a3.363,3.363,0,0,1-.191.822l.029-.07s0-.01.006-.014h0l.029-.073c0-.01.007-.021.01-.031s.007-.02.011-.029c.015-.042.031-.085.043-.129h0c.01-.031.018-.061.027-.092a.08.08,0,0,1,0-.017s0,0,0-.006,0,0,0-.005,0,0,0,0,.007-.025.011-.039,0-.014,0-.021c.008-.031.016-.061.021-.094a.411.411,0,0,0,.01-.045s0-.01,0-.014c.008-.043.017-.087.024-.131,0-.007,0-.013,0-.02Zm0,0-.009,0-.008,0a3.363,3.363,0,0,1-.191.822l.029-.07s0-.01.006-.014h0l.029-.073c0-.01.007-.021.01-.031s.007-.02.011-.029c.015-.042.031-.085.043-.129h0c.01-.031.018-.061.027-.092a.08.08,0,0,1,0-.017s0,0,0-.006,0,0,0-.005,0,0,0,0,.007-.025.011-.039,0-.014,0-.021c.008-.031.016-.061.021-.094a.411.411,0,0,0,.01-.045s0-.01,0-.014c.008-.043.017-.087.024-.131,0-.007,0-.013,0-.02Zm-.481-1.958a.847.847,0,0,0-.271-.143.751.751,0,0,0-.236-.036.76.76,0,0,0-.174.024h0l-.043.011a2.429,2.429,0,0,0-1.209,2.392,2.025,2.025,0,0,0,.607,1.551.83.83,0,0,0,.3.151.766.766,0,0,0,.377.007h0l0,0,.047-.011a1.323,1.323,0,0,0,.673-.521h0a2.823,2.823,0,0,0,.432-.963,3.06,3.06,0,0,0,.088-.526,2.331,2.331,0,0,0,.015-.247v-.134A2.022,2.022,0,0,0,2311.369,878.37Zm.268,2.8s0,0,0,0a.074.074,0,0,0,0,.007.234.234,0,0,0-.016.033,2.192,2.192,0,0,1-.388.641,1.1,1.1,0,0,1-.419.306h0s0,0,0,0l-.009,0h-.008a.311.311,0,0,1-.056.021.564.564,0,0,1-.067.015h0a.658.658,0,0,1-.547-.14,1.865,1.865,0,0,1-.558-1.4h0v-.015s0,0,0-.005v-.006s0,0,0,0,0-.01,0-.014c-.024-1.065.478-2.079,1.119-2.264a.611.611,0,0,1,.121-.024h0a.632.632,0,0,1,.24.018.722.722,0,0,1,.253.128l.018.015h0a1.35,1.35,0,0,1,.379.56,2.6,2.6,0,0,1,.157.871q0,.075,0,.151h0c0,.087-.008.173-.017.258h0a3.354,3.354,0,0,1-.191.822A.035.035,0,0,0,2311.637,881.166Zm.213-.838-.009,0-.008,0a3.363,3.363,0,0,1-.191.822l.029-.07s0-.01.006-.014h0l.029-.073c0-.01.007-.021.01-.031s.007-.02.011-.029c.015-.042.031-.085.043-.129h0c.01-.031.018-.061.027-.092a.08.08,0,0,1,0-.017s0,0,0-.006,0,0,0-.005,0,0,0,0,.007-.025.011-.039,0-.014,0-.021c.008-.031.016-.061.021-.094a.411.411,0,0,0,.01-.045s0-.01,0-.014c.008-.043.017-.087.024-.131,0-.007,0-.013,0-.02Zm0,0-.009,0-.008,0a3.363,3.363,0,0,1-.191.822l.029-.07s0-.01.006-.014h0l.029-.073c0-.01.007-.021.01-.031s.007-.02.011-.029c.015-.042.031-.085.043-.129h0c.01-.031.018-.061.027-.092a.08.08,0,0,1,0-.017s0,0,0-.006,0,0,0-.005,0,0,0,0,.007-.025.011-.039,0-.014,0-.021c.008-.031.016-.061.021-.094a.411.411,0,0,0,.01-.045s0-.01,0-.014c.008-.043.017-.087.024-.131,0-.007,0-.013,0-.02Zm0,0-.009,0-.008,0a3.363,3.363,0,0,1-.191.822l.029-.07s0-.01.006-.014h0l.029-.073c0-.01.007-.021.01-.031s.007-.02.011-.029c.015-.042.031-.085.043-.129h0c.01-.031.018-.061.027-.092a.08.08,0,0,1,0-.017s0,0,0-.006,0,0,0-.005,0,0,0,0,.007-.025.011-.039,0-.014,0-.021c.008-.031.016-.061.021-.094a.411.411,0,0,0,.01-.045s0-.01,0-.014c.008-.043.017-.087.024-.131,0-.007,0-.013,0-.02Zm0,0-.009,0-.008,0a3.363,3.363,0,0,1-.191.822l.029-.07s0-.01.006-.014h0l.029-.073c0-.01.007-.021.01-.031s.007-.02.011-.029c.015-.042.031-.085.043-.129h0c.01-.031.018-.061.027-.092a.08.08,0,0,1,0-.017s0,0,0-.006,0,0,0-.005,0,0,0,0,.007-.025.011-.039,0-.014,0-.021c.008-.031.016-.061.021-.094a.411.411,0,0,0,.01-.045s0-.01,0-.014c.008-.043.017-.087.024-.131,0-.007,0-.013,0-.02Zm0,0-.009,0-.008,0a3.363,3.363,0,0,1-.191.822l.029-.07s0-.01.006-.014h0l.029-.073c0-.01.007-.021.01-.031s.007-.02.011-.029c.015-.042.031-.085.043-.129h0c.01-.031.018-.061.027-.092a.08.08,0,0,1,0-.017s0,0,0-.006,0,0,0-.005,0,0,0,0,.007-.025.011-.039,0-.014,0-.021c.008-.031.016-.061.021-.094a.411.411,0,0,0,.01-.045s0-.01,0-.014c.008-.043.017-.087.024-.131,0-.007,0-.013,0-.02Zm0,0-.009,0-.008,0a3.363,3.363,0,0,1-.191.822l.029-.07s0-.01.006-.014h0l.029-.073c0-.01.007-.021.01-.031s.007-.02.011-.029c.015-.042.031-.085.043-.129h0c.01-.031.018-.061.027-.092a.08.08,0,0,1,0-.017s0,0,0-.006,0,0,0-.005,0,0,0,0,.007-.025.011-.039,0-.014,0-.021c.008-.031.016-.061.021-.094a.411.411,0,0,0,.01-.045s0-.01,0-.014c.008-.043.017-.087.024-.131,0-.007,0-.013,0-.02Zm0,0-.009,0-.008,0a3.363,3.363,0,0,1-.191.822l.029-.07s0-.01.006-.014h0l.029-.073c0-.01.007-.021.01-.031s.007-.02.011-.029c.015-.042.031-.085.043-.129h0c.01-.031.018-.061.027-.092a.08.08,0,0,1,0-.017s0,0,0-.006,0,0,0-.005,0,0,0,0,.007-.025.011-.039,0-.014,0-.021c.008-.031.016-.061.021-.094a.411.411,0,0,0,.01-.045s0-.01,0-.014c.008-.043.017-.087.024-.131,0-.007,0-.013,0-.02Z" transform="translate(-2309.432 -878.191)" fill="#68a1bf"/>
          </g>
        </g>
        <g id="Group_1118" data-name="Group 1118" transform="translate(27.546 7.156)">
          <g id="Group_1117" data-name="Group 1117">
            <path id="Path_634" data-name="Path 634" d="M2327.39,893.347a.118.118,0,0,1-.078-.07.124.124,0,0,1,.061-.161,1.24,1.24,0,0,1,1.055.108.125.125,0,0,1,.05.165.115.115,0,0,1-.159.052,1.02,1.02,0,0,0-.853-.1A.113.113,0,0,1,2327.39,893.347Z" transform="translate(-2327.302 -893.046)" fill="#331832"/>
          </g>
        </g>
        <g id="Group_1119" data-name="Group 1119" transform="translate(32.361 1.694)">
          <path id="Path_635" data-name="Path 635" d="M2365.92,851.119s.982-2.611,3.2-1.678,1.408,2.15,1.068,2.952a2.194,2.194,0,0,1-2.525.953C2366.564,852.956,2365.92,851.119,2365.92,851.119Z" transform="translate(-2365.92 -849.24)" fill="#331832"/>
        </g>
        <g id="Group_1121" data-name="Group 1121" transform="translate(31.278 10.868)">
          <g id="Group_1120" data-name="Group 1120">
            <path id="Path_636" data-name="Path 636" d="M2358.549,924.225a.069.069,0,0,0,.041-.008.077.077,0,0,0,.031-.1,3.375,3.375,0,0,0-1.281-1.288.072.072,0,0,0-.1.031.078.078,0,0,0,.03.1,3.272,3.272,0,0,1,1.22,1.224A.075.075,0,0,0,2358.549,924.225Z" transform="translate(-2357.232 -922.817)" fill="#331832"/>
          </g>
        </g>
        <g id="Group_1122" data-name="Group 1122" transform="translate(27.246 13.807)">
          <path id="Path_637" data-name="Path 637" d="M2326.235,946.6s-.7,2.173,1.224,2.082c0,0-.937,1.124-1.67.755s-.084-.793-.4-1.052-.663-.437-.385-.786.045-.986.045-.986A.867.867,0,0,1,2326.235,946.6Z" transform="translate(-2324.9 -946.386)" fill="#fff"/>
        </g>
        <g id="Group_1123" data-name="Group 1123" transform="translate(27.663 19.026)">
          <path id="Path_638" data-name="Path 638" d="M2328.842,988.532a.306.306,0,0,0-.323-.291.311.311,0,0,0-.281.336.307.307,0,0,0,.323.291A.311.311,0,0,0,2328.842,988.532Z" transform="translate(-2328.238 -988.24)" fill="#fff"/>
        </g>
        <g id="Group_1124" data-name="Group 1124" transform="translate(27.078 29.184)">
          <path id="Path_639" data-name="Path 639" d="M2324.152,1070a.306.306,0,0,0-.323-.291.311.311,0,0,0-.28.336.306.306,0,0,0,.323.291A.311.311,0,0,0,2324.152,1070Z" transform="translate(-2323.548 -1069.709)" fill="#fff"/>
        </g>
        <g id="Group_1125" data-name="Group 1125" transform="translate(26.77 24.624)">
          <path id="Path_640" data-name="Path 640" d="M2321.681,1033.431a.306.306,0,0,0-.323-.291.311.311,0,0,0-.281.336.307.307,0,0,0,.323.291A.312.312,0,0,0,2321.681,1033.431Z" transform="translate(-2321.077 -1033.139)" fill="#fff"/>
        </g>
        <g id="Group_1126" data-name="Group 1126" transform="translate(27.323 9.537)">
          <path id="Path_641" data-name="Path 641" d="M2326.423,912.646a1.2,1.2,0,0,1-.9-.443.036.036,0,0,1,0-.051.037.037,0,0,1,.051,0,1.092,1.092,0,0,0,1.519.2.036.036,0,0,1,.051.007.036.036,0,0,1-.007.05A1.274,1.274,0,0,1,2326.423,912.646Z" transform="translate(-2325.511 -912.143)" fill="#020202"/>
        </g>
        <g id="Group_1127" data-name="Group 1127" transform="translate(29.772 14.41)">
          <path id="Path_642" data-name="Path 642" d="M2348.358,951.219l1.384.176a.765.765,0,0,1-.361,1c-.653.284-.786.294-.964.847a1.036,1.036,0,0,1-1.314.474c-.305-.166-.771.574-1.246.61s-.814-.818-.668-1.413A8.567,8.567,0,0,0,2348.358,951.219Z" transform="translate(-2345.154 -951.219)" fill="#fff"/>
        </g>
        <g id="Group_1128" data-name="Group 1128" transform="translate(21.874 20.568)">
          <path id="Path_643" data-name="Path 643" d="M2282.08,1004.109l-.012,0a.047.047,0,0,1-.032-.058,4.689,4.689,0,0,0-.217-3.373.045.045,0,0,1,.018-.063.045.045,0,0,1,.062.017,4.784,4.784,0,0,1,.224,3.446A.045.045,0,0,1,2282.08,1004.109Z" transform="translate(-2281.813 -1000.607)" fill="#331832"/>
        </g>
        <g id="Group_1130" data-name="Group 1130" transform="translate(15.466 72.912)">
          <g id="Group_1129" data-name="Group 1129">
            <path id="Path_644" data-name="Path 644" d="M2234.842,1420.419s.029,2.425-1.24,2.19c-1.412-.261-4.141.095-2.832,1.185.751.626,2.9.933,3.867,1.167,1.433.345,2.851.758,3.589.117.811-.7-.082-4.672-.082-4.672a4.112,4.112,0,0,1-1.631.416A3.278,3.278,0,0,1,2234.842,1420.419Z" transform="translate(-2230.425 -1420.406)" fill="#331832"/>
          </g>
        </g>
        <g id="Group_1132" data-name="Group 1132" transform="translate(11.862 37.354)">
          <g id="Group_1131" data-name="Group 1131">
            <path id="Path_645" data-name="Path 645" d="M2212.021,1136.231s-8.126,4.677-10.153,11.932c-1.982,7.1,4.982,21.764,6.128,23.212s6.233,2.372,6.655-.586c.619-4.335-3.341-17.781-2.289-19.484,1.876-3.039,17.348-8.592,17.176-8.12,0,0-1.016-6.225-4.446-7.2A24.887,24.887,0,0,0,2212.021,1136.231Z" transform="translate(-2201.516 -1135.23)" fill="#ef8062"/>
          </g>
        </g>
        <g id="Group_1134" data-name="Group 1134" transform="translate(37.865 79.662)">
          <g id="Group_1133" data-name="Group 1133">
            <path id="Path_646" data-name="Path 646" d="M2415.368,1474.54s-.231,1.687-1.48,2.019-4.764.339-3.589,1.586c.675.715,4.223.74,5.212.86s1.872.647,2.677.1c.886-.6.46-4.167.46-4.167a4.086,4.086,0,0,1-1.666.209A3.316,3.316,0,0,1,2415.368,1474.54Z" transform="translate(-2410.062 -1474.54)" fill="#331832"/>
          </g>
        </g>
        <g id="Group_1136" data-name="Group 1136" transform="translate(25.523 37.546)">
          <g id="Group_1135" data-name="Group 1135">
            <path id="Path_647" data-name="Path 647" d="M2311.191,1139.131c10.885,28.162,15.606,38.662,17,41.041.9,1.538,6.732.45,6.262-2.733-.678-4.589-6.109-32.111-8.588-37.871C2324.755,1136.987,2309.613,1135.048,2311.191,1139.131Z" transform="translate(-2311.076 -1136.775)" fill="#ef8062"/>
          </g>
        </g>
        <g id="Group_1137" data-name="Group 1137" transform="translate(27.046 45.408)">
          <path id="Path_648" data-name="Path 648" d="M2325.656,1204.075a.081.081,0,0,1-.078-.061c-.824-3.151-2.23-4.034-2.244-4.042a.081.081,0,0,1-.028-.111.083.083,0,0,1,.11-.028c.06.036,1.475.918,2.317,4.142a.079.079,0,0,1-.057.1A.076.076,0,0,1,2325.656,1204.075Z" transform="translate(-2323.295 -1199.822)" fill="#331832"/>
        </g>
      </g>
      <g id="Group_1171" data-name="Group 1171" transform="translate(198.523 72.633)">
        <g id="Group_1139" data-name="Group 1139" transform="translate(19.102 38.573)">
          <path id="Path_649" data-name="Path 649" d="M1859.293,976.661c.554,2.029-5.123,2.721-11.473,3.606s-11.355.687-11.473-.2,4.885-2.729,11.235-3.614S1859.057,975.8,1859.293,976.661Z" transform="translate(-1836.346 -975.89)" fill="#331832"/>
        </g>
        <g id="Group_1140" data-name="Group 1140" transform="translate(17.347 11.545)">
          <path id="Path_650" data-name="Path 650" d="M1841.158,762.37s-1.9-4.421-10.131-2.939c-11.872,2.136-8.841,13.347-7,30.9,0,0,.924-1.524,7.6-2.835,6.825-1.34,14.661-1.465,15.322-.646C1846.949,786.849,1844.931,768.962,1841.158,762.37Z" transform="translate(-1822.27 -759.127)" fill="#ef8062"/>
        </g>
        <g id="Group_1141" data-name="Group 1141" transform="translate(15.051 11.552)">
          <path id="Path_651" data-name="Path 651" d="M1828.732,761.723l-5.616,3.581s-11.572,3.3-14.786,3.346a5.033,5.033,0,0,1-4.477-2.2,17.634,17.634,0,0,1,8.2-6.235,16.769,16.769,0,0,1,1.62-.5,15.816,15.816,0,0,1,2.867-.471A22.336,22.336,0,0,1,1828.732,761.723Z" transform="translate(-1803.853 -759.185)" fill="#ef8062"/>
        </g>
        <g id="Group_1142" data-name="Group 1142" transform="translate(24.124 4.624)">
          <path id="Path_652" data-name="Path 652" d="M1881.3,710.551c-.665,1.256-2.219,1.386-3.509,1.054-1.037-.266-.9-.283-.792-.47.258-.461.51-.608.45-1.072l-.079-.608-.01-.076-.1-.793-.176-1.368-.466-3.6,1.671,3.394.284.578.976,1.984C1879.865,710.216,1881.3,710.55,1881.3,710.551Z" transform="translate(-1876.618 -703.62)" fill="#ffb27d"/>
        </g>
        <g id="Group_1143" data-name="Group 1143" transform="translate(24.766 9.109)">
          <path id="Path_653" data-name="Path 653" d="M1883.3,739.589a2.46,2.46,0,0,1-1.42,1.35l-.01-.076-.1-.793C1882.344,739.9,1883.3,739.589,1883.3,739.589Z" transform="translate(-1881.766 -739.589)" fill="#331832"/>
        </g>
        <g id="Group_1145" data-name="Group 1145" transform="translate(0 12.45)">
          <g id="Group_1144" data-name="Group 1144">
            <path id="Path_654" data-name="Path 654" d="M1711.716,766.813c-9.216-2.3-13.7,5.29-18.63,7.6a48.494,48.494,0,0,1-9.924,3.3s-.187,3.373.7,4.41c0,0,8.338,1.386,12.732-.056,6.3-2.065,11.22-5.51,10.318-5.561C1706.911,776.5,1713.842,767.343,1711.716,766.813Z" transform="translate(-1683.146 -766.386)" fill="#ef8062"/>
          </g>
        </g>
        <g id="Group_1147" data-name="Group 1147" transform="translate(14.808 79.582)">
          <g id="Group_1146" data-name="Group 1146">
            <path id="Path_655" data-name="Path 655" d="M1806.322,1304.794s.029,2.565-1.24,2.316c-1.411-.276-4.141.1-2.831,1.254.751.662,2.9.987,3.867,1.234,1.433.365,2.851.8,3.589.124.811-.746-.082-4.942-.082-4.942a3.944,3.944,0,0,1-1.631.44A3.153,3.153,0,0,1,1806.322,1304.794Z" transform="translate(-1801.905 -1304.78)" fill="#331832"/>
          </g>
        </g>
        <g id="Group_1149" data-name="Group 1149" transform="translate(11.203 40.562)">
          <g id="Group_1148" data-name="Group 1148">
            <path id="Path_656" data-name="Path 656" d="M1782.3,993.837s-6.927,5.419-8.954,13.093c-1.982,7.505,4.983,23.02,6.128,24.551s6.233,2.51,6.655-.62c.619-4.585-3.34-18.807-2.288-20.609,1.876-3.214,15.676-14.295,15.5-13.8,0,0,.967-4.8-2.9-4.61C1790.693,992.125,1786.006,992.57,1782.3,993.837Z" transform="translate(-1772.991 -991.841)" fill="#366f90"/>
          </g>
        </g>
        <g id="Group_1151" data-name="Group 1151" transform="translate(37.207 86.72)">
          <g id="Group_1150" data-name="Group 1150">
            <path id="Path_657" data-name="Path 657" d="M1986.847,1362.03s-.231,1.785-1.481,2.135-4.764.359-3.589,1.677c.674.756,4.223.782,5.212.91s1.872.684,2.677.109c.885-.633.46-4.408.46-4.408a3.882,3.882,0,0,1-1.666.221A3.21,3.21,0,0,1,1986.847,1362.03Z" transform="translate(-1981.541 -1362.03)" fill="#331832"/>
          </g>
        </g>
        <g id="Group_1153" data-name="Group 1153" transform="translate(24.33 40.38)">
          <g id="Group_1152" data-name="Group 1152">
            <path id="Path_658" data-name="Path 658" d="M1878.27,991.835c10.885,29.787,16.254,43.727,17.648,46.243.9,1.627,6.733.476,6.263-2.891-.678-4.853-5.492-37.765-6.973-44.2C1894.808,989.244,1878.27,991.835,1878.27,991.835Z" transform="translate(-1878.27 -990.383)" fill="#366f90"/>
          </g>
        </g>
        <g id="Group_1154" data-name="Group 1154" transform="translate(26.186 48.987)">
          <path id="Path_659" data-name="Path 659" d="M1895.3,1063.244a.085.085,0,0,1-.079-.055,12,12,0,0,0-2.043-3.645.082.082,0,0,1,.007-.116.085.085,0,0,1,.118.007,12.147,12.147,0,0,1,2.076,3.7.083.083,0,0,1-.051.106A.092.092,0,0,1,1895.3,1063.244Z" transform="translate(-1893.158 -1059.408)" fill="#331832"/>
        </g>
        <g id="Group_1155" data-name="Group 1155" transform="translate(16.319 22.829)">
          <path id="Path_660" data-name="Path 660" d="M1815.05,853.39a7.973,7.973,0,0,0-1.024-3.687l.121-.076a8.1,8.1,0,0,1,1.046,3.754Z" transform="translate(-1814.026 -849.626)" fill="#331832"/>
        </g>
        <g id="Group_1170" data-name="Group 1170" transform="translate(20.005)">
          <g id="Group_1156" data-name="Group 1156" transform="translate(1.369 3.393)">
            <path id="Path_661" data-name="Path 661" d="M1854.648,693.753a5.015,5.015,0,0,0,.013,1.99c.227,1.106,1.285-1.624,1.285-1.624Z" transform="translate(-1854.557 -693.753)" fill="#5f3563"/>
          </g>
          <g id="Group_1157" data-name="Group 1157" transform="translate(1.313 2.203)">
            <path id="Path_662" data-name="Path 662" d="M1854.146,687.708c.254-2.143,1.836-3.7,3.533-3.48s2.866,2.137,2.612,4.28-1.836,3.7-3.532,3.48S1853.892,689.851,1854.146,687.708Z" transform="translate(-1854.111 -684.208)" fill="#ffb27d"/>
          </g>
          <g id="Group_1158" data-name="Group 1158">
            <path id="Path_663" data-name="Path 663" d="M1851.143,671.923l-1.5-.152a1.084,1.084,0,0,1-.812-.508c-.31-.5-.682-.757-2.079-.692a2.939,2.939,0,0,1-3.143-1.983,1.069,1.069,0,0,1,1.592-1.2c.892.466.5-.689,1.357-.818,1.6-.241,1.9,1.047,3.211,1,1.714-.067,4.8,1.276,3.359,4.448Z" transform="translate(-1843.581 -666.539)" fill="#5f3563"/>
          </g>
          <g id="Group_1160" data-name="Group 1160" transform="translate(3.793 5.736)">
            <g id="Group_1159" data-name="Group 1159">
              <path id="Path_664" data-name="Path 664" d="M1874.062,712.809a.062.062,0,0,1-.049-.029.068.068,0,0,1,.017-.091.656.656,0,0,1,.832.006.068.068,0,0,1,.016.091.067.067,0,0,1-.087.017,1.028,1.028,0,0,0-.691-.006A.059.059,0,0,1,1874.062,712.809Z" transform="translate(-1874.003 -712.542)" fill="#080435"/>
            </g>
          </g>
          <g id="Group_1161" data-name="Group 1161" transform="translate(3.89 6.311)">
            <path id="Path_665" data-name="Path 665" d="M1875.173,717.485c-.038.152-.155.251-.26.222s-.159-.176-.121-.327.155-.251.26-.222S1875.212,717.333,1875.173,717.485Z" transform="translate(-1874.781 -717.152)" fill="#080435"/>
          </g>
          <g id="Group_1163" data-name="Group 1163" transform="translate(1.899 5.365)">
            <g id="Group_1162" data-name="Group 1162">
              <path id="Path_666" data-name="Path 666" d="M1858.831,709.722a.048.048,0,0,1-.023-.042.079.079,0,0,1,.05-.077.432.432,0,0,1,.586.28.08.08,0,0,1-.026.088.045.045,0,0,1-.069-.013.643.643,0,0,0-.486-.233A.039.039,0,0,1,1858.831,709.722Z" transform="translate(-1858.809 -709.57)" fill="#080435"/>
            </g>
          </g>
          <g id="Group_1164" data-name="Group 1164" transform="translate(1.914 5.942)">
            <path id="Path_667" data-name="Path 667" d="M1859.327,714.477c0,.157-.087.284-.2.285s-.2-.126-.2-.283.087-.284.2-.285S1859.327,714.32,1859.327,714.477Z" transform="translate(-1858.934 -714.194)" fill="#080435"/>
          </g>
          <g id="Group_1165" data-name="Group 1165" transform="translate(5.729 5.036)">
            <path id="Path_668" data-name="Path 668" d="M1893.343,707.362s-1.019,2.346-2.486,2.529c0,0,1.175-1.791-1.333-2.859A7.623,7.623,0,0,1,1893.343,707.362Z" transform="translate(-1889.524 -706.924)" fill="#5f3563"/>
          </g>
          <g id="Group_1166" data-name="Group 1166" transform="translate(6.508 5.596)">
            <path id="Path_669" data-name="Path 669" d="M1896.751,712.6a.622.622,0,0,1-.892-.147.689.689,0,0,1,.239-.912.622.622,0,0,1,.892.147A.69.69,0,0,1,1896.751,712.6Z" transform="translate(-1895.772 -711.422)" fill="#ffb27d"/>
          </g>
          <g id="Group_1167" data-name="Group 1167" transform="translate(0.637 1.153)">
            <path id="Path_670" data-name="Path 670" d="M1850.722,678.149c-.08-.025-1.935-.587-2.022-1.632a.711.711,0,0,1,.159-.626c.2-.177.551-.095.857-.02.046.01.09.021.133.03l-.01.043-.132-.031c-.3-.068-.631-.147-.819.01a.676.676,0,0,0-.144.592c.085,1.016,1.972,1.588,1.991,1.594Z" transform="translate(-1848.693 -675.784)" fill="#fff"/>
          </g>
          <g id="Group_1168" data-name="Group 1168" transform="translate(4.149 0.529)">
            <path id="Path_671" data-name="Path 671" d="M1879.042,671.683a2.887,2.887,0,0,1-2.184-.873l.033-.027a2.981,2.981,0,0,0,2.737.812l.006.043A3.965,3.965,0,0,1,1879.042,671.683Z" transform="translate(-1876.858 -670.783)" fill="#fff"/>
          </g>
          <g id="Group_1169" data-name="Group 1169" transform="translate(2.313 7.575)">
            <path id="Path_672" data-name="Path 672" d="M1863.841,727.637a.076.076,0,0,1-.037-.01,2.229,2.229,0,0,0-1.563-.043.078.078,0,0,1-.1-.048.083.083,0,0,1,.048-.1,2.316,2.316,0,0,1,1.694.053.08.08,0,0,1,.035.108A.082.082,0,0,1,1863.841,727.637Z" transform="translate(-1862.132 -727.292)" fill="#331832"/>
          </g>
        </g>
      </g>
      <g id="Group_1173" data-name="Group 1173" transform="translate(45.058 95.429)">
        <g id="Group_1172" data-name="Group 1172">
          <path id="Path_673" data-name="Path 673" d="M456.97,849.363s-.134,2.421-1.384,2.093c-1.39-.365-4.137-.212-2.9.973.707.68,2.826,1.145,3.778,1.45,1.406.45,2.793.967,3.572.382.857-.643.233-4.666.233-4.666a4.1,4.1,0,0,1-1.654.294A3.292,3.292,0,0,1,456.97,849.363Z" transform="translate(-452.371 -849.363)" fill="#331832"/>
        </g>
      </g>
      <g id="Group_1175" data-name="Group 1175" transform="translate(42.797 60.67)">
        <g id="Group_1174" data-name="Group 1174">
          <path id="Path_674" data-name="Path 674" d="M455.022,570.624s-17.73,4.568-20.241,11.656c-2.456,6.931,4.17,22.006,5.215,23.534s5.392,1.844,6.013-1.076c.909-4.278-1.39-16.4.853-18.956,2.338-2.665,18.689-5.086,18.485-4.628C465.347,581.154,458.879,569.984,455.022,570.624Z" transform="translate(-434.239 -570.598)" fill="#ef8062"/>
        </g>
      </g>
      <g id="Group_1177" data-name="Group 1177" transform="translate(70.954 106.872)">
        <g id="Group_1176" data-name="Group 1176">
          <path id="Path_675" data-name="Path 675" d="M664.75,942.505a2.622,2.622,0,0,0,.322,2.523c.925.94,3.968,2.783,2.356,3.249-.925.268-4.012-1.565-4.927-1.977s-1.931-.417-2.37-1.31c-.483-.981,1.585-3.852,1.585-3.852a4.3,4.3,0,0,0,1.345,1.051A3.251,3.251,0,0,0,664.75,942.505Z" transform="translate(-660.058 -941.139)" fill="#331832"/>
        </g>
      </g>
      <g id="Group_1179" data-name="Group 1179" transform="translate(64.058 60.94)">
        <g id="Group_1178" data-name="Group 1178">
          <path id="Path_676" data-name="Path 676" d="M604.764,576.2c3.318,30.631,6.087,41.489,6.883,44.152.514,1.723,6.422,2.164,6.711-1.043.416-4.623.144-38.339-.912-44.56C616.972,571.96,604.29,571.82,604.764,576.2Z" transform="translate(-604.751 -572.762)" fill="#ef8062"/>
        </g>
      </g>
      <g id="Group_1181" data-name="Group 1181" transform="translate(64.198 39.321)">
        <g id="Group_1180" data-name="Group 1180">
          <path id="Path_677" data-name="Path 677" d="M606.33,399.38c9.457.573,13.718,9.558,18.024,12.792,4.408,3.31,9.84,7.194,9.84,7.194s.128,3.395-2.47,4.336a38.567,38.567,0,0,1-12.456-5.36c-5.454-3.887-9.606-8.549-8.728-8.327C610.539,410.016,604.148,399.248,606.33,399.38Z" transform="translate(-605.876 -399.379)" fill="#6da49a"/>
        </g>
      </g>
      <g id="Group_1183" data-name="Group 1183" transform="translate(52.307 39.738)">
        <g id="Group_1182" data-name="Group 1182">
          <path id="Path_678" data-name="Path 678" d="M510.513,410.279s-.15-4.6,7.507-6.969c5.9-1.827,10.834.787,12.654,6.06,2.517,7.292,3.691,13.664,3.651,17.628,0,0-9.34,6.108-21.018-.434,0,0,1.826-3.89-1.19-13.743C511.813,411.828,510.446,411.119,510.513,410.279Z" transform="translate(-510.511 -402.729)" fill="#6da49a"/>
        </g>
      </g>
      <g id="Group_1185" data-name="Group 1185" transform="translate(59.201 33.088)">
        <g id="Group_1184" data-name="Group 1184">
          <path id="Path_679" data-name="Path 679" d="M567.452,355.262l.853-1.954.248-.569,1.46-3.346-.283,3.487-.17,2.093-.054.662c-.036.45.214.579.486,1.012.11.175.821,1.243-.169,1.546-1.234.378-3.321-.733-4.023-1.912C565.807,356.281,567.176,355.894,567.452,355.262Z" transform="translate(-565.8 -349.393)" fill="#ffb27d"/>
        </g>
      </g>
      <g id="Group_1187" data-name="Group 1187" transform="translate(61.498 39.898)">
        <g id="Group_1186" data-name="Group 1186">
          <path id="Path_680" data-name="Path 680" d="M584.323,404.717s1.326-.91,1.814-.664.665,1.995.036,2.346S583.771,405.32,584.323,404.717Z" transform="translate(-584.218 -404.011)" fill="#ef8062"/>
        </g>
      </g>
      <g id="Group_1189" data-name="Group 1189" transform="translate(63.161 52.646)">
        <g id="Group_1188" data-name="Group 1188">
          <path id="Path_681" data-name="Path 681" d="M598.251,506.461a.39.39,0,0,1-.139.517.352.352,0,0,1-.493-.142.377.377,0,0,1,.087-.516A.363.363,0,0,1,598.251,506.461Z" transform="translate(-597.556 -506.251)" fill="#366f90"/>
        </g>
      </g>
      <g id="Group_1191" data-name="Group 1191" transform="translate(63.479 57.94)">
        <g id="Group_1190" data-name="Group 1190">
          <path id="Path_682" data-name="Path 682" d="M600.8,548.911a.39.39,0,0,1-.139.517.352.352,0,0,1-.493-.142.377.377,0,0,1,.087-.516A.363.363,0,0,1,600.8,548.911Z" transform="translate(-600.102 -548.701)" fill="#366f90"/>
        </g>
      </g>
      <g id="Group_1193" data-name="Group 1193" transform="translate(63.873 62.731)">
        <g id="Group_1192" data-name="Group 1192">
          <path id="Path_683" data-name="Path 683" d="M603.981,587.4a.386.386,0,0,1-.219.486.357.357,0,0,1-.464-.225.373.373,0,0,1,.167-.494A.367.367,0,0,1,603.981,587.4Z" transform="translate(-603.269 -587.13)" fill="#366f90"/>
        </g>
      </g>
      <g id="Group_1195" data-name="Group 1195" transform="translate(46.004 41.441)">
        <g id="Group_1194" data-name="Group 1194">
          <path id="Path_684" data-name="Path 684" d="M476.321,417.4c-.281,2.093-2.044,10.315-12.63,15.232a4.593,4.593,0,0,0-1.738,1.4l-1.826,2.428a.83.83,0,0,0,.352,1.271l2.97,1.11a4.12,4.12,0,0,0,3.131-.091c3.438-1.537,12.067-8.842,11.245-22.1-.035-.566-.454-.1-.972.082h0A.808.808,0,0,0,476.321,417.4Z" transform="translate(-459.96 -416.382)" fill="#ef8062"/>
        </g>
      </g>
      <g id="Group_1197" data-name="Group 1197" transform="translate(62.451 41.202)">
        <g id="Group_1196" data-name="Group 1196">
          <path id="Path_685" data-name="Path 685" d="M592.477,415.543a1.529,1.529,0,0,1-.6-.195.039.039,0,0,1-.013-.052.035.035,0,0,1,.049-.014,1.245,1.245,0,0,0,.874.154c.391-.126.454-.927.455-.935a.037.037,0,0,1,.039-.035h0a.037.037,0,0,1,.033.041c0,.035-.068.861-.505,1A.86.86,0,0,1,592.477,415.543Z" transform="translate(-591.862 -414.466)" fill="#331832"/>
        </g>
      </g>
      <g id="Group_1198" data-name="Group 1198" transform="translate(72.965 49.685)">
        <path id="Path_686" data-name="Path 686" d="M678.565,489.807a.082.082,0,0,1-.08-.071,24.52,24.52,0,0,0-2.292-7.115.08.08,0,0,1,.036-.108.079.079,0,0,1,.109.035,24.707,24.707,0,0,1,2.309,7.168.08.08,0,0,1-.07.09A.02.02,0,0,1,678.565,489.807Z" transform="translate(-676.184 -482.503)" fill="#4f8a80"/>
      </g>
      <g id="Group_1200" data-name="Group 1200" transform="translate(58.933 38.241)">
        <g id="Group_1199" data-name="Group 1199">
          <path id="Path_687" data-name="Path 687" d="M567.686,392.258s-1.53-.7-1.875-1.383-2.145,1.09-2.165,1.555c-.057,1.331,3.022,2.845,3.251,2.525S568.125,392.709,567.686,392.258Z" transform="translate(-563.646 -390.721)" fill="#7bb6ab"/>
        </g>
      </g>
      <g id="Group_1202" data-name="Group 1202" transform="translate(62.807 38.407)">
        <g id="Group_1201" data-name="Group 1201">
          <path id="Path_688" data-name="Path 688" d="M594.718,393.53a5.571,5.571,0,0,0,.128-.905l.047-.574a6,6,0,0,1,2.083,1.3c.166.32.343,1.887-.134,2.055s-1.82-1.392-1.975-1.544A.475.475,0,0,1,594.718,393.53Z" transform="translate(-594.718 -392.052)" fill="#7bb6ab"/>
        </g>
      </g>
      <g id="Group_1233" data-name="Group 1233" transform="translate(58.666 29.175)">
        <g id="Group_1204" data-name="Group 1204" transform="translate(6.845 3.722)">
          <g id="Group_1203" data-name="Group 1203">
            <path id="Path_689" data-name="Path 689" d="M617.7,347.863a4.77,4.77,0,0,1-.466,1.854c-.466.974-.836-1.843-.836-1.843Z" transform="translate(-616.402 -347.863)" fill="#5c305d"/>
          </g>
        </g>
        <g id="Group_1206" data-name="Group 1206" transform="translate(1.415 1.473)">
          <g id="Group_1205" data-name="Group 1205" transform="translate(0 0)">
            <ellipse id="Ellipse_110" data-name="Ellipse 110" cx="3.767" cy="3.003" rx="3.767" ry="3.003" transform="matrix(0.091, -0.996, 0.996, 0.091, 0, 7.502)" fill="#ffb27d"/>
          </g>
        </g>
        <g id="Group_1208" data-name="Group 1208">
          <g id="Group_1207" data-name="Group 1207">
            <path id="Path_690" data-name="Path 690" d="M563.468,322.033l1.443.241a1.023,1.023,0,0,0,.879-.266c.406-.389.812-.533,2.11-.115a2.774,2.774,0,0,0,3.4-1.049,1.059,1.059,0,0,0-1.221-1.527c-.944.207-.315-.772-1.088-1.11-1.443-.632-2.026.491-3.242.11-1.595-.5-4.794-.033-4.169,3.294Z" transform="translate(-561.503 -318.01)" fill="#331832"/>
          </g>
        </g>
        <g id="Group_1211" data-name="Group 1211" transform="translate(4.422 5.222)">
          <g id="Group_1210" data-name="Group 1210">
            <g id="Group_1209" data-name="Group 1209">
              <path id="Path_691" data-name="Path 691" d="M597.71,360.293a.058.058,0,0,0,.053-.01.066.066,0,0,0,.012-.089.647.647,0,0,0-.761-.274.064.064,0,0,0-.042.078.067.067,0,0,0,.074.045,1.014,1.014,0,0,1,.633.227A.06.06,0,0,0,597.71,360.293Z" transform="translate(-596.97 -359.886)" fill="#080435"/>
            </g>
          </g>
        </g>
        <g id="Group_1213" data-name="Group 1213" transform="translate(4.489 5.827)">
          <g id="Group_1212" data-name="Group 1212">
            <path id="Path_692" data-name="Path 692" d="M597.5,365.015c0,.151.088.274.193.273s.189-.123.188-.275-.088-.274-.193-.273S597.5,364.863,597.5,365.015Z" transform="translate(-597.504 -364.74)" fill="#080435"/>
          </g>
        </g>
        <g id="Group_1216" data-name="Group 1216" transform="translate(6.442 5.566)">
          <g id="Group_1215" data-name="Group 1215">
            <g id="Group_1214" data-name="Group 1214">
              <path id="Path_693" data-name="Path 693" d="M613.792,362.867a.045.045,0,0,0,.032-.033.078.078,0,0,0-.026-.085.416.416,0,0,0-.618.093.078.078,0,0,0,0,.089.044.044,0,0,0,.068.007.617.617,0,0,1,.513-.078A.04.04,0,0,0,613.792,362.867Z" transform="translate(-613.166 -362.65)" fill="#080435"/>
            </g>
          </g>
        </g>
        <g id="Group_1218" data-name="Group 1218" transform="translate(6.444 6.101)">
          <g id="Group_1217" data-name="Group 1217">
            <path id="Path_694" data-name="Path 694" d="M613.208,367.131a.252.252,0,0,0,.079.329c.1.041.221-.039.275-.179a.253.253,0,0,0-.079-.329C613.384,366.911,613.261,366.991,613.208,367.131Z" transform="translate(-613.182 -366.941)" fill="#080435"/>
          </g>
        </g>
        <g id="Group_1220" data-name="Group 1220" transform="translate(0.08 3.546)">
          <g id="Group_1219" data-name="Group 1219">
            <path id="Path_695" data-name="Path 695" d="M562.143,346.506s.422,2.45,1.757,2.994c0,0-.695-1.971,1.9-2.328A7.474,7.474,0,0,0,562.143,346.506Z" transform="translate(-562.143 -346.452)" fill="#5c305d"/>
          </g>
        </g>
        <g id="Group_1222" data-name="Group 1222" transform="translate(1.528 4.286)">
          <g id="Group_1221" data-name="Group 1221">
            <path id="Path_696" data-name="Path 696" d="M573.943,353.439a.6.6,0,0,0,.871.091.667.667,0,0,0-.016-.912.6.6,0,0,0-.871-.091A.667.667,0,0,0,573.943,353.439Z" transform="translate(-573.755 -352.379)" fill="#ffb27d"/>
          </g>
        </g>
        <g id="Group_1224" data-name="Group 1224" transform="translate(2.016 4.251)">
          <g id="Group_1223" data-name="Group 1223">
            <path id="Path_697" data-name="Path 697" d="M579.4,352.121s-.648,1.776-.377,2.222a6.411,6.411,0,0,0,3.807,1.118h0a2.367,2.367,0,0,1-2.494,1.878,3.353,3.353,0,0,1-1.126-.319h0a2.458,2.458,0,0,1-1.533-1.731,7.346,7.346,0,0,1,.592-1.569,1.7,1.7,0,0,0-.039-1.342A2.225,2.225,0,0,1,579.4,352.121Z" transform="translate(-577.67 -352.106)" fill="#5c305d"/>
          </g>
        </g>
        <g id="Group_1226" data-name="Group 1226" transform="translate(8.058 0.586)">
          <g id="Group_1225" data-name="Group 1225">
            <path id="Path_698" data-name="Path 698" d="M626.432,323.213a.476.476,0,0,1-.3-.5l.081.014a.393.393,0,0,0,.337.437l-.019.083A.7.7,0,0,1,626.432,323.213Z" transform="translate(-626.127 -322.71)" fill="#331832"/>
          </g>
        </g>
        <g id="Group_1228" data-name="Group 1228" transform="translate(6.986 1.654)">
          <g id="Group_1227" data-name="Group 1227">
            <path id="Path_699" data-name="Path 699" d="M617.534,333.152v-.043c.019,0,1.921-.052,2.232-.978a.669.669,0,0,0,.006-.578c-.135-.207-.474-.219-.773-.229l-.134-.005,0-.043.133.005c.309.011.658.023.8.247a.708.708,0,0,1,0,.617c-.133.4-.569.7-1.26.866A5.25,5.25,0,0,1,617.534,333.152Z" transform="translate(-617.533 -331.277)" fill="#fff"/>
          </g>
        </g>
        <g id="Group_1230" data-name="Group 1230" transform="translate(3.473 0.355)">
          <g id="Group_1229" data-name="Group 1229">
            <path id="Path_700" data-name="Path 700" d="M589.469,321l-.109-.046.016-.04a2.847,2.847,0,0,0,2.756-.06l.023.035A2.866,2.866,0,0,1,589.469,321Z" transform="translate(-589.36 -320.853)" fill="#fff"/>
          </g>
        </g>
        <g id="Group_1232" data-name="Group 1232" transform="translate(4.438 7.618)">
          <g id="Group_1231" data-name="Group 1231">
            <path id="Path_701" data-name="Path 701" d="M597.761,379.667a1.78,1.78,0,0,1-.647-.442.074.074,0,0,1,.005-.1.066.066,0,0,1,.1.005,1.689,1.689,0,0,0,1.469.5.069.069,0,0,1,.078.06.071.071,0,0,1-.057.082A1.755,1.755,0,0,1,597.761,379.667Z" transform="translate(-597.097 -379.105)" fill="#ffb27d"/>
          </g>
        </g>
      </g>
      <g id="Group_1234" data-name="Group 1234" transform="translate(62.734 69.591)">
        <path id="Path_702" data-name="Path 702" d="M595.632,645.4a.162.162,0,0,1-.161-.141,6.087,6.087,0,0,0-1.3-2.849.162.162,0,1,1,.244-.212,6.314,6.314,0,0,1,1.379,3.021.162.162,0,0,1-.141.181Z" transform="translate(-594.13 -642.144)" fill="#331832"/>
      </g>
      <g id="Group_1236" data-name="Group 1236" transform="translate(16.342 57.526)">
        <g id="Group_1235" data-name="Group 1235">
          <path id="Path_703" data-name="Path 703" d="M222.316,559.635c8.573,2.871,17.707,2.354,25.523-2.469,6.7-4.134,10.6-10.274,19.247-10.812,6.447-.4,13.087.863,19.337,2.28,23.87,5.409,45.119,18.334,68.475,25.361,23.039,6.931,46.729,11.511,70.131,17,23.559,5.528,45.821,14.879,69.225,20.739a.35.35,0,0,0,.186-.674c-22.95-5.746-44.776-14.967-67.864-20.42-23.849-5.632-48.006-10.255-71.492-17.321-22.892-6.887-43.737-19.4-67.046-25.016-8.5-2.049-19.811-4.832-28.188-1.026-4.727,2.148-8,6.586-12.362,9.283-7.658,4.737-16.559,5.221-24.985,2.4-.427-.143-.611.531-.186.674Z" transform="translate(-222.075 -545.389)" fill="#764678"/>
        </g>
      </g>
      <g id="Group_1239" data-name="Group 1239" transform="translate(192.508 95.059)">
        <g id="Group_1238" data-name="Group 1238">
          <g id="Group_1237" data-name="Group 1237">
            <path id="Path_704" data-name="Path 704" d="M1638.033,851.823s1.258.888,1.93-.252c.856-1.453.514-4.242-.041-3.331a12.068,12.068,0,0,0-.913,2.155s1.022-3.445.245-3.484-1.618,2.939-1.618,2.939.683-3.479-.043-3.268-1.5,2.909-1.5,2.909.847-3.347.011-3.08-.93,2.12-1.142,2.881c-.2.719.19,1.127.887,1.34a2.265,2.265,0,0,0,1.089.646c.184.008.305.235.425.3A4.794,4.794,0,0,0,1638.033,851.823Z" transform="translate(-1634.904 -846.396)" fill="#f8a16a"/>
          </g>
        </g>
      </g>
      <g id="Group_1242" data-name="Group 1242" transform="translate(245.585 107.555)">
        <g id="Group_1241" data-name="Group 1241">
          <g id="Group_1240" data-name="Group 1240">
            <path id="Path_705" data-name="Path 705" d="M2063.713,952.039s1.258.888,1.929-.253c.856-1.453.515-4.242-.041-3.331a12.069,12.069,0,0,0-.913,2.155s1.023-3.445.245-3.484-1.618,2.939-1.618,2.939.683-3.479-.043-3.268-1.5,2.909-1.5,2.909.847-3.347.01-3.08-.93,2.12-1.142,2.881c-.2.719.19,1.127.887,1.34a2.265,2.265,0,0,0,1.089.646c.184.008.305.235.425.3A4.739,4.739,0,0,0,2063.713,952.039Z" transform="translate(-2060.583 -946.612)" fill="#f8a16a"/>
          </g>
        </g>
      </g>
      <g id="Group_1244" data-name="Group 1244" transform="translate(226.852 102.741)">
        <g id="Group_1243" data-name="Group 1243">
          <path id="Path_706" data-name="Path 706" d="M1918.526,909.508c-.736-.37-2.35-.755-3.094-1.11-.322-.154-1.441-.593-1.634-.279-.167.273.558,1.063.947,1.395-2.87.509-6.393,2.324-.6,1.6v.008c-.492.1-4.13.727-3.772,1.544.262.6,3.239-.012,4.051-.172l.007.023c-.812.238-3.3.812-3.076,1.4.295.769,3.479-.082,3.479-.082s-2.659.636-2.026,1.329c.357.391,1.918-.039,2.886-.322h0c.2-.059.38-.112.515-.15a1.31,1.31,0,0,0,.291-.118,11.988,11.988,0,0,0,2.524-1.229,1.848,1.848,0,0,0,.95-2.059A2.873,2.873,0,0,0,1918.526,909.508Z" transform="translate(-1910.346 -908.009)" fill="#ffb27d"/>
        </g>
      </g>
      <g id="Group_1245" data-name="Group 1245" transform="translate(233.807 85.4)">
        <path id="Path_707" data-name="Path 707" d="M1966.71,787.509c.307-.9,8.046-3.264,8.046-4.17,0-.78-6.393-2.887-6.393-2.887l-2.24-11.524a30.586,30.586,0,0,1,12.367,5.517c5.326,3.967,6.361,7.364,4.945,10.69-1.738,4.08-12.321,8.239-14.217,7.425A4.293,4.293,0,0,1,1966.71,787.509Z" transform="translate(-1966.123 -768.929)" fill="#ef8062"/>
      </g>
      <g id="Group_1252" data-name="Group 1252" transform="translate(221.49 83.084)">
        <g id="Group_1247" data-name="Group 1247" transform="translate(1.414 3.073)">
          <g id="Group_1246" data-name="Group 1246">
            <path id="Path_708" data-name="Path 708" d="M1880.6,775.168a20.39,20.39,0,0,0,16.712,11.959,4.593,4.593,0,0,1,2.1.758l2.52,1.7a.83.83,0,0,1,.083,1.316l-2.443,2.021a4.12,4.12,0,0,1-2.988.939c-3.751-.327-15.276-5.532-17.884-18.436-.112-.556.325-.345.873-.347l.479-.035C1880.35,775.039,1880.456,774.891,1880.6,775.168Z" transform="translate(-1878.681 -775)" fill="#366f90"/>
          </g>
        </g>
        <g id="Group_1248" data-name="Group 1248" transform="translate(1.295 2.015)">
          <path id="Path_709" data-name="Path 709" d="M1879.726,766.647s-1.5-.338-1.86.065.054,2.058.739,2.145S1880.423,766.991,1879.726,766.647Z" transform="translate(-1877.732 -766.515)" fill="#366f90"/>
        </g>
        <g id="Group_1249" data-name="Group 1249" transform="translate(2.304)">
          <path id="Path_710" data-name="Path 710" d="M1885.914,752.186s1.856-.883,2.175-1.623,2.421.708,2.424,1.2-3.353,3.523-3.612,3.2S1885.484,752.692,1885.914,752.186Z" transform="translate(-1885.819 -750.356)" fill="#ff9e89"/>
        </g>
        <g id="Group_1250" data-name="Group 1250" transform="translate(0 0.384)">
          <path id="Path_711" data-name="Path 711" d="M1869.742,754.884a2.243,2.243,0,0,1-.235-1.13s.064-.362-.225-.311a6.275,6.275,0,0,0-1.9,1.72c-.113.366-.01,2.024.512,2.1s1.62-1.819,1.752-2.008A.507.507,0,0,0,1869.742,754.884Z" transform="translate(-1867.344 -753.438)" fill="#ff9e89"/>
        </g>
        <g id="Group_1251" data-name="Group 1251" transform="translate(1.454 3.596)">
          <path id="Path_712" data-name="Path 712" d="M1879.83,779.991c-.409,0-.809-.733-.826-.766l.063-.033c0,.007.447.812.823.721a.8.8,0,0,0,.528-.385l.065.03a.849.849,0,0,1-.576.424A.305.305,0,0,1,1879.83,779.991Z" transform="translate(-1879.004 -779.192)" fill="#331832"/>
        </g>
      </g>
      <g id="Group_1253" data-name="Group 1253" transform="translate(288.311 117.524)">
        <path id="Path_713" data-name="Path 713" d="M2406.144,1028.046a.065.065,0,0,1-.03-.007l-2.836-1.342a.07.07,0,0,1-.033-.093.072.072,0,0,1,.093-.033l2.835,1.343a.07.07,0,0,1-.03.133Z" transform="translate(-2403.239 -1026.565)" fill="#331832"/>
      </g>
      <g id="Group_1256" data-name="Group 1256" transform="translate(136.769 78.471)">
        <g id="Group_1255" data-name="Group 1255">
          <g id="Group_1254" data-name="Group 1254">
            <path id="Path_714" data-name="Path 714" d="M1191.013,718.793s1.258.888,1.93-.253c.856-1.453.514-4.242-.041-3.331a12.062,12.062,0,0,0-.913,2.155s1.022-3.445.244-3.484-1.617,2.939-1.617,2.939.683-3.479-.043-3.268-1.5,2.909-1.5,2.909.847-3.347.011-3.08-.93,2.121-1.142,2.881c-.2.719.19,1.127.887,1.34a2.267,2.267,0,0,0,1.089.646c.184.008.305.234.424.3A4.8,4.8,0,0,0,1191.013,718.793Z" transform="translate(-1187.884 -713.365)" fill="#f8a16a"/>
          </g>
        </g>
      </g>
      <g id="Group_1258" data-name="Group 1258" transform="translate(173.638 91.914)">
        <g id="Group_1257" data-name="Group 1257">
          <path id="Path_715" data-name="Path 715" d="M1490.032,823.937s-2.452-2.533-3.715-2.731-3.027.55-2.271.847a8.047,8.047,0,0,0,1.825.4s-2.294-.1-2.089.473,2.2.638,2.2.638-2.741.11-2.379.583,2.444.374,2.444.374-2.547.209-2.115.748,2.1-.187,2.31.385,1.516,1.324,3.112,1.049Z" transform="translate(-1483.574 -821.173)" fill="#ffb27d"/>
        </g>
      </g>
      <g id="Group_1259" data-name="Group 1259" transform="translate(174.266 78.873)">
        <path id="Path_716" data-name="Path 716" d="M1493.907,731.962c.138-.847,5.433-1.983,5.245-2.648-.344-1.211-7.457-4.021-7.457-4.021l-3.086-8.709a26.435,26.435,0,0,1,11.161,4.032c6.148,4.181,7.351,8.7,5.838,12.121-1.606,3.634-9.161,4.782-10.954,4.37C1491.949,736.485,1493.769,732.809,1493.907,731.962Z" transform="translate(-1488.609 -716.585)" fill="#daebe8"/>
      </g>
      <g id="Group_1260" data-name="Group 1260" transform="translate(178.768 97.427)">
        <path id="Path_717" data-name="Path 717" d="M1528.167,867.351a7.585,7.585,0,0,1-2.511-.3,1.654,1.654,0,0,1-.941-1.594.069.069,0,0,1,.07-.063h.006a.069.069,0,0,1,.064.076,1.485,1.485,0,0,0,.858,1.452,11.923,11.923,0,0,0,3.619.262h0a.07.07,0,0,1,.07.065.069.069,0,0,1-.065.075C1529.292,867.321,1528.8,867.351,1528.167,867.351Z" transform="translate(-1524.713 -865.389)" fill="#331832"/>
      </g>
      <g id="Group_1261" data-name="Group 1261" transform="translate(179.494 92.669)">
        <path id="Path_718" data-name="Path 718" d="M1530.608,828.879a.07.07,0,0,1-.066-.046.071.071,0,0,1,.044-.089.739.739,0,0,0,.148-.152,3.877,3.877,0,0,1,2.947-1.362.079.079,0,0,1,.076.063.07.07,0,0,1-.063.076,3.707,3.707,0,0,0-2.853,1.313c-.09.108-.145.174-.21.2A.1.1,0,0,1,1530.608,828.879Z" transform="translate(-1530.538 -827.228)" fill="#331832"/>
      </g>
      <g id="Group_1262" data-name="Group 1262" transform="translate(179.494 88.44)">
        <path id="Path_719" data-name="Path 719" d="M1533.444,794.79a.065.065,0,0,1-.03-.007l-2.836-1.342a.069.069,0,0,1-.033-.093.07.07,0,0,1,.093-.033l2.836,1.342a.07.07,0,0,1,.033.093A.067.067,0,0,1,1533.444,794.79Z" transform="translate(-1530.539 -793.309)" fill="#331832"/>
      </g>
      <g id="Group_1263" data-name="Group 1263" transform="translate(153.639 171.233)">
        <path id="Path_720" data-name="Path 720" d="M1414.956,1493.52c-8.111-.039-17.005-.3-27.113-.743-4.639-.2-9.534-.444-14.726-.721q-3.2-.17-6.565-.359h0l-41.007-14.293a74.25,74.25,0,0,1-2.091-13.722c-.274-2.461-.275-6.374-.275-6.374s.006.028.018.081a35.325,35.325,0,0,0,2.476,6.978c2.095,4.365,5.68,9.3,11.383,10.207,10.587,1.677,25.388-.916,39.919,8.026C1387.869,1489.3,1402.215,1490.04,1414.956,1493.52Z" transform="translate(-1323.178 -1457.308)" fill="#25607d"/>
      </g>
      <g id="Group_1264" data-name="Group 1264" transform="translate(170.908 71.248)">
        <path id="Path_721" data-name="Path 721" d="M1466.228,663.231a3.88,3.88,0,0,1-3.17,1.7c-2.02.15-1.225-2.082-1.225-2.082a.762.762,0,0,0,.755-.847l.006-.635,0-.315.012-1.006.01-.9.042-3.706,1.185,3.683.2.626.695,2.159a1.955,1.955,0,0,0,1.473,1.329Z" transform="translate(-1461.679 -655.433)" fill="#ffb27d"/>
      </g>
      <g id="Group_1265" data-name="Group 1265" transform="translate(171.827 75.556)">
        <path id="Path_722" data-name="Path 722" d="M1470.5,689.986s-.522,1.133-1.451,1.308l.012-1.006C1469.639,690.124,1470.5,689.986,1470.5,689.986Z" transform="translate(-1469.051 -689.986)" fill="#331832"/>
      </g>
      <g id="Group_1267" data-name="Group 1267" transform="translate(173.737 71.739)">
        <g id="Group_1266" data-name="Group 1266">
          <path id="Path_723" data-name="Path 723" d="M1487.081,659.372a4.275,4.275,0,0,0-.258,1.842c.033,1.89-2.087,2.1-2.456,1.458-.046-.079.788-3.05.788-3.05l.715-.213Z" transform="translate(-1484.365 -659.372)" fill="#331832"/>
        </g>
      </g>
      <g id="Group_1268" data-name="Group 1268" transform="translate(167.946 66.901)">
        <ellipse id="Ellipse_111" data-name="Ellipse 111" cx="4.276" cy="3.35" rx="4.276" ry="3.35" transform="translate(0 8.358) rotate(-77.755)" fill="#ffb27d"/>
      </g>
      <g id="Group_1269" data-name="Group 1269" transform="translate(168.95 66.88)">
        <path id="Path_724" data-name="Path 724" d="M1448.655,621.786c.058.152-.987,2.146,2.687,3.693s2.595-3.87-.183-4.744c-4.011-1.263-5.312,1.407-5.179,2.531S1448.655,621.786,1448.655,621.786Z" transform="translate(-1445.97 -620.404)" fill="#331832"/>
      </g>
      <g id="Group_1270" data-name="Group 1270" transform="translate(174.073 71.162)">
        <path id="Path_725" data-name="Path 725" d="M1487.06,654.747s1.126,2.127.15,3.719c0,0,1.158-.777,1.274-1.154a15.811,15.811,0,0,0,.223-1.821Z" transform="translate(-1487.06 -654.747)" fill="#331832"/>
      </g>
      <g id="Group_1271" data-name="Group 1271" transform="translate(173.528 71.627)">
        <path id="Path_726" data-name="Path 726" d="M1483.921,660.028a.8.8,0,0,1-1.165-.229.969.969,0,0,1,.492-1.183.8.8,0,0,1,1.165.229A.968.968,0,0,1,1483.921,660.028Z" transform="translate(-1482.691 -658.47)" fill="#ffb27d"/>
      </g>
      <g id="Group_1273" data-name="Group 1273" transform="translate(171.754 71.589)">
        <g id="Group_1272" data-name="Group 1272">
          <path id="Path_727" data-name="Path 727" d="M1468.5,658.328a.08.08,0,0,1,.028-.147.812.812,0,0,1,.9.481.077.077,0,1,1-.133.076,1.284,1.284,0,0,0-.745-.4A.073.073,0,0,1,1468.5,658.328Z" transform="translate(-1468.463 -658.167)" fill="#080435"/>
        </g>
      </g>
      <g id="Group_1274" data-name="Group 1274" transform="translate(171.687 72.355)">
        <path id="Path_728" data-name="Path 728" d="M1468.4,664.708c-.04.184-.177.308-.305.278s-.2-.2-.16-.388.177-.308.305-.278S1468.44,664.524,1468.4,664.708Z" transform="translate(-1467.922 -664.315)" fill="#080435"/>
      </g>
      <g id="Group_1276" data-name="Group 1276" transform="translate(169 71.146)">
        <g id="Group_1275" data-name="Group 1275">
          <path id="Path_729" data-name="Path 729" d="M1446.445,654.9a.076.076,0,0,1-.056-.04.081.081,0,0,1,.028-.108.8.8,0,0,1,1,.089.078.078,0,0,1-.1.123,1.255,1.255,0,0,0-.834-.075A.072.072,0,0,1,1446.445,654.9Z" transform="translate(-1446.379 -654.616)" fill="#080435"/>
        </g>
      </g>
      <g id="Group_1277" data-name="Group 1277" transform="translate(169.3 71.909)">
        <path id="Path_730" data-name="Path 730" d="M1449.256,661.038c.03.186-.051.355-.18.378s-.26-.11-.29-.3.051-.355.18-.378S1449.224,660.852,1449.256,661.038Z" transform="translate(-1448.779 -660.739)" fill="#080435"/>
      </g>
      <g id="Group_1278" data-name="Group 1278" transform="translate(171.034 70.48)" opacity="0.3">
        <path id="Path_731" data-name="Path 731" d="M1465.306,650.864a2.271,2.271,0,0,1-1.221,2.3c-.723.207-1.348-.488-1.4-1.552a2.271,2.271,0,0,1,1.221-2.3C1464.633,649.1,1465.258,649.8,1465.306,650.864Z" transform="translate(-1462.686 -649.275)" fill="#fff"/>
      </g>
      <g id="Group_1279" data-name="Group 1279" transform="translate(167.92 70.177)" opacity="0.3">
        <path id="Path_732" data-name="Path 732" d="M1440.068,648.466a2.389,2.389,0,0,1-1.293,2.179c-.648.16-1.121-.557-1.056-1.6a2.389,2.389,0,0,1,1.293-2.179C1439.66,646.706,1440.133,647.422,1440.068,648.466Z" transform="translate(-1437.713 -646.843)" fill="#fff"/>
      </g>
      <g id="Group_1281" data-name="Group 1281" transform="translate(170.83 70.196)">
        <g id="Group_1280" data-name="Group 1280">
          <path id="Path_733" data-name="Path 733" d="M1463.963,648.724c0-.083-.01-.161-.021-.24h0a1.87,1.87,0,0,0-.645-1.266,1,1,0,0,0-.9-.177,1.192,1.192,0,0,0-.193.074,2.244,2.244,0,0,0-1.072,1.552h0a1.974,1.974,0,0,0-.045.242h0a2.9,2.9,0,0,0-.031.594,2.822,2.822,0,0,0,.084.548,1.7,1.7,0,0,0,.584.96,1.1,1.1,0,0,0,.356.18,1.068,1.068,0,0,0,.115.025,1,1,0,0,0,.433-.028,1.245,1.245,0,0,0,.427-.215l.008-.006a2.335,2.335,0,0,0,.769-1.182h0c.017-.052.032-.1.045-.156a3,3,0,0,0,.066-.335,3.242,3.242,0,0,0,.028-.422h0C1463.967,648.82,1463.965,648.773,1463.963,648.724Zm-2.464,1.858a1.935,1.935,0,0,1-.242-.565,2.5,2.5,0,0,1-.078-.521,2.878,2.878,0,0,1,.022-.538h0a2.311,2.311,0,0,1,.045-.246h0a2.087,2.087,0,0,1,1.032-1.491h0a.934.934,0,0,1,.525-.078.919.919,0,0,1,.416.182,1.417,1.417,0,0,1,.429.574,1.975,1.975,0,0,1,.1.31.022.022,0,0,0,0,.01.018.018,0,0,0,0,.008s0,0,0,.006,0,0,0,0a1.469,1.469,0,0,1,.036.173h0a2.389,2.389,0,0,1,.036.321,2.728,2.728,0,0,1,0,.356v0c-.005.08-.015.158-.026.236s-.029.165-.049.243h0a2.315,2.315,0,0,1-.72,1.249l-.028.022a1.2,1.2,0,0,1-.419.218.9.9,0,0,1-.49,0l-.022-.007a.918.918,0,0,1-.284-.151,1.247,1.247,0,0,1-.289-.317l0,0Z" transform="translate(-1461.049 -646.999)" fill="#68a1bf"/>
        </g>
      </g>
      <g id="Group_1283" data-name="Group 1283" transform="translate(167.797 69.94)">
        <g id="Group_1282" data-name="Group 1282">
          <path id="Path_734" data-name="Path 734" d="M1439.163,647.077l-.031.01a3.223,3.223,0,0,1-.2.836v0s0,0,0,0a.055.055,0,0,0,.006-.015c.011-.022.021-.046.031-.07h0a.045.045,0,0,1,0-.013l.021-.052c.005-.017.012-.035.018-.053s.018-.046.027-.07a.02.02,0,0,1,0-.008c.008-.027.018-.053.027-.08s.015-.056.024-.085l.021-.08c.014-.052.025-.1.036-.159s.02-.109.028-.165Zm0,0-.031.01a3.223,3.223,0,0,1-.2.836v0s0,0,0,0a.055.055,0,0,0,.006-.015c.011-.022.021-.046.031-.07h0a.045.045,0,0,1,0-.013l.021-.052c.005-.017.012-.035.018-.053s.018-.046.027-.07a.02.02,0,0,1,0-.008c.008-.027.018-.053.027-.08s.015-.056.024-.085l.021-.08c.014-.052.025-.1.036-.159s.02-.109.028-.165Zm0,0-.031.01a3.223,3.223,0,0,1-.2.836v0s0,0,0,0a.055.055,0,0,0,.006-.015c.011-.022.021-.046.031-.07h0a.045.045,0,0,1,0-.013l.021-.052c.005-.017.012-.035.018-.053s.018-.046.027-.07a.02.02,0,0,1,0-.008c.008-.027.018-.053.027-.08s.015-.056.024-.085l.021-.08c.014-.052.025-.1.036-.159s.02-.109.028-.165Zm0,0-.031.01a3.223,3.223,0,0,1-.2.836v0s0,0,0,0a.055.055,0,0,0,.006-.015c.011-.022.021-.046.031-.07h0a.045.045,0,0,1,0-.013l.021-.052c.005-.017.012-.035.018-.053s.018-.046.027-.07a.02.02,0,0,1,0-.008c.008-.027.018-.053.027-.08s.015-.056.024-.085l.021-.08c.014-.052.025-.1.036-.159s.02-.109.028-.165Zm0,0-.031.01a3.223,3.223,0,0,1-.2.836v0s0,0,0,0a.055.055,0,0,0,.006-.015c.011-.022.021-.046.031-.07h0a.045.045,0,0,1,0-.013l.021-.052c.005-.017.012-.035.018-.053s.018-.046.027-.07a.02.02,0,0,1,0-.008c.008-.027.018-.053.027-.08s.015-.056.024-.085l.021-.08c.014-.052.025-.1.036-.159s.02-.109.028-.165Zm0,0-.031.01a3.223,3.223,0,0,1-.2.836v0s0,0,0,0a.055.055,0,0,0,.006-.015c.011-.022.021-.046.031-.07h0a.045.045,0,0,1,0-.013l.021-.052c.005-.017.012-.035.018-.053s.018-.046.027-.07a.02.02,0,0,1,0-.008c.008-.027.018-.053.027-.08s.015-.056.024-.085l.021-.08c.014-.052.025-.1.036-.159s.02-.109.028-.165Zm0,0-.031.01a3.223,3.223,0,0,1-.2.836v0s0,0,0,0a.055.055,0,0,0,.006-.015c.011-.022.021-.046.031-.07h0a.045.045,0,0,1,0-.013l.021-.052c.005-.017.012-.035.018-.053s.018-.046.027-.07a.02.02,0,0,1,0-.008c.008-.027.018-.053.027-.08s.015-.056.024-.085l.021-.08c.014-.052.025-.1.036-.159s.02-.109.028-.165Zm0,0-.031.01a3.223,3.223,0,0,1-.2.836v0s0,0,0,0a.055.055,0,0,0,.006-.015c.011-.022.021-.046.031-.07h0a.045.045,0,0,1,0-.013l.021-.052c.005-.017.012-.035.018-.053s.018-.046.027-.07a.02.02,0,0,1,0-.008c.008-.027.018-.053.027-.08s.015-.056.024-.085l.021-.08c.014-.052.025-.1.036-.159s.02-.109.028-.165Zm-.494-1.955a.906.906,0,0,0-.271-.143h0a.788.788,0,0,0-.236-.036.823.823,0,0,0-.173.024h0c-.014,0-.031.007-.045.01a2.433,2.433,0,0,0-1.21,2.394,2.023,2.023,0,0,0,.608,1.55.829.829,0,0,0,.3.151.771.771,0,0,0,.379.007h0c.015,0,.032-.007.048-.013a1.318,1.318,0,0,0,.673-.521h0a2.826,2.826,0,0,0,.433-.964,3.2,3.2,0,0,0,.087-.526c.01-.082.014-.165.016-.247h0c0-.045,0-.088,0-.133A2.025,2.025,0,0,0,1438.669,645.122Zm.263,2.8a0,0,0,0,0,0,0,.348.348,0,0,0-.014.035,2.236,2.236,0,0,1-.388.64,1.113,1.113,0,0,1-.421.306s0,0,0,0h0l-.015.007a.481.481,0,0,1-.057.02.575.575,0,0,1-.067.015h0a.661.661,0,0,1-.548-.14,1.872,1.872,0,0,1-.556-1.418v0h0s0,0,0,0v-.006a.045.045,0,0,0,0-.014c-.022-1.065.479-2.079,1.119-2.264a.69.69,0,0,1,.363-.005.725.725,0,0,1,.253.129.227.227,0,0,1,.018.017,1.337,1.337,0,0,1,.38.562,2.614,2.614,0,0,1,.159.869v.152q0,.13-.017.26a3.228,3.228,0,0,1-.2.836v0Zm.231-.85-.031.01a3.223,3.223,0,0,1-.2.836v0s0,0,0,0a.055.055,0,0,0,.006-.015c.011-.022.021-.046.031-.07h0a.045.045,0,0,1,0-.013l.021-.052c.005-.017.012-.035.018-.053s.018-.046.027-.07a.02.02,0,0,1,0-.008c.008-.027.018-.053.027-.08s.015-.056.024-.085l.021-.08c.014-.052.025-.1.036-.159s.02-.109.028-.165Zm0,0-.031.01a3.223,3.223,0,0,1-.2.836v0s0,0,0,0a.055.055,0,0,0,.006-.015c.011-.022.021-.046.031-.07h0a.045.045,0,0,1,0-.013l.021-.052c.005-.017.012-.035.018-.053s.018-.046.027-.07a.02.02,0,0,1,0-.008c.008-.027.018-.053.027-.08s.015-.056.024-.085l.021-.08c.014-.052.025-.1.036-.159s.02-.109.028-.165Zm0,0-.031.01a3.223,3.223,0,0,1-.2.836v0s0,0,0,0a.055.055,0,0,0,.006-.015c.011-.022.021-.046.031-.07h0a.045.045,0,0,1,0-.013l.021-.052c.005-.017.012-.035.018-.053s.018-.046.027-.07a.02.02,0,0,1,0-.008c.008-.027.018-.053.027-.08s.015-.056.024-.085l.021-.08c.014-.052.025-.1.036-.159s.02-.109.028-.165Zm0,0-.031.01a3.223,3.223,0,0,1-.2.836v0s0,0,0,0a.055.055,0,0,0,.006-.015c.011-.022.021-.046.031-.07h0a.045.045,0,0,1,0-.013l.021-.052c.005-.017.012-.035.018-.053s.018-.046.027-.07a.02.02,0,0,1,0-.008c.008-.027.018-.053.027-.08s.015-.056.024-.085l.021-.08c.014-.052.025-.1.036-.159s.02-.109.028-.165Zm0,0-.031.01a3.223,3.223,0,0,1-.2.836v0s0,0,0,0a.055.055,0,0,0,.006-.015c.011-.022.021-.046.031-.07h0a.045.045,0,0,1,0-.013l.021-.052c.005-.017.012-.035.018-.053s.018-.046.027-.07a.02.02,0,0,1,0-.008c.008-.027.018-.053.027-.08s.015-.056.024-.085l.021-.08c.014-.052.025-.1.036-.159s.02-.109.028-.165Zm0,0-.031.01a3.223,3.223,0,0,1-.2.836v0s0,0,0,0a.055.055,0,0,0,.006-.015c.011-.022.021-.046.031-.07h0a.045.045,0,0,1,0-.013l.021-.052c.005-.017.012-.035.018-.053s.018-.046.027-.07a.02.02,0,0,1,0-.008c.008-.027.018-.053.027-.08s.015-.056.024-.085l.021-.08c.014-.052.025-.1.036-.159s.02-.109.028-.165Zm0,0-.031.01a3.223,3.223,0,0,1-.2.836v0s0,0,0,0a.055.055,0,0,0,.006-.015c.011-.022.021-.046.031-.07h0a.045.045,0,0,1,0-.013l.021-.052c.005-.017.012-.035.018-.053s.018-.046.027-.07a.02.02,0,0,1,0-.008c.008-.027.018-.053.027-.08s.015-.056.024-.085l.021-.08c.014-.052.025-.1.036-.159s.02-.109.028-.165Z" transform="translate(-1436.73 -644.943)" fill="#68a1bf"/>
        </g>
      </g>
      <g id="Group_1285" data-name="Group 1285" transform="translate(170.026 71.792)">
        <g id="Group_1284" data-name="Group 1284">
          <path id="Path_735" data-name="Path 735" d="M1454.69,660.1a.119.119,0,0,1-.078-.07.125.125,0,0,1,.061-.161,1.241,1.241,0,0,1,1.055.108.125.125,0,0,1,.05.165.116.116,0,0,1-.159.052,1.019,1.019,0,0,0-.853-.1A.113.113,0,0,1,1454.69,660.1Z" transform="translate(-1454.602 -659.8)" fill="#331832"/>
        </g>
      </g>
      <g id="Group_1287" data-name="Group 1287" transform="translate(173.758 75.505)">
        <g id="Group_1286" data-name="Group 1286">
          <path id="Path_736" data-name="Path 736" d="M1485.848,690.98a.071.071,0,0,0,.042-.008.078.078,0,0,0,.031-.1,3.369,3.369,0,0,0-1.281-1.288.072.072,0,0,0-.1.031.078.078,0,0,0,.03.1,3.269,3.269,0,0,1,1.22,1.225A.075.075,0,0,0,1485.848,690.98Z" transform="translate(-1484.531 -689.572)" fill="#331832"/>
        </g>
      </g>
      <g id="Group_1288" data-name="Group 1288" transform="translate(169.754 74.077)">
        <path id="Path_737" data-name="Path 737" d="M1452.456,678.589a.038.038,0,0,1-.022-.008.037.037,0,0,1-.006-.051,1.034,1.034,0,0,1,1.331-.268.037.037,0,0,1,.013.05.04.04,0,0,1-.05.013.938.938,0,0,0-1.238.252A.038.038,0,0,1,1452.456,678.589Z" transform="translate(-1452.42 -678.123)" fill="#020202"/>
      </g>
      <g id="Group_1290" data-name="Group 1290" transform="translate(294.981 125.769)">
        <g id="Group_1289" data-name="Group 1289">
          <path id="Path_738" data-name="Path 738" d="M2456.983,1093.369c7.391,1.421,5.343,8.354,8.661,13.012a16.171,16.171,0,0,0,2.867,2.8c2.929,2.521,4.788,4.919,5.459,8.814.076.442.75.255.674-.186a13.387,13.387,0,0,0-2.226-5.818c-2.629-3.709-6.619-5.083-7.855-9.941-1.219-4.792-1.962-8.311-7.393-9.355-.439-.084-.627.589-.186.674Z" transform="translate(-2456.732 -1092.688)" fill="#764678"/>
        </g>
      </g>
      <g id="Group_1292" data-name="Group 1292" transform="translate(282.455 120.841)">
        <g id="Group_1291" data-name="Group 1291">
          <path id="Path_739" data-name="Path 739" d="M2362.732,1055.929s-2.452-2.533-3.715-2.731-3.027.55-2.271.847a8.065,8.065,0,0,0,1.826.4s-2.294-.1-2.089.473,2.2.638,2.2.638-2.741.11-2.379.583,2.444.374,2.444.374-2.547.209-2.114.748,2.1-.187,2.31.385,1.516,1.324,3.112,1.05Z" transform="translate(-2356.274 -1053.165)" fill="#ffb27d"/>
        </g>
      </g>
      <g id="Group_1293" data-name="Group 1293" transform="translate(285.826 108.601)">
        <path id="Path_740" data-name="Path 740" d="M2385.864,969.578c.138-.847,5.433-1.983,5.244-2.648-.344-1.211-7.457-4.021-7.457-4.021l-.343-7.9s3.277-.269,8.418,3.226c6.149,4.181,7.352,8.7,5.839,12.121-1.606,3.634-9.161,4.782-10.955,4.37C2383.906,974.1,2385.725,970.424,2385.864,969.578Z" transform="translate(-2383.308 -955.002)" fill="#68a1bf"/>
      </g>
      <g id="Group_1294" data-name="Group 1294" transform="translate(287.585 126.354)">
        <path id="Path_741" data-name="Path 741" d="M2400.873,1099.345a7.568,7.568,0,0,1-2.514-.307,1.653,1.653,0,0,1-.941-1.593.07.07,0,0,1,.07-.063h.006a.07.07,0,0,1,.064.076,1.48,1.48,0,0,0,.857,1.45,11.825,11.825,0,0,0,3.618.264h0a.07.07,0,0,1,0,.139C2401.994,1099.315,2401.5,1099.345,2400.873,1099.345Z" transform="translate(-2397.416 -1097.383)" fill="#331832"/>
      </g>
      <g id="Group_1295" data-name="Group 1295" transform="translate(288.311 121.593)">
        <path id="Path_742" data-name="Path 742" d="M2403.309,1060.854a.07.07,0,0,1-.024-.136.766.766,0,0,0,.148-.153,3.879,3.879,0,0,1,2.948-1.364.072.072,0,0,1,.076.063.07.07,0,0,1-.063.076,3.705,3.705,0,0,0-2.854,1.314c-.091.108-.144.172-.208.2A.077.077,0,0,1,2403.309,1060.854Z" transform="translate(-2403.238 -1059.201)" fill="#331832"/>
      </g>
      <g id="Group_1298" data-name="Group 1298" transform="translate(92.517 60.778)">
        <g id="Group_1297" data-name="Group 1297">
          <g id="Group_1296" data-name="Group 1296">
            <path id="Path_743" data-name="Path 743" d="M836.76,577.142s1.515.77,2.068-.582c.7-1.722-.111-4.714-.573-3.631a13.322,13.322,0,0,0-.655,2.5s.57-3.924-.286-3.844-1.3,3.466-1.3,3.466.195-3.908-.565-3.562-1.182,3.416-1.182,3.416.394-3.789-.477-3.366-.679,2.463-.791,3.327c-.105.817.386,1.2,1.181,1.323a2.5,2.5,0,0,0,1.291.533c.2-.02.37.208.511.257A5.313,5.313,0,0,0,836.76,577.142Z" transform="translate(-832.985 -571.466)" fill="#f8a16a"/>
          </g>
        </g>
      </g>
      <g id="Group_1300" data-name="Group 1300" transform="translate(58.609 55.267)">
        <g id="Group_1299" data-name="Group 1299">
          <path id="Path_744" data-name="Path 744" d="M562.383,528.615c.66-.331,2.107-.677,2.773-.995.289-.138,1.292-.531,1.465-.25.15.245-.5.952-.849,1.25,2.572.456,5.731,2.083.541,1.435v.008c.441.092,3.7.652,3.381,1.384-.235.536-2.9-.011-3.631-.155l-.006.021c.728.213,2.958.728,2.757,1.252-.264.69-3.119-.074-3.119-.074s2.383.57,1.816,1.192c-.32.351-1.719-.035-2.587-.289h0c-.182-.053-.341-.1-.461-.134a1.179,1.179,0,0,1-.261-.106,10.746,10.746,0,0,1-2.262-1.1,1.657,1.657,0,0,1-.852-1.846A2.577,2.577,0,0,1,562.383,528.615Z" transform="translate(-561.052 -527.271)" fill="#ffb27d"/>
        </g>
      </g>
      <g id="Group_1301" data-name="Group 1301" transform="translate(45.374 38.957)">
        <path id="Path_745" data-name="Path 745" d="M470.22,413.524c-.275-.809-7.463-2.072-6.952-3.189.521-1.14,5.291-4.493,5.291-4.493l1.823-9.38s-7.078.533-10.836,5.6-5.5,8.763-4.232,11.744c1.557,3.657,10.6,5.95,12.3,5.22C470.18,417.929,470.495,414.333,470.22,413.524Z" transform="translate(-454.903 -396.462)" fill="#6da49a"/>
      </g>
      <g id="Group_1302" data-name="Group 1302" transform="translate(55.478 60.104)">
        <path id="Path_746" data-name="Path 746" d="M536.968,567.639a4.61,4.61,0,0,1-.964-.091.08.08,0,0,1-.06-.1.078.078,0,0,1,.1-.06,4.281,4.281,0,0,0,4.069-1.3.084.084,0,0,1,.114-.013.08.08,0,0,1,.013.113A4.057,4.057,0,0,1,536.968,567.639Z" transform="translate(-535.942 -566.059)" fill="#4f8a80"/>
      </g>
      <g id="Group_1303" data-name="Group 1303" transform="translate(54.883 53.778)">
        <path id="Path_747" data-name="Path 747" d="M537.035,517.925a.091.091,0,0,1-.045-.013.082.082,0,0,1-.024-.111.154.154,0,0,0,0-.131c-.037-.1-.189-.3-.786-.517-1.066-.381-4.916-1.656-4.955-1.669a.081.081,0,0,1-.051-.1.079.079,0,0,1,.1-.051c.038.012,3.891,1.288,4.958,1.669.511.182.81.393.888.625a.307.307,0,0,1-.02.263A.08.08,0,0,1,537.035,517.925Z" transform="translate(-531.169 -515.327)" fill="#4f8a80"/>
      </g>
      <g id="Group_1304" data-name="Group 1304" transform="translate(54.423 50.126)">
        <path id="Path_748" data-name="Path 748" d="M527.557,487.9a.081.081,0,0,1-.052-.142l2.01-1.7a.079.079,0,0,1,.113.008.081.081,0,0,1-.009.114l-2.01,1.7A.078.078,0,0,1,527.557,487.9Z" transform="translate(-527.476 -486.037)" fill="#4f8a80"/>
      </g>
      <g id="Group_1305" data-name="Group 1305" transform="translate(234.348 102.958)">
        <path id="Path_749" data-name="Path 749" d="M1970.507,910.816a.023.023,0,0,1-.01,0,.045.045,0,0,1-.035-.055,2.213,2.213,0,0,1,.79-1,.047.047,0,0,1,.055.076,2.141,2.141,0,0,0-.755.948A.044.044,0,0,1,1970.507,910.816Z" transform="translate(-1970.461 -909.747)" fill="#331832"/>
      </g>
      <g id="Group_1306" data-name="Group 1306" transform="translate(235.48 108.029)">
        <path id="Path_750" data-name="Path 750" d="M1981.64,951.579a3.273,3.273,0,0,1-2.088-1.087.046.046,0,0,1,0-.065.049.049,0,0,1,.065,0,3.023,3.023,0,0,0,2.261,1.038c1.188-.181,2.282-.459,2.293-.462.028,0,.05.01.056.033a.047.047,0,0,1-.033.056c-.011,0-1.11.283-2.3.462A1.683,1.683,0,0,1,1981.64,951.579Z" transform="translate(-1979.541 -950.417)" fill="#331832"/>
      </g>
      <g id="Group_1307" data-name="Group 1307" transform="translate(233.793 94.593)">
        <path id="Path_751" data-name="Path 751" d="M1973.7,846.406c-2.045-1.787-7.409-3.547-7.692-3.606l.03-.139c.3.061,5.649,1.8,7.756,3.636Z" transform="translate(-1966.013 -842.66)" fill="#331832"/>
      </g>
      <g id="Group_1308" data-name="Group 1308" transform="translate(127.056 47.129)" opacity="0.6">
        <path id="Path_752" data-name="Path 752" d="M1130.771,464.888a6.032,6.032,0,0,0-5.981-2.85c-4.287.408-3.776,3.674-5.818,3.368s-4.9,0-5.511,2.041-3.368.919-3.47,2.654,3.164,2.96,6.94,1.429,5.614,1.189,10.921.7,5.965-1.105,9.106-.8,3.067-1.845,1.638-3.274S1131.383,466.861,1130.771,464.888Z" transform="translate(-1109.988 -462.002)" fill="#fff"/>
      </g>
      <g id="Group_1309" data-name="Group 1309" transform="translate(237.67 51.921)" opacity="0.6">
        <path id="Path_753" data-name="Path 753" d="M2033.551,505.495a10.579,10.579,0,0,0-10.489-5c-7.518.716-6.623,6.444-10.2,5.907s-8.592,0-9.666,3.58-5.907,1.611-6.086,4.654,5.549,5.191,12.172,2.506,9.845,2.086,19.153,1.222,10.461-1.938,15.971-1.4,5.378-3.235,2.872-5.741S2034.624,508.955,2033.551,505.495Z" transform="translate(-1997.103 -500.434)" fill="#fff"/>
      </g>
      <g id="Group_1310" data-name="Group 1310" transform="translate(151.536 23.301)" opacity="0.3">
        <path id="Path_754" data-name="Path 754" d="M1348.452,276.755a12.231,12.231,0,0,0-12.127-5.779c-8.692.828-7.657,7.45-11.8,6.829s-9.933,0-11.175,4.139-6.829,1.863-7.036,5.381,6.415,6,14.072,2.9,11.382,2.411,22.143,1.413,12.094-2.241,18.464-1.62,6.218-3.74,3.321-6.638S1349.692,280.756,1348.452,276.755Z" transform="translate(-1306.313 -270.904)" fill="#fff"/>
      </g>
    </g>
  </g>
  <circle id="Ellipse_114" data-name="Ellipse 114" cx="53.198" cy="53.198" r="53.198" transform="translate(0 166.363)" fill="#ffd855"/>
  <ellipse id="Ellipse_115" data-name="Ellipse 115" cx="53.198" cy="52.714" rx="53.198" ry="52.714" transform="translate(331.759)" fill="#5580e1"/>
  <text id="Emotion_Tracker" data-name="Emotion Tracker" transform="translate(161.527 307.136)" fill="#292d32" font-size="21" font-family="SegoeUI, Segoe UI"><tspan x="0" y="0">Emotion Tracker</tspan></text>
  <text id="Know_about_your_emotions_betterthan_before." data-name="Know about your emotions betterthan before." transform="translate(100.592 331.153)" fill="#292d32" font-size="14" font-family="SegoeUI, Segoe UI"><tspan x="0" y="0">Know about your emotions betterthan before.</tspan></text>
  <text id="Track_mood" data-name="Track 
mood" transform="translate(52.246 207.642)" fill="#292d32" font-size="27" font-family="SegoeUI, Segoe UI"><tspan x="-34.106" y="0">Track </tspan><tspan x="-35.398" y="36">mood</tspan></text>
  <text id="Create_routine" data-name="Create
routine" transform="translate(384.006 44.082)" fill="#fcfffa" font-size="23" font-family="SegoeUI, Segoe UI"><tspan x="-32.894" y="0">Create</tspan><tspan x="-36.448" y="31">routine</tspan></text>
</svg>
