<svg xmlns="http://www.w3.org/2000/svg" xmlns:xlink="http://www.w3.org/1999/xlink" width="95.321" height="94.747" viewBox="0 0 95.321 94.747">
  <defs>
    <filter id="Subtraction_159" x="0" y="0" width="95.321" height="94.747" filterUnits="userSpaceOnUse">
      <feOffset input="SourceAlpha"/>
      <feGaussianBlur stdDeviation="5.5" result="blur"/>
      <feFlood flood-color="#292d32" flood-opacity="0.161"/>
      <feComposite operator="in" in2="blur"/>
      <feComposite in="SourceGraphic"/>
    </filter>
  </defs>
  <g transform="matrix(1, 0, 0, 1, 0, 0)" filter="url(#Subtraction_159)">
    <g id="Subtraction_159-2" data-name="Subtraction 159" transform="translate(-936.5 -9577.5)" fill="#e5e2f7">
      <path d="M 984.447265625 9654.7470703125 C 981.424072265625 9654.7470703125 978.444580078125 9654.296875 975.591552734375 9653.41015625 C 973.8243408203125 9652.912109375 972.0926513671875 9652.2451171875 970.4444580078125 9651.42578125 C 969.8900146484375 9651.1474609375 969.2926025390625 9651.0009765625 968.7128295898438 9651.0009765625 C 968.418212890625 9651.0009765625 968.1315307617188 9651.0380859375 967.8607788085938 9651.1103515625 L 961.484130859375 9652.8212890625 C 961.0726318359375 9652.9306640625 960.6573486328125 9652.9853515625 960.246826171875 9652.9853515625 C 958.7996215820312 9652.9853515625 957.4022827148438 9652.291015625 956.5089721679688 9651.1279296875 C 955.6112060546875 9649.9580078125 955.3162231445312 9648.4658203125 955.6993408203125 9647.0341796875 L 957.4024047851562 9640.658203125 C 957.6245727539062 9639.8359375 957.5150146484375 9638.91796875 957.0947265625 9638.0703125 C 955.04052734375 9633.951171875 953.9984741210938 9629.5107421875 953.9984741210938 9624.875 C 953.9984741210938 9621.5498046875 954.545166015625 9618.28515625 955.623291015625 9615.171875 C 956.66455078125 9612.1630859375 958.1819458007812 9609.3515625 960.1331787109375 9606.8154296875 C 962.0613403320312 9604.3076171875 964.3652954101562 9602.1337890625 966.9808959960938 9600.3525390625 C 969.631103515625 9598.5478515625 972.534912109375 9597.1943359375 975.6115112304688 9596.330078125 C 978.4605712890625 9595.447265625 981.433349609375 9595 984.447265625 9595 C 988.4766235351562 9595 992.38818359375 9595.7900390625 996.0733032226562 9597.34765625 C 999.6298828125 9598.8515625 1002.824462890625 9601.005859375 1005.568603515625 9603.7490234375 C 1008.312377929688 9606.4931640625 1010.466369628906 9609.6884765625 1011.971008300781 9613.2451171875 C 1013.529296875 9616.9296875 1014.319458007812 9620.8427734375 1014.319458007812 9624.875 C 1014.319458007812 9628.90625 1013.529296875 9632.818359375 1011.970947265625 9636.501953125 C 1010.465759277344 9640.0595703125 1008.311767578125 9643.25390625 1005.568664550781 9645.9970703125 C 1002.827270507812 9648.7392578125 999.6326904296875 9650.892578125 996.0737915039062 9652.3994140625 C 992.3881225585938 9653.95703125 988.4765625 9654.7470703125 984.447265625 9654.7470703125 Z M 976.7379760742188 9620.2626953125 L 976.73876953125 9620.2626953125 L 991.5798950195312 9620.2626953125 L 992.342041015625 9620.2626953125 L 992.5440673828125 9620.9970703125 C 993.31396484375 9623.796875 995.3206176757812 9625.677734375 997.5374755859375 9625.677734375 C 998.906494140625 9625.677734375 1000.211547851562 9624.96875 1001.212280273438 9623.6826171875 C 1002.270751953125 9622.3212890625 1002.853698730469 9620.5009765625 1002.853698730469 9618.556640625 C 1002.853698730469 9616.6123046875 1002.270751953125 9614.7919921875 1001.212280273438 9613.4306640625 C 1000.211547851562 9612.14453125 998.906494140625 9611.435546875 997.5374755859375 9611.435546875 C 996.271484375 9611.435546875 995.0424194335938 9612.046875 994.07666015625 9613.158203125 C 993.055908203125 9614.33203125 992.4094848632812 9615.9599609375 992.2564086914062 9617.7412109375 L 992.1778564453125 9618.6552734375 L 991.2600708007812 9618.6552734375 L 977.0602416992188 9618.6552734375 L 976.14306640625 9618.6552734375 L 976.06396484375 9617.7412109375 C 975.9097900390625 9615.9599609375 975.2626953125 9614.33203125 974.241943359375 9613.158203125 C 973.2761840820312 9612.046875 972.0477294921875 9611.435546875 970.7828369140625 9611.435546875 C 969.4138793945312 9611.435546875 968.1088256835938 9612.14453125 967.1080932617188 9613.4306640625 C 966.0496215820312 9614.7919921875 965.4666748046875 9616.6123046875 965.4666748046875 9618.556640625 C 965.4666748046875 9620.5009765625 966.0496215820312 9622.3212890625 967.1080932617188 9623.6826171875 C 968.1088256835938 9624.96875 969.4138793945312 9625.677734375 970.7828369140625 9625.677734375 C 972.9873657226562 9625.677734375 974.9843139648438 9623.8154296875 975.7622680664062 9621.0390625 L 975.9047241210938 9620.263671875 L 976.7379760742188 9620.2626953125 Z" stroke="none"/>
      <path d="M 984.447265625 9653.7470703125 C 988.3430786132812 9653.7470703125 992.1236572265625 9652.9833984375 995.6839599609375 9651.478515625 C 999.1237182617188 9650.0224609375 1002.211486816406 9647.9404296875 1004.861572265625 9645.2900390625 C 1007.51318359375 9642.638671875 1009.595275878906 9639.55078125 1011.049987792969 9636.1123046875 C 1012.555908203125 9632.552734375 1013.319458007812 9628.7724609375 1013.319458007812 9624.875 C 1013.319458007812 9620.9765625 1012.555908203125 9617.1953125 1011.049987792969 9613.634765625 C 1009.595581054688 9610.1962890625 1007.513488769531 9607.1083984375 1004.861572265625 9604.4560546875 C 1002.209411621094 9601.8046875 999.1216430664062 9599.72265625 995.6839599609375 9598.2685546875 C 992.1237182617188 9596.763671875 988.3431396484375 9596 984.447265625 9596 C 981.5296630859375 9596 978.6522216796875 9596.43359375 975.8948974609375 9597.2890625 C 972.91796875 9598.1240234375 970.1082763671875 9599.4326171875 967.5438232421875 9601.1787109375 C 965.0158081054688 9602.900390625 962.7891845703125 9605.001953125 960.92578125 9607.4248046875 C 959.0408935546875 9609.875 957.5747680664062 9612.5908203125 956.5682373046875 9615.4990234375 C 955.526611328125 9618.5068359375 954.9984741210938 9621.6611328125 954.9984741210938 9624.875 C 954.9984741210938 9629.3544921875 956.0051879882812 9633.64453125 957.9906005859375 9637.6259765625 C 958.51953125 9638.6923828125 958.6537475585938 9639.8603515625 958.3685302734375 9640.916015625 L 956.6653442382812 9647.29296875 C 956.3632202148438 9648.421875 956.5952758789062 9649.59765625 957.3020629882812 9650.5185546875 C 958.0070190429688 9651.4365234375 959.1078491210938 9651.9853515625 960.246826171875 9651.9853515625 C 960.57177734375 9651.9853515625 960.90087890625 9651.94140625 961.2249755859375 9651.85546875 L 967.6017456054688 9650.14453125 C 967.9586181640625 9650.048828125 968.3323974609375 9650.0009765625 968.7128295898438 9650.0009765625 C 969.4469604492188 9650.0009765625 970.1995849609375 9650.18359375 970.8894653320312 9650.5302734375 C 972.4851684570312 9651.3232421875 974.1627197265625 9651.9697265625 975.87548828125 9652.451171875 C 978.6377563476562 9653.3115234375 981.521728515625 9653.7470703125 984.447265625 9653.7470703125 M 976.7379760742188 9621.2626953125 L 976.73779296875 9621.263671875 C 975.84716796875 9624.501953125 973.4540405273438 9626.677734375 970.7828369140625 9626.677734375 C 967.3001098632812 9626.677734375 964.4666748046875 9623.0341796875 964.4666748046875 9618.556640625 C 964.4666748046875 9614.0791015625 967.3001098632812 9610.435546875 970.7828369140625 9610.435546875 C 974.0057983398438 9610.435546875 976.7040405273438 9613.5390625 977.0602416992188 9617.6552734375 L 991.2600708007812 9617.6552734375 C 991.61376953125 9613.5390625 994.3124389648438 9610.435546875 997.5374755859375 9610.435546875 C 1001.020263671875 9610.435546875 1003.853698730469 9614.0791015625 1003.853698730469 9618.556640625 C 1003.853698730469 9623.0341796875 1001.020263671875 9626.677734375 997.5374755859375 9626.677734375 C 994.8644409179688 9626.677734375 992.470703125 9624.501953125 991.5798950195312 9621.2626953125 L 976.7379760742188 9621.2626953125 M 984.447265625 9655.7470703125 C 981.3276977539062 9655.7470703125 978.2528686523438 9655.283203125 975.307373046875 9654.369140625 C 973.4849243164062 9653.8544921875 971.69921875 9653.166015625 969.9994506835938 9652.3212890625 L 969.991455078125 9652.3173828125 C 969.57958984375 9652.1103515625 969.137451171875 9652.0009765625 968.7128295898438 9652.0009765625 C 968.505615234375 9652.0009765625 968.3060913085938 9652.0263671875 968.1198120117188 9652.076171875 L 961.7376098632812 9653.7890625 C 961.245361328125 9653.9189453125 960.7438354492188 9653.9853515625 960.246826171875 9653.9853515625 C 958.490966796875 9653.9853515625 956.797119140625 9653.14453125 955.7158203125 9651.736328125 C 954.6271362304688 9650.318359375 954.2691650390625 9648.5107421875 954.7333374023438 9646.7763671875 L 956.437744140625 9640.39453125 C 956.595458984375 9639.810546875 956.5106201171875 9639.1435546875 956.1989135742188 9638.5146484375 C 954.0758666992188 9634.2578125 952.9984741210938 9629.6669921875 952.9984741210938 9624.875 C 952.9984741210938 9621.4384765625 953.5636596679688 9618.0634765625 954.6783447265625 9614.8447265625 C 955.7548828125 9611.734375 957.323486328125 9608.8271484375 959.340576171875 9606.205078125 C 961.3334350585938 9603.6142578125 963.7146606445312 9601.3671875 966.4180297851562 9599.525390625 C 969.1544189453125 9597.662109375 972.1519165039062 9596.2646484375 975.3283081054688 9595.37109375 C 978.26953125 9594.4609375 981.3373413085938 9594 984.447265625 9594 C 988.611083984375 9594 992.6536254882812 9594.81640625 996.462646484375 9596.4267578125 C 1000.138610839844 9597.9814453125 1003.440002441406 9600.20703125 1006.275573730469 9603.0419921875 C 1009.111022949219 9605.8779296875 1011.336975097656 9609.1796875 1012.891967773438 9612.85546875 C 1014.502746582031 9616.6640625 1015.319458007812 9620.7080078125 1015.319458007812 9624.875 C 1015.319458007812 9629.041015625 1014.502685546875 9633.083984375 1012.891906738281 9636.8916015625 C 1011.336364746094 9640.568359375 1009.1103515625 9643.8701171875 1006.275695800781 9646.7041015625 C 1003.442993164062 9649.537109375 1000.141662597656 9651.763671875 996.463623046875 9653.3203125 C 992.6536254882812 9654.9306640625 988.6110229492188 9655.7470703125 984.447265625 9655.7470703125 Z M 993.1233520507812 9619.33203125 L 993.50830078125 9620.732421875 C 994.1572875976562 9623.091796875 995.7764892578125 9624.677734375 997.5374755859375 9624.677734375 C 999.8770751953125 9624.677734375 1001.853698730469 9621.875 1001.853698730469 9618.556640625 C 1001.853698730469 9615.23828125 999.8770751953125 9612.435546875 997.5374755859375 9612.435546875 C 996.5653076171875 9612.435546875 995.604248046875 9612.9248046875 994.831298828125 9613.814453125 C 993.9484252929688 9614.8291015625 993.3878173828125 9616.2548828125 993.2527465820312 9617.826171875 L 993.1233520507812 9619.33203125 Z M 970.7828369140625 9612.435546875 C 968.4432373046875 9612.435546875 966.4666748046875 9615.23828125 966.4666748046875 9618.556640625 C 966.4666748046875 9621.875 968.4432373046875 9624.677734375 970.7828369140625 9624.677734375 C 972.522705078125 9624.677734375 974.1243896484375 9623.1279296875 974.7872924804688 9620.8125 L 975.0716552734375 9619.263671875 L 975.1919555664062 9619.263671875 L 975.0676879882812 9617.828125 C 974.9315795898438 9616.2548828125 974.370361328125 9614.830078125 973.4873046875 9613.814453125 C 972.71435546875 9612.9248046875 971.75390625 9612.435546875 970.7828369140625 9612.435546875 Z" stroke="none" fill="#292d32"/>
    </g>
  </g>
</svg>
