<svg xmlns="http://www.w3.org/2000/svg" xmlns:xlink="http://www.w3.org/1999/xlink" width="213.917" height="258.001" viewBox="0 0 213.917 258.001">
  <defs>
    <filter id="Path_1">
      <feOffset dy="3" input="SourceAlpha"/>
      <feGaussianBlur result="blur"/>
      <feFlood flood-color="#fff" result="color"/>
      <feComposite operator="out" in="SourceGraphic" in2="blur"/>
      <feComposite operator="in" in="color"/>
      <feComposite operator="in" in2="SourceGraphic"/>
    </filter>
    <filter id="Path_6">
      <feOffset dx="-2" input="SourceAlpha"/>
      <feGaussianBlur result="blur-2"/>
      <feFlood flood-color="#fff" result="color-2"/>
      <feComposite operator="out" in="SourceGraphic" in2="blur-2"/>
      <feComposite operator="in" in="color-2"/>
      <feComposite operator="in" in2="SourceGraphic"/>
    </filter>
    <filter id="Path_7">
      <feOffset dx="1" dy="2" input="SourceAlpha"/>
      <feGaussianBlur result="blur-3"/>
      <feFlood flood-color="#fff" result="color-3"/>
      <feComposite operator="out" in="SourceGraphic" in2="blur-3"/>
      <feComposite operator="in" in="color-3"/>
      <feComposite operator="in" in2="SourceGraphic"/>
    </filter>
  </defs>
  <g id="Group_1" data-name="Group 1" transform="translate(3974.438 10551)">
    <g data-type="innerShadowGroup">
      <path id="Path_1-2" data-name="Path 1" d="M-4031.184-10047.289s-6.544,5.093-16.963,2.947-15.015-11.49-15.015-11.49-8.555-60.575,2.965-110.921,17.066-67.126,44.941-96.139,67.008-15.4,86.006-15.247,30.866,8.273,31.75,11.49-5.551,7.968-4.938,15.781,7.345,21.086,8.58,49.368-4.7,44.768,0,73.969,13.982,36.6,19.9,54.953,3.234,26.4-4.733,31.146-23.135-2.443-23.135-2.443-2.451,12.4-18.846,14.089-24.043-8.4-24.043-8.4a24.114,24.114,0,0,1-21,14.683c-15.934.919-26.812-13.023-26.812-13.023s-5.619,11.382-21.144,8.273S-4031.184-10047.289-4031.184-10047.289Z" transform="translate(91.779 -269.538)" fill="#eadbf8"/>
      <g transform="matrix(1, 0, 0, 1, -3974.44, -10551)" filter="url(#Path_1)">
        <path id="Path_1-3" data-name="Path 1" d="M-4031.184-10047.289s-6.544,5.093-16.963,2.947-15.015-11.49-15.015-11.49-8.555-60.575,2.965-110.921,17.066-67.126,44.941-96.139,67.008-15.4,86.006-15.247,30.866,8.273,31.75,11.49-5.551,7.968-4.938,15.781,7.345,21.086,8.58,49.368-4.7,44.768,0,73.969,13.982,36.6,19.9,54.953,3.234,26.4-4.733,31.146-23.135-2.443-23.135-2.443-2.451,12.4-18.846,14.089-24.043-8.4-24.043-8.4a24.114,24.114,0,0,1-21,14.683c-15.934.919-26.812-13.023-26.812-13.023s-5.619,11.382-21.144,8.273S-4031.184-10047.289-4031.184-10047.289Z" transform="translate(4066.22 10281.46)" fill="#fff"/>
      </g>
    </g>
    <g transform="matrix(1, 0, 0, 1, -3974.44, -10551)" filter="url(#Path_6)">
      <path id="Path_6-2" data-name="Path 6" d="M-4031.184-10051.878s-6.544,5.093-16.963,2.947-15.015-11.49-15.015-11.49-8.555-60.575,2.965-110.92c3.26-14.248,35.818-84.115,35.818-84.115s68.939-2.389,103.313-3.595c10.991-.385,18.943-3.152,18.627-2.33-.578,1.49-.186,3.55,0,5.925.613,7.814,7.345,21.086,8.58,49.368s-4.7,44.768,0,73.969,13.982,36.6,19.9,54.954,3.234,26.4-4.733,31.146-23.135-2.445-23.135-2.445-2.451,12.4-18.846,14.091-24.043-8.4-24.043-8.4a24.116,24.116,0,0,1-21,14.683c-15.934.918-26.812-13.023-26.812-13.023s-5.619,11.382-21.144,8.273S-4031.184-10051.878-4031.184-10051.878Z" transform="translate(4066.22 10286.05)" fill="#fff"/>
    </g>
    <path id="Intersection_1" data-name="Intersection 1" d="M73.687,88.393s-5.618,11.382-21.143,8.274S35.033,77.632,35.033,77.632s-6.544,5.093-16.963,2.947S3.055,69.088,3.055,69.088A400.623,400.623,0,0,1,.43,1.452C.736.525.908,0,.908,0S5.7,50.175,18.222,53.013C24.63,54.464,29.07,47.723,32.9,40.983c3.652-6.433,6.744-12.867,10.453-12.177,7.6,1.412,7.009,38.724,18.73,34.165s18.245-51.846,28.153-52.4S100.4,58.439,112.311,61.288s6.612-18.829,15.537-19.16c3.827-.142,6.577,4.55,9.179,9.24,3.463,6.247,6.664,12.493,11.794,7.332,8.982-9.038,5.128-38.393,12.429-48.126,6.935-9.245,15.83,7.365,16.705,9.055,4.649,12.753,10.263,20.18,14.3,32.717,5.916,18.353,3.234,26.4-4.732,31.145s-23.135-2.445-23.135-2.445-2.451,12.4-18.846,14.09-24.043-8.4-24.043-8.4a24.114,24.114,0,0,1-21,14.682c-.508.029-1.012.043-1.51.044C83.881,101.461,73.687,88.393,73.687,88.393Z" transform="translate(-3974.438 -10394.46)" fill="#d1c9fc"/>
    <ellipse id="Ellipse_1" data-name="Ellipse 1" cx="15.378" cy="20.299" rx="15.378" ry="20.299" transform="translate(-3923.731 -10501.225)"/>
    <ellipse id="Ellipse_2" data-name="Ellipse 2" cx="15.378" cy="20.299" rx="15.378" ry="20.299" transform="translate(-3880.673 -10496.304)"/>
    <path id="Path_2" data-name="Path 2" d="M-3945.868-10196.361s16.781-4.829,28.482-17.526,6.175-32.467,20.316-34.458,23.1,13.942,15.536,37.645-44.018,54.574-44.018,54.574Z" transform="translate(118.258 -260.724)" fill="#eadbf8"/>
    <g data-type="innerShadowGroup">
      <path id="Path_7-2" data-name="Path 7" d="M-3945.868-10196.361s16.781-4.829,28.482-17.526,6.175-32.467,20.316-34.458,23.1,13.942,15.536,37.645-44.018,54.574-44.018,54.574" transform="translate(118.258 -260.724)" fill="#eadbf8"/>
      <g transform="matrix(1, 0, 0, 1, -3974.44, -10551)" filter="url(#Path_7)">
        <path id="Path_7-3" data-name="Path 7" d="M-3945.868-10196.361s16.781-4.829,28.482-17.526,6.175-32.467,20.316-34.458,23.1,13.942,15.536,37.645-44.018,54.574-44.018,54.574" transform="translate(4092.7 10290.28)" fill="#fff"/>
      </g>
    </g>
    <path id="Path_3" data-name="Path 3" d="M-4000.231-10226.039l15.865,1.541v3.537l-15.865-1.723Z" transform="translate(105.741 -255.548)"/>
    <path id="Path_8" data-name="Path 8" d="M2.892,0c.864,0,.276,2.09-1.09,3.82C.727,5.186-1.127,6.19-1.127,5.322-1.127,3.59,1.16,0,2.892,0Z" transform="translate(-3917.408 -10492.904)" fill="#fff"/>
    <path id="Path_9" data-name="Path 9" d="M2.892,0c.864,0,.276,2.09-1.09,3.82C.727,5.186-1.127,6.19-1.127,5.322-1.127,3.59,1.16,0,2.892,0Z" transform="translate(-3874.291 -10488.201)" fill="#fff"/>
  </g>
</svg>
