<svg xmlns="http://www.w3.org/2000/svg" width="197.005" height="88.701" viewBox="0 0 197.005 88.701">
  <path id="Union_1" data-name="Union 1" d="M4811,10639.7c-9.35,0-18.275-4.191-25.133-11.8a48.019,48.019,0,0,1-11.738-28.891H4724.87a48.019,48.019,0,0,1-11.738,28.891c-6.857,7.611-15.783,11.8-25.133,11.8a31.584,31.584,0,0,1-14.4-3.486,37.272,37.272,0,0,1-11.763-9.5,45.534,45.534,0,0,1-7.931-14.1,52.694,52.694,0,0,1,0-34.527,45.566,45.566,0,0,1,7.931-14.1,37.315,37.315,0,0,1,11.763-9.5,31.453,31.453,0,0,1,27.237-.744,36,36,0,0,1,10.884,7.57,43.362,43.362,0,0,1,8.108,11.416,49.623,49.623,0,0,1,4.514,14.277h50.315a49.623,49.623,0,0,1,4.514-14.277,43.362,43.362,0,0,1,8.108-11.416,36,36,0,0,1,10.884-7.57,31.453,31.453,0,0,1,27.237.744,37.315,37.315,0,0,1,11.763,9.5,45.566,45.566,0,0,1,7.931,14.1,52.694,52.694,0,0,1,0,34.527,45.534,45.534,0,0,1-7.931,14.1,37.272,37.272,0,0,1-11.763,9.5A31.584,31.584,0,0,1,4811,10639.7Zm-137.617-74.969c-1.7,0-3.885,1.652-5.846,4.42-1.789,2.529-2.99,5.453-2.99,7.277a.64.64,0,0,0,.719.713c1.213,0,3.915-1.717,5.716-4.016,2.309-2.918,3.777-6.629,3.142-7.941A.763.763,0,0,0,4673.381,10564.73Zm125.159-3.053c-1.7,0-3.885,1.65-5.843,4.418-1.787,2.527-2.987,5.451-2.987,7.275a.64.64,0,0,0,.719.713c1.207,0,3.907-1.715,5.715-4.012,2.307-2.922,3.773-6.633,3.14-7.941A.767.767,0,0,0,4798.54,10561.678Z" transform="translate(-4650.996 -10550.998)" fill="#292d32"/>
</svg>
