<svg xmlns="http://www.w3.org/2000/svg" xmlns:xlink="http://www.w3.org/1999/xlink" width="316" height="385.985" viewBox="0 0 316 385.985">
  <defs>
    <filter id="Path_1">
      <feOffset dy="3" input="SourceAlpha"/>
      <feGaussianBlur result="blur"/>
      <feFlood flood-color="#fff" result="color"/>
      <feComposite operator="out" in="SourceGraphic" in2="blur"/>
      <feComposite operator="in" in="color"/>
      <feComposite operator="in" in2="SourceGraphic"/>
    </filter>
    <filter id="Path_6">
      <feOffset dx="-2" input="SourceAlpha"/>
      <feGaussianBlur result="blur-2"/>
      <feFlood flood-color="#fff" result="color-2"/>
      <feComposite operator="out" in="SourceGraphic" in2="blur-2"/>
      <feComposite operator="in" in="color-2"/>
      <feComposite operator="in" in2="SourceGraphic"/>
    </filter>
    <filter id="Path_7">
      <feOffset dx="1" dy="2" input="SourceAlpha"/>
      <feGaussianBlur result="blur-3"/>
      <feFlood flood-color="#fff" result="color-3"/>
      <feComposite operator="out" in="SourceGraphic" in2="blur-3"/>
      <feComposite operator="in" in="color-3"/>
      <feComposite operator="in" in2="SourceGraphic"/>
    </filter>
  </defs>
  <g id="Group_2113" data-name="Group 2113" transform="translate(-57 -52.015)">
    <path id="Path_30" data-name="Path 30" d="M126.513,0c69.534,0,178.953,61.387,178.953,126.463s-109.42,109.2-178.953,109.2S-10.534,183.491-10.534,118.415,56.979,0,126.513,0Z" transform="translate(67.534 202.338)" fill="#a773f4"/>
    <g id="Group_172" data-name="Group 172" transform="translate(0.998 -360.603)">
      <path id="Subtraction_20" data-name="Subtraction 20" d="M5164.9,9231.972a16.793,16.793,0,0,1-8.82-2.471,4.9,4.9,0,0,1-2.3-4.366,9.884,9.884,0,0,1,.833-3.557,3.967,3.967,0,0,1,2.3-2.381.769.769,0,0,1,.17-.016,11.851,11.851,0,0,1,2.938.877l.078.029c.472.179.879.333,1.126.4a10.453,10.453,0,0,0,2.836.345c.463,0,.964-.021,1.532-.064,2.291-.224,4.254-2.965,4.479-5.266a11.072,11.072,0,0,1-4.032.9c-.519.05-1.043.075-1.559.075a15.893,15.893,0,0,1-3.593-.411,8.691,8.691,0,0,1-3.918-1.792,10.525,10.525,0,0,1-3.474-6.1c-.69-3.678.094-7.523.785-10.916.046-.223.091-.448.135-.667l.015-.076a19.418,19.418,0,0,1,.858-3.293,6.24,6.24,0,0,1,1.456-2.576,3.721,3.721,0,0,1,2.239-.953c.148-.013.306-.019.468-.019a9.071,9.071,0,0,1,3.453.8,25.9,25.9,0,0,1,2.855,1.288c1.318,1.069.476,3.9-.2,6.179l0,.009a21.256,21.256,0,0,0-.58,2.211c-.17,1.085-.386,4.21.111,5.152a2.282,2.282,0,0,0,1.964,1.16,1.977,1.977,0,0,0,.894-.208c1.149-.576,1.478-3.056,1.625-4.871.074-1.274.049-2.562.025-3.808v-.011c-.012-.621-.025-1.264-.025-1.895a3.957,3.957,0,0,1,.447-2.3,4.116,4.116,0,0,1,2.52-1.511,15.718,15.718,0,0,1,3.958-.428c.917,0,1.842.046,2.737.091h.026a3.486,3.486,0,0,1,2.408,1.511c.58,1.294.307,5.752.144,8.415v.023c-.041.658-.075,1.227-.086,1.587-.058,1.63-.069,3.287-.08,4.89V9208a90.791,90.791,0,0,1-.367,9.13,17.16,17.16,0,0,1-2.688,7.729,15.642,15.642,0,0,1-5.99,5.3A17.127,17.127,0,0,1,5164.9,9231.972Zm29.123-2.074c-1.78,0-3.619-.076-5.464-.228a3.026,3.026,0,0,1-2.127-1.175c-.6-1.605-.543-7.186-.5-11.26.016-1.552.03-2.893,0-3.581-.029-.927-.062-1.867-.089-2.664v-.006c-.155-4.492-.315-9.139-.081-13.682a27.767,27.767,0,0,1,.392-3.7,6.2,6.2,0,0,1,2.072-3.359,13.963,13.963,0,0,1,6.554-2.744,31.5,31.5,0,0,1,5.663-.5c.9,0,1.825.037,2.736.11a13.114,13.114,0,0,1,5.6,1.791,10.113,10.113,0,0,1,4.333,5.748,8.633,8.633,0,0,1-.917,6.966,11.3,11.3,0,0,1-2.577,2.854,11.474,11.474,0,0,1,4.538,2.239,11.834,11.834,0,0,1,3.527,5.432,13.267,13.267,0,0,1-.447,8.57,12.236,12.236,0,0,1-2.352,3.472,17.863,17.863,0,0,1-7.785,4.144A51.821,51.821,0,0,1,5194.027,9229.9Zm6.867-37.017c-3.5,0-6.352,2.444-6.352,5.448a5.022,5.022,0,0,0,1.691,3.7,6.781,6.781,0,0,0,4.137,1.731v7.249a6.78,6.78,0,0,0-4.137,1.729,5.034,5.034,0,0,0-1.691,3.7c0,3,2.85,5.448,6.352,5.448s6.35-2.444,6.35-5.448c0-2.614-2.168-4.864-5.156-5.351v-7.407c2.988-.488,5.156-2.738,5.156-5.351C5207.244,9195.325,5204.4,9192.881,5200.895,9192.881Zm88.86,36.229a16.169,16.169,0,0,1-6.551-1.063,4.658,4.658,0,0,1-2.239-2.408,7.637,7.637,0,0,1-.505-5.657,4.1,4.1,0,0,1,.505-1.119c.53-.764,1.712-1.12,3.72-1.12.975,0,1.988.08,3.026.17l.25.021c.847.074,1.722.151,2.382.151.11,0,.214,0,.308-.006a2.183,2.183,0,0,0,1.461-.408.622.622,0,0,0,.163-.488c-.054-.932-1.908-1.8-2.8-2.214l-.059-.027c-.5-.255-1.027-.51-1.486-.729a20.911,20.911,0,0,1-4-2.293,8.63,8.63,0,0,1-3.191-7.449,9.517,9.517,0,0,1,2.913-5.712,12.268,12.268,0,0,1,3.807-2.464,18.906,18.906,0,0,1,7.589-1.606,17.166,17.166,0,0,1,1.818.1,11.092,11.092,0,0,1,4.649,1.4,1.866,1.866,0,0,1,.9,1.066,11.151,11.151,0,0,1,.658,4.139c0,.133.009.265.014.4a5.8,5.8,0,0,1-.6,2.842,2.466,2.466,0,0,1-2.148,1.415c-.049,0-.1,0-.165,0-.367,0-1.027-.051-1.725-.1l-.217-.017c-.844-.062-1.65-.117-2.239-.117a2.9,2.9,0,0,0-.75.064.951.951,0,0,0-.78.813c-.083.848.909,2.143,2.122,2.771a13.468,13.468,0,0,1,4.874,3.975,10.5,10.5,0,0,1,1.847,4.479,9.408,9.408,0,0,1-.5,4.144,11.143,11.143,0,0,1-6.329,6.106A20.687,20.687,0,0,1,5289.755,9229.109Zm-45.694-.136a31.242,31.242,0,0,1-3.129-.215c-.375-.039-.734-.076-1.016-.1-2.914-.182-6.747-.391-10.552-.391-2,0-3.838.055-5.631.166-.148.012-.295.018-.435.018a2.482,2.482,0,0,1-1.806-.576c-.457-.4-.387-1.174-.336-1.737,0-.045.006-.094.01-.147l.006-.088c.064-.98.2-3.011.656-3.573a2.573,2.573,0,0,1,1.736-.783l.036,0c3.417-.284,6.95-.578,10.514-.578.554,0,1.112.008,1.658.022h.006c1.265.055,2.573.111,3.913.111a14.319,14.319,0,0,1,6.162.95l.035.02.008,0a2.857,2.857,0,0,1,1.077.872,3.55,3.55,0,0,1,.371,1.624q.01.141.021.281c.114.866-.059,2.914-.672,3.527A4,4,0,0,1,5244.061,9228.974Zm19.292-.327a15.194,15.194,0,0,1-1.709-.1,14.1,14.1,0,0,1-7.729-3.416,11.511,11.511,0,0,1-3.08-4.368,13.125,13.125,0,0,1-.958-6.3,13.994,13.994,0,0,1,2.022-6.133,11.759,11.759,0,0,1,5.209-4.535,12.15,12.15,0,0,1,4.715-.908,14.017,14.017,0,0,1,2.564.236c.045-.786.01-2.044-.032-3.5-.114-3.983-.27-9.438,1.04-11.117.65-.813,2.071-1.227,4.222-1.227a35.758,35.758,0,0,1,4.827.434l.023,0,.3.041.151.021a2.654,2.654,0,0,1,1.847,1.008,4.87,4.87,0,0,1,.672,2.408,23.425,23.425,0,0,1-.041,2.932v.014c-.035.616-.07,1.255-.07,1.87-.118,3.52-.252,7.09-.372,10.24-.114,3.04-.244,6.486-.356,9.809-.033.518-.051,1.039-.069,1.543l0,.059a23.152,23.152,0,0,1-.32,3.663,7.486,7.486,0,0,1-1.4,3.191,7.631,7.631,0,0,1-3.024,2.127A20.32,20.32,0,0,1,5263.354,9228.646Zm.541-17.657c-3.5,0-6.352,2.444-6.352,5.448s2.85,5.446,6.352,5.446,6.35-2.443,6.35-5.446S5267.4,9210.989,5263.895,9210.989Zm-120.127,17.54a18.119,18.119,0,0,1-3.532-.37,2.164,2.164,0,0,1-1.12-.561,4.213,4.213,0,0,1-1.008-1.736,19.419,19.419,0,0,1-.447-7.393c.114-1.206.787-8.6.895-9.8-.5,1.312-.891,2.666-1.271,3.976a44.641,44.641,0,0,1-1.473,4.481c-.155.468-.771,1.9-1.286,2.127a5.944,5.944,0,0,1-2.335.292c-1.563,0-3.2-.171-3.266-.178-.819-.058-1.653-1.506-2.016-2.353a31.5,31.5,0,0,1-1.665-4.723c-.325-1.106-.661-2.25-1.079-3.342.027.55.225,2.465.435,4.492l0,.026c.212,2.055.431,4.179.459,4.776.207,2.06.368,7.755-1.344,9.354-.869.818-3.709.882-4.559.882-.457,0-.886-.016-1.209-.043-1.093-.061-3.493-.531-4.088-1.345-.5-.612-.336-2.966-.281-3.738v-.014c.118-1.941-.087-9.126-.286-16.073v-.053c-.182-6.355-.353-12.359-.273-14.114.065-.866.382-2.994,1.9-4.03,1.186-.7,5.253-1.236,6.837-1.236.089,0,.159,0,.219,0a3.95,3.95,0,0,1,1.958.616c1.241.825,3,5.028,3.753,6.824l.168.4.391.914,0,.006a70.59,70.59,0,0,1,3.134,8.264,52.816,52.816,0,0,1,2.108-5.815l.008-.021c.342-.838.695-1.706,1.021-2.563l.114-.28c.844-2.091,2.822-6.984,4.477-7.84a5.778,5.778,0,0,1,2.554-.408,19.848,19.848,0,0,1,4.725.577,5.562,5.562,0,0,1,2.352,1.511c1.036,1.692,1.068,3.827,1.008,6.049-.037,3.482-.176,7.031-.311,10.464l0,.058c-.066,1.693-.134,3.444-.189,5.158a118.619,118.619,0,0,0,0,13.386,3.123,3.123,0,0,1-.336,2.014,3.3,3.3,0,0,1-1.792.953A12.681,12.681,0,0,1,5143.767,9228.529Zm90.736-10.148a26.724,26.724,0,0,1-6.4-.639,10.682,10.682,0,0,1-5.488-2.8,9.623,9.623,0,0,1-1.792-4.255,17.587,17.587,0,0,1-.5-3.808c0-1.768.34-10.117.561-11.759.159-.9.377-2.122,1.233-2.635a8.083,8.083,0,0,1,1.445-.289h.006c.365-.055.742-.111.9-.157a13.32,13.32,0,0,1,1.773-.08,28.989,28.989,0,0,1,4.217.249,3.26,3.26,0,0,1,1.569.839c.959.891.637,3.819.352,6.4a16.62,16.62,0,0,0-.185,3.51c.155.616.692,1.51,1.4,1.568a10.424,10.424,0,0,0,1.083.063,2.076,2.076,0,0,0,1.213-.232c.635-.58.73-2.635.73-3.808,0-.659-.019-1.32-.037-1.961-.027-.939-.055-1.911-.021-2.854a6.719,6.719,0,0,1,.336-2.353,2.784,2.784,0,0,1,.952-1.175,6.175,6.175,0,0,1,2.688-.392c.9,0,4.467.1,5.376.614a3.058,3.058,0,0,1,1.119,2.354c.18,1.185.315,2.41.445,3.595l.005.048c.073.67.146,1.323.222,1.956a28.607,28.607,0,0,1-.225,9.016,17.481,17.481,0,0,1-1.791,5.32,8.386,8.386,0,0,1-2.633,2.408,5.663,5.663,0,0,1-1.562.637l-.005,0-.113.033a13.152,13.152,0,0,1-3.3.5l-.063,0C5236.855,9218.341,5235.666,9218.381,5234.5,9218.381Z" transform="translate(-4994.18 -8774.383)" fill="#fff"/>
      <path id="Path_373" data-name="Path 373" d="M143.3,34.24a3.6,3.6,0,0,0,1.624-1.792c.336-1.12.056-3.136-.84-3.864a7.066,7.066,0,0,0-1.848-.9,4.95,4.95,0,0,0-2.968.392,4.4,4.4,0,0,0-1.512,4.76,3.4,3.4,0,0,0,1.624,1.568A4.067,4.067,0,0,0,143.3,34.24Z" transform="translate(119.12 392.402)" fill="#fff"/>
    </g>
    <g id="Group_7" data-name="Group 7" transform="translate(128.817 124.881)">
      <g data-type="innerShadowGroup">
        <path id="Path_1-2" data-name="Path 1" d="M-4037.989-10092.777s-5.273,4.1-13.668,2.376-12.1-9.259-12.1-9.259-6.893-48.808,2.389-89.374,13.751-54.089,36.212-77.466,53.992-12.408,69.3-12.284,25.5,3.469,25.583,9.258-4.473,6.42-3.979,12.716,5.919,16.991,6.914,39.778-3.784,36.07,0,59.6,11.266,29.49,16.033,44.279,2.606,21.269-3.813,25.1-18.641-1.971-18.641-1.971-1.976,9.994-15.185,11.354-19.373-6.771-19.373-6.771a19.431,19.431,0,0,1-16.923,11.831c-12.839.741-21.6-10.493-21.6-10.493s-4.527,9.171-17.037,6.666S-4037.989-10092.777-4037.989-10092.777Z" transform="translate(4066.217 10281.462)" fill="#eadbf8"/>
        <g transform="matrix(1, 0, 0, 1, -71.82, -72.87)" filter="url(#Path_1)">
          <path id="Path_1-3" data-name="Path 1" d="M-4037.989-10092.777s-5.273,4.1-13.668,2.376-12.1-9.259-12.1-9.259-6.893-48.808,2.389-89.374,13.751-54.089,36.212-77.466,53.992-12.408,69.3-12.284,25.5,3.469,25.583,9.258-4.473,6.42-3.979,12.716,5.919,16.991,6.914,39.778-3.784,36.07,0,59.6,11.266,29.49,16.033,44.279,2.606,21.269-3.813,25.1-18.641-1.971-18.641-1.971-1.976,9.994-15.185,11.354-19.373-6.771-19.373-6.771a19.431,19.431,0,0,1-16.923,11.831c-12.839.741-21.6-10.493-21.6-10.493s-4.527,9.171-17.037,6.666S-4037.989-10092.777-4037.989-10092.777Z" transform="translate(4138.03 10354.33)" fill="#fff"/>
        </g>
      </g>
      <g transform="matrix(1, 0, 0, 1, -71.82, -72.87)" filter="url(#Path_6)">
        <path id="Path_6-2" data-name="Path 6" d="M-4037.989-10092.6s-5.273,4.1-13.668,2.374-12.1-9.257-12.1-9.257-6.893-48.811,2.389-89.375c2.627-11.48,28.861-67.776,28.861-67.776s55.549-1.926,83.246-2.9c8.856-.311,15.263-2.54,15.009-1.878-.465,1.2-.149,2.86,0,4.774.494,6.3,5.919,16.99,6.914,39.778s-3.046,30.983-.128,55.912,11.395,33.18,16.161,47.968,2.606,21.27-3.813,25.1-18.641-1.97-18.641-1.97-1.976,10-15.185,11.354-19.373-6.77-19.373-6.77a19.428,19.428,0,0,1-16.923,11.829c-12.839.741-21.6-10.492-21.6-10.492s-4.527,9.171-17.037,6.665S-4037.989-10092.6-4037.989-10092.6Z" transform="translate(4138.03 10354.15)" fill="#fff"/>
      </g>
      <path id="Intersection_1" data-name="Intersection 1" d="M59.374,71.223s-4.527,9.171-17.036,6.667S28.228,62.552,28.228,62.552s-5.273,4.1-13.668,2.375-12.1-9.259-12.1-9.259A322.8,322.8,0,0,1,.346,1.17C.593.423.732,0,.732,0S4.589,40.429,14.682,42.715c5.164,1.17,8.741-4.262,11.824-9.693,2.942-5.183,5.434-10.368,8.423-9.812,6.12,1.138,5.647,31.2,15.092,27.529s14.7-41.775,22.685-42.22S80.9,47.088,90.5,49.383s5.328-15.172,12.519-15.439c3.083-.114,5.3,3.666,7.4,7.445,2.791,5.034,5.37,10.066,9.5,5.908,7.237-7.283,4.132-30.935,10.014-38.778,5.588-7.449,12.755,5.935,13.46,7.3,3.746,10.276,8.269,16.26,11.525,26.362,4.767,14.788,2.606,21.269-3.813,25.1s-18.641-1.97-18.641-1.97-1.975,9.995-15.185,11.353S97.9,69.886,97.9,69.886a19.43,19.43,0,0,1-16.922,11.83c-.409.024-.816.035-1.216.035C67.588,81.752,59.374,71.223,59.374,71.223Z" transform="translate(0 126.132)" fill="#d1c9fc"/>
      <ellipse id="Ellipse_1" data-name="Ellipse 1" cx="12.391" cy="16.356" rx="12.391" ry="16.356" transform="translate(40.857 40.106)" fill="#292d32"/>
      <ellipse id="Ellipse_2" data-name="Ellipse 2" cx="12.391" cy="16.356" rx="12.391" ry="16.356" transform="translate(75.552 44.072)" fill="#292d32"/>
      <path id="Path_2" data-name="Path 2" d="M-3945.869-10205.228s14.3-4.007,24.271-14.548,5.261-26.945,17.312-28.6,19.688,11.573,13.238,31.245-37.51,45.3-37.51,45.3Z" transform="translate(4061.066 10282.165)" fill="#eadbf8"/>
      <g data-type="innerShadowGroup">
        <path id="Path_7-2" data-name="Path 7" d="M-3945.869-10206.492s13.521-3.89,22.95-14.123,4.976-26.159,16.37-27.764,18.617,11.235,12.518,30.331-35.468,43.977-35.468,43.977" transform="translate(4064.176 10282.165)" fill="#eadbf8"/>
        <g transform="matrix(1, 0, 0, 1, -71.82, -72.87)" filter="url(#Path_7)">
          <path id="Path_7-3" data-name="Path 7" d="M-3945.869-10206.492s13.521-3.89,22.95-14.123,4.976-26.159,16.37-27.764,18.617,11.235,12.518,30.331-35.468,43.977-35.468,43.977" transform="translate(4135.99 10355.03)" fill="#fff"/>
        </g>
      </g>
      <path id="Path_3" data-name="Path 3" d="M-4000.231-10226.038l12.784,1.241v2.85l-12.784-1.388Z" transform="translate(4064.65 10281.968)" fill="#292d32"/>
      <path id="Path_8" data-name="Path 8" d="M2.112,0c.7,0,.222,1.684-.878,3.078-.866,1.1-2.36,1.909-2.36,1.21C-1.127,2.893.716,0,2.112,0Z" transform="translate(46.171 46.811)" fill="#fff"/>
      <path id="Path_9" data-name="Path 9" d="M2.112,0c.7,0,.222,1.684-.878,3.078-.866,1.1-2.36,1.909-2.36,1.21C-1.127,2.893.716,0,2.112,0Z" transform="translate(80.913 50.6)" fill="#fff"/>
    </g>
  </g>
</svg>
