<svg xmlns="http://www.w3.org/2000/svg" width="724.887" height="443.649" viewBox="0 0 724.887 443.649">
  <path id="Intersection_1" data-name="Intersection 1" d="M273.275,386.513s-20.835,49.771-78.413,36.181-64.94-83.235-64.94-83.235-24.268,22.271-62.907,12.888S11.33,302.1,11.33,302.1-5.073,165.146,1.594,6.349C2.728,2.3,3.368,0,3.368,0S21.124,219.4,67.577,231.807c23.767,6.347,40.233-23.128,54.42-52.6,13.542-28.129,25.011-56.263,38.767-53.247,28.169,6.173,25.992,169.327,69.461,149.395s67.662-226.7,104.409-229.12,37.708,209.3,81.882,221.761,24.522-82.335,57.619-83.783c14.191-.62,24.391,19.894,34.041,40.4,12.844,27.316,24.715,54.627,43.74,32.061,33.31-39.521,19.016-167.88,46.092-210.441,25.718-40.426,58.708,32.206,61.954,39.6,17.24,55.765,38.06,88.241,53.045,143.06,21.94,80.253,11.994,115.422-17.55,136.187s-85.8-10.69-85.8-10.69-9.091,54.24-69.892,61.613S450.6,379.26,450.6,379.26s-18.794,60.18-77.887,64.2c-1.883.128-3.754.19-5.6.19C311.081,443.654,273.275,386.513,273.275,386.513Z" fill="#d1c9fc" opacity="0.7"/>
</svg>
